<?xml version="1.0" encoding="utf-8"?>
<!-- Generator: Adobe Illustrator 27.5.0, SVG Export Plug-In . SVG Version: 6.00 Build 0)  -->
<svg version="1.1" id="Camada_1" xmlns="http://www.w3.org/2000/svg" xmlns:xlink="http://www.w3.org/1999/xlink" x="0px" y="0px"
	 viewBox="0 0 305.3 282.6" style="enable-background:new 0 0 305.3 282.6;" xml:space="preserve">
<style type="text/css">
	.st0{fill:#E2B23B;stroke:#E2B23B;stroke-width:8;stroke-miterlimit:10;}
	.st1{fill:#57ABC4;stroke:#57ABC4;stroke-width:8;stroke-miterlimit:10;}
	.st2{fill:#3D94A8;stroke:#3D94A8;stroke-width:2;stroke-miterlimit:10;}
</style>
<g id="Camada_2_00000145757672501900227350000004843694083102166195_">
	<g id="Camada_3">
		<path class="st0" d="M161.7,4.7l132.7,50.4c5.6,2.1,8.4,8.3,6.3,13.9l-76.9,202.6c-2.1,5.6-8.3,8.4-13.9,6.3L77.1,227.5
			c-5.6-2.1-8.4-8.3-6.3-13.9l76.9-202.6C149.9,5.4,156.1,2.6,161.7,4.7z"/>
		<path class="st1" d="M12.9,36.7l139.6-25.3c5.9-1.1,11.5,2.8,12.5,8.7l38.6,213.3c1.1,5.9-2.8,11.5-8.7,12.5L55.3,271.2
			c-5.9,1.1-11.5-2.8-12.5-8.7L4.2,49.2C3.1,43.3,7,37.7,12.9,36.7z"/>
		<path class="st2" d="M43.2,113.2l107.2-19.4c3.1-0.6,6.1,1.5,6.6,4.6l0.1,0.5c0.6,3.1-1.5,6.1-4.6,6.6L45.4,125
			c-3.1,0.6-6.1-1.5-6.6-4.6l-0.1-0.5C38.1,116.8,40.1,113.8,43.2,113.2z"/>
		<path class="st2" d="M48.3,132.7l89.2-16.1c3.2-0.6,6.3,1.6,6.9,4.8l0,0.1c0.6,3.2-1.6,6.3-4.8,6.9l-89.2,16.1
			c-3.2,0.6-6.3-1.6-6.9-4.8l0-0.1C42.9,136.4,45.1,133.3,48.3,132.7z"/>
		<path class="st2" d="M64.2,154l90.4-16.4c3.3-0.6,6.4,1.6,7,4.8v0c0.6,3.3-1.6,6.4-4.8,7l-90.4,16.4c-3.3,0.6-6.4-1.6-7-4.8l0,0
			C58.8,157.7,60.9,154.6,64.2,154z"/>
		<path class="st2" d="M66,170.6l58.7-10.6c2.7-0.5,5.2,1.3,5.7,4l0.4,2.1c0.5,2.7-1.3,5.2-4,5.7l-58.7,10.6c-2.7,0.5-5.2-1.3-5.7-4
			l-0.4-2.1C61.5,173.6,63.3,171.1,66,170.6z"/>
	</g>
</g>
</svg>
