<?xml version="1.0" encoding="utf-8"?>
<!-- Generator: Adobe Illustrator 27.5.0, SVG Export Plug-In . SVG Version: 6.00 Build 0)  -->
<svg version="1.1" xmlns="http://www.w3.org/2000/svg" xmlns:xlink="http://www.w3.org/1999/xlink" x="0px" y="0px"
	 viewBox="0 0 500 500" style="enable-background:new 0 0 500 500;" xml:space="preserve">
<g id="Floor">
	<ellipse id="Floor_1_" style="fill:#F5F5F5;" cx="250" cy="356.113" rx="231.115" ry="133.434"/>
</g>
<g id="Shadow">
	<path id="Shadow_2_" style="fill:#E0E0E0;" d="M409.599,407.922c-1.336-6.174-8.036-11.072-15.554-13.604
		c-3.346-4.154-9.493-8.87-20.035-14.009c-23.261-11.34-35.812-17.197-42.245-20.113c-4.063-1.841-9.646-1.612-13.277,0.54
		l-53.365,31.637c-1.215,0.72-3.45,0.727-4.687,0.015c-0.23-0.134-0.35-0.248-0.407-0.317c0.057-0.066,0.171-0.177,0.392-0.306
		c19.582-11.43,53.22-31.121,58.485-34.587c2.632-1.733,2.564-3.98,1.622-5.507c-2.612-4.234-15.313-7.419-20.86-4.214
		l-68.006,39.264c-2.306,1.33-3.56,3.288-3.441,5.371c0.127,2.227,1.78,4.19,4.537,5.389c9.541,4.145,26.091,11.609,50.753,23.632
		c6.34,3.091,11.371,6.211,14.965,9.23c-0.466-0.067-0.929-0.124-1.389-0.169c-17.541-1.717-26.988,4.557-28.337,11.111
		c-1.078,5.237,2.77,10.069,9.801,12.31c9.87,3.143,25.855-0.915,29.307-9.532c0.757-1.891,1.039-4.155,0.256-6.744
		c4.212,2.328,7.532,5.575,8.318,9.213c1.084,5.01-2.828,10.248-11.315,15.148c-24.442,14.11-42.978,5.445-70.604-10.503
		c-3.944-2.277-31.643-18.134-80.104-45.854c-6.337-3.625-10.273-10.413-10.273-17.717v-12.655c0-0.984-0.798-1.782-1.782-1.782
		c-0.984,0-1.782,0.798-1.782,1.782v12.655c0,8.578,4.624,16.553,12.068,20.811c48.455,27.719,76.15,43.572,80.092,45.847
		c18.065,10.431,32.915,18.062,48.212,18.061c8.322-0.001,16.779-2.26,25.954-7.558c12.582-7.265,14.023-14.335,13.017-18.988
		c-1.342-6.206-7.615-11.12-14.69-13.713c-3.318-4.19-9.486-8.956-20.151-14.155c-24.722-12.051-41.322-19.539-50.896-23.698
		c-1.434-0.622-2.353-1.512-2.398-2.321c-0.039-0.69,0.567-1.449,1.664-2.083l68.006-39.264c2.772-1.6,9.355-0.714,13.393,1.145
		c2.134,0.982,2.689,1.825,2.727,1.94c-0.001,0.003-0.09,0.224-0.621,0.573c-5.196,3.419-38.772,23.074-58.324,34.485
		c-1.398,0.818-2.199,2.055-2.196,3.393c0.004,1.343,0.816,2.58,2.229,3.395c2.336,1.352,5.978,1.333,8.286-0.035l53.365-31.636
		c2.618-1.554,7.005-1.712,9.988-0.36c6.412,2.907,18.93,8.749,42.153,20.07c6.338,3.09,11.366,6.208,14.96,9.227
		c-0.464-0.065-0.926-0.12-1.384-0.165c-17.539-1.715-26.988,4.555-28.337,11.11c-1.078,5.237,2.77,10.069,9.801,12.31
		c9.871,3.143,25.855-0.914,29.307-9.531c0.789-1.971,1.063-4.35,0.149-7.077c4.665,2.306,8.374,5.602,9.172,9.29
		c1.063,4.908-3.108,10.234-12.062,15.404l-8.145,4.702c-0.195-0.169-0.397-0.324-0.607-0.445c-0.695-0.401-1.325-0.439-1.781-0.176
		l-3.546,2.048c-0.825-0.408-1.572-0.442-2.123-0.124l-13.345,7.705c-0.614,0.345-0.995,1.097-0.995,2.172
		c0,0.271,0.025,0.55,0.072,0.832l-0.499,0.317c0.002-0.001,0.006-0.002,0.008-0.003l-2.968,1.887
		c-0.002,0.001-0.004,0.001-0.005,0.002l-0.585,0.372c0.002-0.001,0.004-0.001,0.006-0.002l-3.012,1.915
		c-0.001,0-0.002,0-0.003,0.001l-0.54,0.344c0.001-0.001,0.002-0.001,0.003-0.001l-3.056,1.943l0,0l-0.496,0.315l-4.163,1.639
		c-0.065,0.036-0.123,0.083-0.178,0.136l-1.123,1.052l0.004,0.007c-0.207,0.198-0.335,0.516-0.335,0.944
		c0,1.048,0.736,2.323,1.644,2.847c0.37,0.213,0.707,0.262,0.981,0.183l0.004,0.007l1.438-0.434
		c0.084-0.021,0.163-0.053,0.236-0.095h0l0,0l3.502-2.789l3.732-1.946c-0.001,0.001-0.001,0.001-0.003,0.002l0.568-0.296
		c0.001,0,0.001-0.001,0.002-0.002l3.164-1.65c-0.002,0.001-0.003,0.003-0.005,0.004l0.615-0.321
		c0.002-0.001,0.003-0.003,0.004-0.004l3.118-1.626c-0.003,0.002-0.005,0.004-0.007,0.006l0.533-0.278
		c0.221,0.181,0.45,0.342,0.685,0.478c0.922,0.533,1.758,0.583,2.362,0.234l3.966-2.29l9.383-5.417
		c0.085-0.048,0.153-0.122,0.229-0.185c0.419-0.351,0.684-0.93,0.737-1.708l3.544-2.046c0.231-0.13,0.418-0.337,0.547-0.613
		c0.129-0.275,0.201-0.619,0.201-1.024c0-0.239-0.032-0.486-0.079-0.735c-0.005-0.023-0.011-0.047-0.016-0.07
		c-0.003-0.013-0.007-0.027-0.01-0.04l8.119-4.688C409.007,419.559,410.59,412.503,409.599,407.922z"/>
</g>
<g id="Wire_2_">
	<g id="Wire_1_">
		
			<path id="Wire" style="fill:none;stroke:#455A64;stroke-width:3.564;stroke-linecap:round;stroke-linejoin:round;stroke-miterlimit:10;" d="
			M142.353,369.723v12.655c0,7.961,4.26,15.311,11.171,19.264c23.114,13.221,74.507,42.622,80.098,45.85
			c26.887,15.523,46.786,25.283,72.384,10.504s5.94-29.805-9.094-31.276c-27.562-2.696-33.968,14.805-17.821,19.949
			c16.147,5.143,50.403-10.349,5.2-32.385c-25.124-12.248-41.81-19.749-50.824-23.665c-4.235-1.84-4.663-5.418-0.915-7.582
			l68.005-39.263c6.087-3.514,23.901,2.391,17.368,6.689c-5.819,3.829-47.073,27.922-58.404,34.537
			c-1.762,1.029-1.748,2.682,0.024,3.705l0,0c1.796,1.037,4.715,1.025,6.486-0.026l53.366-31.635
			c3.111-1.845,8.125-2.04,11.632-0.45c6.469,2.933,19.007,8.785,42.199,20.091c45.203,22.036,10.947,37.528-5.2,32.385
			c-16.147-5.143-9.741-22.644,17.821-19.949c15.034,1.47,36.344,15.543,9.094,31.275l-15.931,9.198"/>
		<g id="Plug">
			<g>
				<path style="fill:#37474F;" d="M383.521,422.933c0.456-0.263,1.085-0.225,1.781,0.176c1.391,0.803,2.518,2.756,2.518,4.362
					c0,0.809-0.286,1.375-0.747,1.636l-10.064,5.811l-3.549-6.176L383.521,422.933z"/>
				<path style="opacity:0.1;" d="M387.518,425.943c0.187,0.514,0.302,1.037,0.302,1.529c0,0.809-0.286,1.375-0.747,1.636
					l-10.064,5.811l-1.255-2.183L387.518,425.943z"/>
				<path style="fill:#37474F;" d="M377.747,433.288c0-1.606-1.128-3.559-2.518-4.362c-0.689-0.398-1.314-0.439-1.769-0.183
					c-0.463,0.26-0.75,0.827-0.75,1.637c0,1.606,1.128,3.559,2.518,4.362c0.695,0.402,1.325,0.44,1.781,0.176
					C377.465,434.655,377.747,434.091,377.747,433.288z"/>
			</g>
			<g>
				<path style="fill:#455A64;" d="M377.852,424.857c0.605-0.349,1.44-0.299,2.362,0.234c1.845,1.065,3.34,3.655,3.34,5.786
					c0,1.073-0.379,1.824-0.991,2.17l-13.348,7.707l-4.708-8.192L377.852,424.857z"/>
				<path style="opacity:0.1;" d="M383.153,428.849c0.248,0.682,0.401,1.376,0.401,2.028c0,1.073-0.379,1.824-0.991,2.17
					l-13.349,7.707l-1.664-2.896L383.153,428.849z"/>
				<path style="fill:#37474F;" d="M370.193,438.591c0-2.13-1.495-4.721-3.34-5.786c-0.914-0.528-1.743-0.582-2.346-0.243
					c-0.614,0.345-0.995,1.097-0.995,2.172c0,2.13,1.496,4.721,3.34,5.786c0.922,0.533,1.758,0.583,2.362,0.234
					S370.193,439.656,370.193,438.591z"/>
			</g>
			<g>
				<g>
					<path style="fill:#27DEBF;" d="M366.853,434.474c-0.519-0.299-0.988-0.33-1.331-0.138l-13.086,8.319l-4.163,1.639l2.671,4.647
						l3.502-2.789l13.746-7.17c0.343-0.198,0.555-0.622,0.555-1.227C368.747,436.548,367.899,435.078,366.853,434.474z"/>
					<path style="opacity:0.7;fill:#FFFFFF;" d="M366.853,434.474c-0.519-0.299-0.988-0.33-1.331-0.138l-13.086,8.319l-4.163,1.639
						l2.671,4.647l3.502-2.789l13.746-7.17c0.343-0.198,0.555-0.622,0.555-1.227C368.747,436.548,367.899,435.078,366.853,434.474z"
						/>
				</g>
				<g>
					<path style="fill:#27DEBF;" d="M349.604,444.432c-0.519-0.299-0.989-0.33-1.331-0.138c-0.065,0.036-0.123,0.083-0.178,0.136
						l0,0l-1.123,1.052l2.299,3.988l1.438-0.434l0,0c0.084-0.021,0.163-0.053,0.236-0.095c0.343-0.198,0.555-0.623,0.555-1.227
						C351.499,446.506,350.651,445.037,349.604,444.432z"/>
					<path style="opacity:0.5;fill:#FFFFFF;" d="M349.604,444.432c-0.519-0.299-0.989-0.33-1.331-0.138
						c-0.065,0.036-0.123,0.083-0.178,0.136l0,0l-1.123,1.052l2.299,3.988l1.438-0.434l0,0c0.084-0.021,0.163-0.053,0.236-0.095
						c0.343-0.198,0.555-0.623,0.555-1.227C351.499,446.506,350.651,445.037,349.604,444.432z"/>
				</g>
				<path style="fill:#27DEBF;" d="M349.929,448.331c0-1.048-0.736-2.323-1.644-2.847c-0.45-0.26-0.858-0.286-1.154-0.12
					c-0.302,0.17-0.49,0.54-0.49,1.069c0,1.048,0.736,2.323,1.644,2.847c0.454,0.262,0.865,0.287,1.162,0.115
					C349.745,449.224,349.929,448.856,349.929,448.331z"/>
				<g style="opacity:0.2;">
					<path style="fill:#27DEBF;" d="M352.436,442.656c0.257-0.144,0.61-0.121,0.999,0.104c0.786,0.454,1.423,1.557,1.423,2.465
						c0,0.454-0.155,0.78-0.412,0.929l0.521-0.272c0.258-0.149,0.408-0.499,0.408-0.953c0-0.907-0.637-2.011-1.423-2.465
						c-0.389-0.225-0.763-0.267-1.02-0.123L352.436,442.656z"/>
					<path style="fill:#27DEBF;" d="M355.986,440.398c0.28-0.157,0.664-0.132,1.089,0.113c0.856,0.494,1.55,1.697,1.55,2.685
						c0,0.494-0.169,0.85-0.449,1.012l0.568-0.296c0.281-0.162,0.445-0.544,0.445-1.038c0-0.989-0.694-2.191-1.55-2.685
						c-0.424-0.245-0.831-0.291-1.111-0.134L355.986,440.398z"/>
					<path style="fill:#27DEBF;" d="M359.535,438.141c0.303-0.17,0.719-0.143,1.178,0.122c0.926,0.535,1.678,1.836,1.678,2.906
						c0,0.535-0.183,0.92-0.486,1.095l0.615-0.321c0.304-0.175,0.481-0.589,0.481-1.123c0-1.07-0.751-2.371-1.678-2.906
						c-0.459-0.265-0.9-0.315-1.203-0.145L359.535,438.141z"/>
					<path style="fill:#27DEBF;" d="M363.085,435.883c0.326-0.183,0.774-0.154,1.268,0.131c0.997,0.576,1.805,1.975,1.805,3.126
						c0,0.576-0.197,0.99-0.523,1.178l0.661-0.345c0.327-0.189,0.517-0.633,0.517-1.209c0-1.151-0.808-2.551-1.805-3.126
						c-0.494-0.285-0.968-0.339-1.294-0.156L363.085,435.883z"/>
				</g>
				<g style="opacity:0.1;">
					<path d="M352.436,442.656c0.257-0.144,0.61-0.121,0.999,0.104c0.786,0.454,1.423,1.557,1.423,2.465
						c0,0.454-0.155,0.78-0.412,0.929l0.521-0.272c0.258-0.149,0.408-0.499,0.408-0.953c0-0.907-0.637-2.011-1.423-2.465
						c-0.389-0.225-0.763-0.267-1.02-0.123L352.436,442.656z"/>
					<path d="M355.986,440.398c0.28-0.157,0.664-0.132,1.089,0.113c0.856,0.494,1.55,1.697,1.55,2.685
						c0,0.494-0.169,0.85-0.449,1.012l0.568-0.296c0.281-0.162,0.445-0.544,0.445-1.038c0-0.989-0.694-2.191-1.55-2.685
						c-0.424-0.245-0.831-0.291-1.111-0.134L355.986,440.398z"/>
					<path d="M359.535,438.141c0.303-0.17,0.719-0.143,1.178,0.122c0.926,0.535,1.678,1.836,1.678,2.906
						c0,0.535-0.183,0.92-0.486,1.095l0.615-0.321c0.304-0.175,0.481-0.589,0.481-1.123c0-1.07-0.751-2.371-1.678-2.906
						c-0.459-0.265-0.9-0.315-1.203-0.145L359.535,438.141z"/>
					<path d="M363.085,435.883c0.326-0.183,0.774-0.154,1.268,0.131c0.997,0.576,1.805,1.975,1.805,3.126
						c0,0.576-0.197,0.99-0.523,1.178l0.661-0.345c0.327-0.189,0.517-0.633,0.517-1.209c0-1.151-0.808-2.551-1.805-3.126
						c-0.494-0.285-0.968-0.339-1.294-0.156L363.085,435.883z"/>
				</g>
			</g>
		</g>
	</g>
</g>
<g id="Headphones_1_">
	<g id="Headphones">
		<g>
			<g>
				<path style="fill:#263238;" d="M236.107,189.798c-0.369,0.147-0.737,0.296-1.092,0.47c-0.286,0.14-0.562,0.297-0.838,0.454
					c-0.339,0.191-0.676,0.387-1,0.604c-0.267,0.178-0.525,0.369-0.782,0.563c-0.311,0.235-0.617,0.478-0.912,0.737
					c-0.245,0.214-0.483,0.438-0.717,0.669c-0.282,0.278-0.557,0.568-0.824,0.869c-0.221,0.249-0.437,0.505-0.646,0.771
					c-0.253,0.322-0.496,0.658-0.733,1.003c-0.186,0.27-0.369,0.543-0.544,0.827c-0.04,0.065-0.076,0.133-0.115,0.199
					c-0.19,0.317-0.372,0.644-0.549,0.978c-0.052,0.099-0.102,0.2-0.154,0.3c-0.138,0.273-0.277,0.544-0.406,0.826
					c-0.111,0.242-0.212,0.497-0.316,0.748c-0.067,0.16-0.135,0.318-0.199,0.481c-0.059,0.151-0.12,0.301-0.177,0.455
					c-0.119,0.321-0.23,0.651-0.338,0.983c-0.093,0.285-0.181,0.574-0.266,0.868c-0.154,0.529-0.295,1.07-0.422,1.623
					c-0.085,0.375-0.162,0.758-0.235,1.145c-0.04,0.209-0.084,0.414-0.12,0.627c-0.039,0.229-0.08,0.457-0.115,0.689
					c-0.084,0.565-0.145,1.151-0.203,1.74c-0.028,0.281-0.069,0.549-0.091,0.835c-0.008,0.105-0.014,0.212-0.021,0.318
					c-0.066,0.958-0.11,1.937-0.11,2.954c0,3.916,0.513,7.987,1.447,12.09c3.74,16.381,14.383,33.281,27.406,42.949
					c1.559,1.156,3.14,2.247,4.76,3.182c0.225,0.13,0.448,0.244,0.672,0.368c0.381,0.211,0.763,0.425,1.142,0.621
					c0.294,0.152,0.584,0.287,0.876,0.429c0.312,0.152,0.624,0.306,0.935,0.447c0.319,0.145,0.635,0.277,0.951,0.41
					c0.277,0.116,0.553,0.232,0.829,0.34c0.328,0.128,0.653,0.248,0.978,0.363c0.264,0.094,0.527,0.183,0.789,0.269
					c0.32,0.104,0.639,0.205,0.955,0.297c0.28,0.081,0.559,0.154,0.838,0.226c0.288,0.075,0.577,0.151,0.863,0.215
					c0.383,0.086,0.762,0.156,1.141,0.224c0.174,0.031,0.35,0.071,0.523,0.098c0.151,0.023,0.299,0.033,0.45,0.054
					c2.335-1.342,4.698-2.701,6.828-3.925c-3.713-0.513-7.739-1.941-11.951-4.371c-18.573-10.721-33.623-36.778-33.623-58.22
					c0-8.683,2.479-15.264,6.659-19.322c-0.219,0.063-0.444,0.112-0.659,0.184C236.688,189.558,236.399,189.681,236.107,189.798z"/>
				<g>
					<path style="fill:#37474F;" d="M242.128,182.561c-1.039,0.38-2.048,0.812-2.989,1.356c-1.162,0.671-5.684,3.283-6.791,3.921
						c-0.007,0.004-0.006,0.024-0.01,0.036c2.838-1.64,6.131-2.55,9.79-2.652V182.561z"/>
					<path style="fill:#455A64;" d="M269.286,275.058c-0.173-0.027-0.347-0.067-0.521-0.097c-0.379-0.068-0.759-0.137-1.144-0.224
						c-0.286-0.064-0.574-0.141-0.862-0.215c-0.189-0.049-0.374-0.087-0.564-0.141c-0.091-0.025-0.183-0.059-0.274-0.085
						c-0.317-0.092-0.635-0.193-0.954-0.297c-0.263-0.086-0.526-0.175-0.791-0.27c-0.324-0.115-0.649-0.234-0.975-0.362
						c-0.276-0.108-0.554-0.224-0.832-0.341c-0.315-0.133-0.631-0.264-0.948-0.408c-0.312-0.141-0.626-0.297-0.94-0.449
						c-0.29-0.141-0.579-0.276-0.871-0.426c-0.383-0.198-0.77-0.414-1.156-0.629c-0.218-0.121-0.434-0.229-0.654-0.355
						c-1.563-0.902-3.089-1.951-4.596-3.06c-4.086-3.005-7.95-6.687-11.431-10.88c-2.858-3.442-5.465-7.205-7.746-11.156
						c-3.802-6.585-6.697-13.693-8.334-20.715c-0.027-0.114-0.042-0.227-0.067-0.341c-0.935-4.098-1.448-8.162-1.448-12.067
						c0-0.938,0.04-1.849,0.1-2.746c0.008-0.131,0.012-0.266,0.021-0.396c0.007-0.091,0.017-0.179,0.024-0.269
						c0.063-0.751,0.142-1.488,0.246-2.207c0.022-0.153,0.042-0.308,0.065-0.46c0.037-0.239,0.087-0.466,0.128-0.701
						c0.06-0.333,0.125-0.661,0.194-0.986c0.073-0.35,0.141-0.706,0.224-1.046c0.091-0.372,0.203-0.722,0.306-1.082
						c0.039-0.135,0.075-0.273,0.115-0.407c0.016-0.052,0.029-0.107,0.045-0.158c0.092-0.295,0.182-0.591,0.282-0.877
						c0.123-0.354,0.263-0.688,0.399-1.028c0.174-0.436,0.349-0.87,0.542-1.283c0.14-0.3,0.291-0.586,0.442-0.873
						c0.06-0.115,0.118-0.231,0.179-0.344c0.163-0.298,0.33-0.59,0.504-0.875c0.16-0.261,0.325-0.513,0.493-0.762
						c0.075-0.113,0.151-0.225,0.228-0.335c0.128-0.181,0.253-0.364,0.385-0.538c0.099-0.131,0.204-0.255,0.305-0.383
						c0.091-0.113,0.178-0.23,0.271-0.34c0.181-0.216,0.369-0.424,0.558-0.629c0.06-0.065,0.12-0.13,0.181-0.193
						c0.231-0.243,0.467-0.479,0.71-0.706c0.002-0.002,0.005-0.005,0.008-0.007c0.111-0.103,0.236-0.183,0.35-0.283
						c0.296-0.259,0.601-0.502,0.912-0.737c0.257-0.194,0.515-0.386,0.782-0.563c0.325-0.216,0.661-0.412,1-0.604
						c0.277-0.156,0.552-0.314,0.838-0.454c0.355-0.173,0.723-0.322,1.092-0.47c0.292-0.117,0.581-0.24,0.882-0.34
						c0.225-0.075,0.454-0.14,0.683-0.206c0.167-0.048,0.341-0.084,0.51-0.127c0.302-0.077,0.598-0.164,0.908-0.225
						c0.43-0.085,0.875-0.135,1.319-0.19c0.301-0.037,0.594-0.089,0.901-0.112c0.267-0.02,0.544-0.014,0.818-0.017v-3.359
						c-3.658,0.102-6.951,1.013-9.79,2.652v0c-0.423,0.244-0.834,0.507-1.236,0.783c-0.07,0.048-0.139,0.098-0.208,0.147
						c-1.164,0.82-2.238,1.773-3.219,2.847c-0.108,0.119-0.216,0.238-0.322,0.36c-0.291,0.334-0.576,0.674-0.849,1.03
						c-0.085,0.112-0.165,0.231-0.249,0.345c-0.454,0.617-0.881,1.267-1.282,1.946c-0.147,0.249-0.296,0.498-0.435,0.756
						c-0.178,0.327-0.349,0.661-0.515,1.001c-0.167,0.343-0.325,0.696-0.479,1.052c-0.152,0.349-0.303,0.698-0.443,1.059
						c-0.217,0.561-0.419,1.136-0.606,1.726c-0.089,0.282-0.17,0.572-0.253,0.86c-0.144,0.503-0.277,1.016-0.399,1.539
						c-0.06,0.254-0.123,0.506-0.178,0.765c-0.16,0.763-0.301,1.543-0.415,2.344c-0.028,0.194-0.047,0.395-0.072,0.592
						c-0.086,0.671-0.156,1.353-0.209,2.048c-0.019,0.249-0.038,0.498-0.053,0.751c-0.053,0.887-0.089,1.786-0.089,2.71
						c0,5.617,0.989,11.544,2.778,17.45c0.894,2.953,1.988,5.901,3.257,8.802c0.635,1.451,1.314,2.89,2.034,4.312
						c2.159,4.267,4.688,8.383,7.504,12.208c5.633,7.651,12.421,14.141,19.718,18.355c3.145,1.816,6.234,3.128,9.25,3.964
						c1.396-0.803,2.866-1.648,4.361-2.507C269.58,275.096,269.434,275.082,269.286,275.058z"/>
				</g>
			</g>
			<g>
				<g>
					<path style="fill:#27DEBF;" d="M303.508,241.11c0-19.558-13.731-43.341-30.669-53.12c-8.494-4.904-16.18-5.354-21.733-2.118
						c-1.688,0.984-13.03,7.507-14.726,8.477c-5.579,3.191-9.033,10.073-9.033,19.881c0,19.558,13.731,43.341,30.669,53.12
						c8.485,4.899,16.164,5.353,21.716,2.127c1.695-0.984,13.095-7.533,14.807-8.524C300.081,257.746,303.508,250.88,303.508,241.11
						z"/>
					<path style="opacity:0.3;" d="M303.508,241.11c0-19.558-13.731-43.341-30.669-53.12c-8.494-4.904-16.18-5.354-21.733-2.118
						c-1.688,0.984-13.03,7.507-14.726,8.477c-5.579,3.191-9.033,10.073-9.033,19.881c0,19.558,13.731,43.341,30.669,53.12
						c8.485,4.899,16.164,5.353,21.716,2.127c1.695-0.984,13.095-7.533,14.807-8.524C300.081,257.746,303.508,250.88,303.508,241.11
						z"/>
				</g>
				<path style="fill:#27DEBF;" d="M258.016,196.523c16.938,9.779,30.669,33.562,30.669,53.12c0,19.558-13.731,27.486-30.669,17.707
					c-16.938-9.779-30.669-33.562-30.669-53.12C227.347,194.672,241.077,186.744,258.016,196.523z"/>
			</g>
			<g>
				<path style="fill:#263238;" d="M270.999,275.264c0.052,0.004,0.101,0.005,0.153,0.009c0.517,0.039,1.03,0.06,1.539,0.063
					c0.083,0,0.164-0.003,0.246-0.004c0.752-0.005,1.489-0.044,2.205-0.127c0.026-0.003,0.052-0.004,0.078-0.007
					c0.625-0.075,1.226-0.199,1.821-0.333c0.253-0.058,0.507-0.115,0.755-0.184c0.477-0.13,0.942-0.284,1.398-0.454
					c0.35-0.132,0.691-0.28,1.029-0.435c0.162-0.074,0.32-0.155,0.479-0.234c1.474-0.736,2.829-1.685,4.038-2.855
					c-2.485,0.713-5.23,0.892-8.178,0.484c-2.129,1.224-4.493,2.583-6.828,3.925C270.158,275.17,270.582,275.23,270.999,275.264z"/>
				<path style="fill:#37474F;" d="M266.289,190.724c0,2.317,1.472,5.363,3.177,6.93c14.609,13.423,25.298,35.23,25.298,53.694
					c0,13.445-5.647,23.035-14.868,26.208c0,0,0,0,0,0c2.075-0.703,3.284-1.477,3.378-1.531c1.159-0.671,5.68-3.28,6.79-3.92
					c7.219-4.161,11.515-12.961,11.515-24.692c0-18.464-10.69-40.271-25.298-53.694c-1.706-1.567-3.177-4.613-3.177-6.93l0-27.204
					l-6.815,3.934l-3.355-1.937l3.356,1.938V190.724z"/>
				<path style="fill:#455A64;" d="M269.467,197.654c-1.706-1.567-3.177-4.613-3.177-6.93v-27.205l-3.356-1.938v3.874v26.894
					c0,0.388,0.056,0.8,0.135,1.216c0.019,0.102,0.04,0.205,0.064,0.308c0.095,0.416,0.212,0.837,0.37,1.256
					c0.238,0.631,0.541,1.254,0.888,1.836c0.087,0.145,0.184,0.279,0.276,0.419c0.276,0.419,0.567,0.819,0.879,1.168
					c0.208,0.232,0.423,0.446,0.641,0.636c0.002,0.002,0.004,0.004,0.006,0.005c0.805,0.704,1.594,1.443,2.375,2.198
					c0.208,0.201,0.414,0.404,0.62,0.609c0.682,0.678,1.356,1.371,2.017,2.084c0.098,0.106,0.199,0.207,0.296,0.314
					c0.741,0.81,1.464,1.646,2.175,2.497c0.184,0.221,0.365,0.444,0.547,0.667c0.588,0.72,1.165,1.453,1.73,2.199
					c0.135,0.178,0.274,0.353,0.408,0.533c0.667,0.896,1.315,1.81,1.948,2.738c0.15,0.221,0.296,0.445,0.444,0.667
					c0.516,0.773,1.018,1.555,1.508,2.346c0.141,0.228,0.284,0.453,0.422,0.682c0.584,0.965,1.15,1.94,1.695,2.928
					c0.108,0.197,0.21,0.395,0.317,0.592c0.45,0.833,0.885,1.673,1.305,2.52c0.13,0.262,0.261,0.523,0.388,0.786
					c0.491,1.016,0.964,2.037,1.409,3.066c0.058,0.134,0.11,0.27,0.168,0.404c0.39,0.917,0.759,1.838,1.112,2.762
					c0.106,0.278,0.211,0.556,0.314,0.834c0.387,1.051,0.757,2.104,1.092,3.161c0.335,1.058,0.635,2.118,0.916,3.177
					c0.06,0.227,0.121,0.452,0.178,0.679c0.263,1.034,0.503,2.066,0.711,3.096c0.035,0.172,0.064,0.344,0.097,0.516
					c0.183,0.945,0.342,1.886,0.476,2.824c0.024,0.17,0.053,0.341,0.076,0.511c0.137,1.019,0.24,2.031,0.318,3.038
					c0.017,0.221,0.03,0.439,0.044,0.659c0.066,1.029,0.111,2.053,0.111,3.065c0,6.029-1.191,11.049-3.315,14.913
					c-0.472,0.859-0.99,1.66-1.552,2.403c-0.281,0.371-0.572,0.728-0.874,1.07c-0.299,0.338-0.608,0.661-0.926,0.969
					c-1.208,1.17-2.563,2.119-4.036,2.854c-0.159,0.08-0.319,0.16-0.481,0.235c-0.338,0.154-0.678,0.304-1.028,0.435
					c-0.421,0.159-0.851,0.302-1.289,0.427c-0.036,0.01-0.074,0.017-0.11,0.027c-0.249,0.068-0.501,0.127-0.755,0.184
					c-0.152,0.035-0.299,0.079-0.453,0.111c-0.448,0.091-0.904,0.165-1.368,0.223c-0.026,0.003-0.053,0.004-0.078,0.007
					c-0.717,0.086-1.455,0.122-2.205,0.127c-0.047,0-0.09,0.008-0.137,0.008c-0.036,0-0.073-0.004-0.109-0.004
					c-0.109-0.001-0.214,0.007-0.323,0.004c-0.4-0.008-0.807-0.036-1.216-0.067c-0.051-0.004-0.101-0.004-0.152-0.008
					c-0.419-0.035-0.844-0.088-1.271-0.147c-1.495,0.859-2.965,1.705-4.361,2.507c2.539,0.704,5.025,1.076,7.44,1.076
					c0.346,0,0.676-0.037,1.016-0.052c0.445-0.021,0.908-0.025,1.326-0.068c0.264-0.026,0.515-0.077,0.774-0.112
					c0.491-0.067,0.977-0.135,1.423-0.226c0.234-0.048,0.462-0.108,0.693-0.163c0.101-0.024,0.182-0.053,0.281-0.077
					c0.431-0.11,0.865-0.216,1.282-0.352c0.099-0.032,0.199-0.062,0.296-0.096c9.221-3.173,14.868-12.763,14.868-26.208
					C294.764,232.884,284.075,211.076,269.467,197.654z"/>
			</g>
			<g>
				<path style="fill:#37474F;" d="M250.946,189.24c0.049-0.019,0.099-0.037,0.147-0.059c0.077-0.035,0.155-0.075,0.227-0.117
					c0.826-0.479,6.121-3.536,6.819-3.943c0.824-0.48,1.333-1.389,1.333-2.643l0.001-30.764l-6.816,3.935c0,0.009,0,20.185,0,30.768
					C252.657,187.854,251.988,188.835,250.946,189.24z"/>
				<path style="fill:#37474F;" d="M242.782,185.181c1.597,0,3.225,0.155,4.879,0.464c0.911,0.17,1.641-0.397,1.641-1.323v-3.058
					c-2.585,0.032-4.975,0.493-7.173,1.297v2.66C242.349,185.215,242.558,185.181,242.782,185.181z"/>
				<path style="fill:#455A64;" d="M243.64,188.557c0.792,0.032,1.6,0.105,2.424,0.226c0.779,0.115,1.576,0.281,2.381,0.477
					c0.048,0.012,0.094,0.016,0.141,0.028c0.03,0.007,0.059,0.01,0.089,0.018c0,0,0.001,0,0.001,0
					c0.27,0.068,0.53,0.108,0.783,0.128c0.024,0.002,0.048,0.002,0.071,0.004c0.227,0.014,0.446,0.007,0.655-0.018
					c0.039-0.005,0.077-0.011,0.117-0.016c0.21-0.032,0.412-0.079,0.6-0.148c0.015-0.005,0.029-0.012,0.044-0.018
					c1.042-0.405,1.712-1.386,1.712-2.822c0-10.583,0-30.759,0-30.768v0l-3.356-1.953v3.891v23.676v3.058
					c0,0.927-0.73,1.493-1.641,1.323c-1.654-0.309-3.282-0.464-4.879-0.464c-0.224,0-0.433,0.034-0.654,0.04v3.359
					c0.238-0.003,0.471-0.015,0.71-0.015C243.107,188.566,243.367,188.546,243.64,188.557z"/>
			</g>
			<g>
				<path style="fill:#27DEBF;" d="M300.37,259.706c0-28.899-20.289-64.04-45.316-78.489c-12.499-7.216-23.81-7.898-32.005-3.178
					c-2.297,1.323-11.392,6.575-13.685,7.901c-8.189,4.736-13.256,14.873-13.256,29.309c0,28.899,20.289,64.04,45.316,78.489
					c12.495,7.214,23.803,7.898,31.998,3.182c2.3-1.324,11.388-6.575,13.677-7.896C295.296,284.292,300.37,274.151,300.37,259.706z"
					/>
				
					<ellipse transform="matrix(0.866 -0.5 0.5 0.866 -88.3616 153.0549)" style="opacity:0.1;" cx="241.423" cy="241.412" rx="37" ry="64.086"/>
			</g>
			<g>
				<path style="fill:#F0F0F0;" d="M286.755,267.581c0-28.899-20.288-64.04-45.316-78.489c-12.522-7.23-23.852-7.902-32.053-3.155
					c-1.132,0.655-5.649,3.264-6.781,3.916c-8.212,4.728-13.296,14.877-13.296,29.337c0,28.899,20.289,64.04,45.316,78.489
					c12.516,7.226,23.841,7.901,32.041,3.161c1.136-0.657,5.68-3.279,6.82-3.938C281.682,292.168,286.755,282.025,286.755,267.581z"
					/>
				<path style="fill:#E0E0E0;" d="M234.624,193.027c25.027,14.449,45.316,49.59,45.316,78.489s-20.288,40.612-45.315,26.163
					c-25.027-14.45-45.316-49.59-45.316-78.489S209.597,178.577,234.624,193.027z"/>
			</g>
			<g>
				<path style="fill:#455A64;" d="M283.272,271.523c0-29.922-21.081-66.436-46.993-81.397c-7.629-4.404-15.002-6.638-21.915-6.638
					c-5.076,0-9.615,1.223-13.5,3.493c-2.26,1.32-11.402,6.546-13.719,7.902c-9.307,5.446-14.845,16.908-14.845,32.183
					c0,29.92,21.081,66.434,46.993,81.397c7.63,4.404,15.004,6.637,21.916,6.637c5.11,0,9.675-1.24,13.577-3.538
					c2.229-1.313,11.257-6.474,13.55-7.803C277.698,298.335,283.272,286.848,283.272,271.523z"/>
				<path style="fill:#37474F;" d="M241.209,315.1c-6.913,0-14.286-2.233-21.916-6.637c-25.913-14.963-46.993-51.476-46.993-81.397
					c0-21.692,11.161-35.708,28.434-35.708c6.913,0,14.286,2.233,21.915,6.637c25.913,14.961,46.993,51.475,46.993,81.397
					C269.641,301.084,258.482,315.1,241.209,315.1z"/>
				<path style="fill:#263238;" d="M231.077,284.128c-3.452,0-7.135-1.115-10.945-3.315c-12.941-7.473-23.469-25.708-23.469-40.65
					c0-10.833,5.574-17.833,14.2-17.833c3.452,0,7.135,1.115,10.944,3.315c12.941,7.472,23.469,25.707,23.469,40.65
					C245.277,277.129,239.704,284.128,231.077,284.128z"/>
			</g>
		</g>
		<g>
			<g>
				<path style="fill:#455A64;" d="M173.285,335.001c0-29.922-21.081-66.436-46.993-81.397c-7.629-4.404-15.002-6.637-21.915-6.637
					c-5.076,0-9.615,1.223-13.5,3.493c-2.26,1.32-11.402,6.546-13.72,7.902c-9.307,5.446-14.845,16.908-14.845,32.183
					c0,29.92,21.081,66.434,46.993,81.397c7.63,4.404,15.004,6.638,21.916,6.638c5.11,0,9.675-1.24,13.577-3.538
					c2.229-1.313,11.257-6.475,13.55-7.803C167.712,361.813,173.285,350.326,173.285,335.001z"/>
				<path style="fill:#37474F;" d="M131.222,378.578c-6.913,0-14.286-2.233-21.916-6.638
					c-25.913-14.963-46.993-51.476-46.993-81.397c0-21.692,11.161-35.708,28.434-35.708c6.913,0,14.286,2.233,21.915,6.637
					c25.913,14.961,46.993,51.475,46.993,81.397C159.654,364.563,148.495,378.578,131.222,378.578z"/>
			</g>
			<g>
				<path style="fill:#F0F0F0;" d="M156.301,342.866c0-28.899-20.289-64.04-45.316-78.489c-12.522-7.23-23.852-7.902-32.052-3.155
					c-1.132,0.655-5.649,3.264-6.782,3.916c-8.212,4.728-13.296,14.877-13.296,29.337c0,28.899,20.289,64.04,45.316,78.489
					c12.516,7.226,23.841,7.901,32.041,3.161c1.136-0.657,5.68-3.279,6.82-3.938C151.227,367.453,156.301,357.31,156.301,342.866z"
					/>
				<path style="fill:#E0E0E0;" d="M104.17,268.312c25.027,14.449,45.316,49.59,45.316,78.489s-20.288,40.612-45.315,26.163
					c-25.027-14.449-45.316-49.59-45.316-78.489C58.854,265.576,79.142,253.862,104.17,268.312z"/>
			</g>
			<g>
				<path style="fill:#27DEBF;" d="M149.485,346.801c0-28.899-20.288-64.04-45.316-78.489c-12.499-7.216-23.81-7.898-32.005-3.178
					c-2.297,1.323-11.392,6.575-13.685,7.901c-8.189,4.736-13.256,14.873-13.256,29.309c0,28.899,20.289,64.04,45.316,78.489
					c12.495,7.214,23.803,7.898,31.998,3.182c2.3-1.324,11.388-6.575,13.677-7.896C144.412,371.387,149.485,361.245,149.485,346.801
					z"/>
				<path style="opacity:0.1;" d="M90.539,276.181c25.027,14.449,45.316,49.59,45.316,78.489c0,28.899-20.288,40.612-45.316,26.163
					c-25.027-14.449-45.316-49.59-45.316-78.489C45.223,273.445,65.511,261.732,90.539,276.181z"/>
			</g>
			<g>
				<path style="fill:#263238;" d="M57.966,292.625c-0.369,0.147-0.737,0.296-1.092,0.47c-0.286,0.14-0.562,0.298-0.838,0.454
					c-0.339,0.191-0.676,0.387-1,0.604c-0.267,0.178-0.525,0.369-0.782,0.564c-0.311,0.235-0.617,0.478-0.912,0.737
					c-0.245,0.214-0.483,0.438-0.717,0.669c-0.282,0.278-0.557,0.568-0.824,0.869c-0.221,0.25-0.437,0.505-0.646,0.771
					c-0.254,0.322-0.496,0.658-0.733,1.003c-0.186,0.27-0.369,0.543-0.544,0.827c-0.04,0.065-0.076,0.133-0.115,0.199
					c-0.19,0.317-0.372,0.644-0.549,0.978c-0.052,0.099-0.102,0.2-0.154,0.301c-0.138,0.273-0.277,0.543-0.406,0.826
					c-0.111,0.242-0.211,0.497-0.316,0.748c-0.067,0.16-0.135,0.318-0.199,0.481c-0.059,0.151-0.12,0.301-0.176,0.455
					c-0.119,0.321-0.23,0.651-0.338,0.983c-0.092,0.285-0.181,0.574-0.266,0.868c-0.154,0.529-0.294,1.07-0.422,1.623
					c-0.085,0.375-0.162,0.758-0.236,1.145c-0.04,0.209-0.083,0.414-0.12,0.626c-0.039,0.229-0.08,0.457-0.115,0.689
					c-0.084,0.565-0.145,1.152-0.203,1.74c-0.028,0.281-0.069,0.549-0.091,0.835c-0.008,0.105-0.014,0.212-0.021,0.318
					c-0.066,0.958-0.11,1.937-0.11,2.953c0,3.916,0.513,7.987,1.447,12.09c3.74,16.381,14.383,33.281,27.406,42.949
					c1.559,1.156,3.14,2.247,4.76,3.182c0.225,0.13,0.448,0.244,0.672,0.368c0.381,0.211,0.763,0.425,1.142,0.621
					c0.294,0.152,0.584,0.287,0.876,0.429c0.312,0.152,0.625,0.306,0.935,0.446c0.319,0.145,0.635,0.277,0.951,0.41
					c0.277,0.116,0.553,0.232,0.829,0.34c0.328,0.128,0.653,0.248,0.978,0.363c0.264,0.094,0.527,0.183,0.789,0.269
					c0.32,0.104,0.639,0.205,0.955,0.297c0.28,0.081,0.559,0.154,0.838,0.226c0.288,0.075,0.577,0.151,0.863,0.215
					c0.383,0.086,0.762,0.156,1.141,0.223c0.174,0.031,0.35,0.071,0.523,0.098c0.151,0.024,0.299,0.033,0.45,0.054
					c2.335-1.342,4.698-2.701,6.828-3.925c-3.713-0.513-7.739-1.941-11.951-4.371c-18.573-10.721-33.623-36.778-33.623-58.22
					c0-8.683,2.48-15.264,6.659-19.323c-0.218,0.063-0.444,0.112-0.659,0.184C58.547,292.385,58.258,292.508,57.966,292.625z"/>
				<g>
					<path style="fill:#37474F;" d="M63.987,285.388c-1.039,0.38-2.048,0.812-2.989,1.356c-1.163,0.672-5.684,3.283-6.791,3.921
						c-0.007,0.004-0.006,0.025-0.01,0.036c2.838-1.64,6.131-2.55,9.79-2.652V285.388z"/>
					<path style="fill:#455A64;" d="M91.144,377.885c-0.172-0.027-0.347-0.067-0.521-0.097c-0.379-0.068-0.759-0.137-1.144-0.224
						c-0.286-0.064-0.574-0.141-0.862-0.215c-0.189-0.049-0.374-0.087-0.564-0.141c-0.09-0.025-0.183-0.059-0.274-0.085
						c-0.317-0.092-0.635-0.193-0.954-0.297c-0.263-0.086-0.526-0.176-0.791-0.27c-0.324-0.115-0.649-0.234-0.975-0.362
						c-0.276-0.108-0.554-0.224-0.832-0.341c-0.315-0.133-0.631-0.264-0.948-0.408c-0.312-0.141-0.626-0.296-0.94-0.449
						c-0.29-0.141-0.579-0.276-0.871-0.426c-0.383-0.198-0.77-0.414-1.156-0.629c-0.218-0.121-0.434-0.229-0.653-0.355
						c-1.563-0.902-3.089-1.951-4.596-3.06c-4.086-3.005-7.95-6.688-11.431-10.88c-2.858-3.442-5.465-7.205-7.746-11.156
						c-3.802-6.585-6.697-13.693-8.334-20.715c-0.027-0.114-0.042-0.227-0.067-0.341c-0.935-4.098-1.448-8.162-1.448-12.067
						c0-0.938,0.04-1.849,0.1-2.746c0.008-0.131,0.012-0.266,0.021-0.396c0.007-0.091,0.017-0.179,0.024-0.269
						c0.063-0.751,0.142-1.488,0.246-2.207c0.022-0.153,0.042-0.308,0.066-0.46c0.037-0.239,0.087-0.466,0.128-0.701
						c0.06-0.333,0.125-0.66,0.194-0.986c0.073-0.35,0.14-0.706,0.224-1.046c0.091-0.372,0.203-0.722,0.306-1.082
						c0.039-0.135,0.074-0.273,0.115-0.407c0.016-0.052,0.029-0.107,0.045-0.158c0.092-0.295,0.182-0.591,0.282-0.877
						c0.123-0.354,0.263-0.688,0.399-1.028c0.174-0.436,0.349-0.87,0.542-1.283c0.14-0.3,0.291-0.586,0.442-0.873
						c0.06-0.115,0.118-0.231,0.179-0.344c0.163-0.298,0.33-0.59,0.504-0.875c0.16-0.261,0.325-0.513,0.493-0.762
						c0.075-0.113,0.151-0.225,0.228-0.335c0.128-0.18,0.253-0.364,0.385-0.538c0.099-0.131,0.203-0.255,0.305-0.383
						c0.091-0.113,0.178-0.23,0.271-0.34c0.181-0.217,0.369-0.424,0.558-0.629c0.06-0.065,0.12-0.13,0.181-0.193
						c0.231-0.243,0.467-0.48,0.71-0.707c0.003-0.002,0.005-0.004,0.008-0.007c0.111-0.103,0.236-0.183,0.35-0.282
						c0.296-0.259,0.601-0.502,0.912-0.737c0.257-0.194,0.515-0.386,0.782-0.564c0.325-0.216,0.661-0.412,1-0.604
						c0.277-0.156,0.552-0.314,0.838-0.454c0.355-0.173,0.723-0.322,1.092-0.47c0.292-0.117,0.581-0.24,0.882-0.341
						c0.225-0.075,0.454-0.14,0.683-0.206c0.167-0.048,0.341-0.083,0.511-0.127c0.302-0.077,0.598-0.164,0.907-0.225
						c0.43-0.085,0.875-0.135,1.319-0.19c0.301-0.037,0.594-0.089,0.901-0.112c0.267-0.02,0.544-0.014,0.818-0.017v-3.359
						c-3.659,0.102-6.951,1.013-9.79,2.652v0c-0.423,0.244-0.833,0.508-1.236,0.783c-0.07,0.048-0.139,0.098-0.208,0.147
						c-1.164,0.82-2.238,1.773-3.219,2.847c-0.108,0.119-0.216,0.238-0.322,0.36c-0.291,0.334-0.576,0.674-0.849,1.03
						c-0.085,0.112-0.165,0.231-0.249,0.345c-0.454,0.617-0.881,1.267-1.282,1.946c-0.147,0.25-0.296,0.498-0.435,0.756
						c-0.178,0.327-0.349,0.661-0.515,1.001c-0.167,0.343-0.325,0.696-0.479,1.052c-0.152,0.349-0.304,0.698-0.443,1.059
						c-0.217,0.561-0.419,1.136-0.606,1.726c-0.09,0.282-0.17,0.572-0.253,0.86c-0.144,0.504-0.277,1.016-0.399,1.539
						c-0.06,0.254-0.123,0.506-0.178,0.764c-0.16,0.763-0.3,1.543-0.415,2.344c-0.028,0.194-0.047,0.395-0.072,0.592
						c-0.086,0.671-0.156,1.353-0.209,2.048c-0.019,0.249-0.038,0.498-0.054,0.75c-0.053,0.887-0.089,1.786-0.089,2.71
						c0,5.617,0.989,11.544,2.778,17.45c0.894,2.953,1.988,5.901,3.257,8.802c0.635,1.451,1.314,2.89,2.034,4.312
						c2.159,4.267,4.688,8.383,7.504,12.208c5.633,7.651,12.421,14.141,19.718,18.355c3.145,1.816,6.234,3.128,9.25,3.964
						c1.396-0.803,2.866-1.648,4.361-2.508C91.439,377.923,91.293,377.909,91.144,377.885z"/>
				</g>
			</g>
			<g>
				<g>
					<path style="fill:#27DEBF;" d="M121.208,346.214c0-19.558-13.731-43.341-30.669-53.12c-8.494-4.904-16.18-5.354-21.733-2.117
						c-1.688,0.984-13.03,7.507-14.726,8.477c-5.579,3.191-9.033,10.072-9.033,19.88c0,19.558,13.731,43.341,30.669,53.12
						c8.485,4.899,16.165,5.353,21.717,2.127c1.695-0.985,13.095-7.533,14.807-8.524
						C117.781,362.85,121.208,355.984,121.208,346.214z"/>
					<path style="opacity:0.3;" d="M121.208,346.214c0-19.558-13.731-43.341-30.669-53.12c-8.494-4.904-16.18-5.354-21.733-2.117
						c-1.688,0.984-13.03,7.507-14.726,8.477c-5.579,3.191-9.033,10.072-9.033,19.88c0,19.558,13.731,43.341,30.669,53.12
						c8.485,4.899,16.165,5.353,21.717,2.127c1.695-0.985,13.095-7.533,14.807-8.524
						C117.781,362.85,121.208,355.984,121.208,346.214z"/>
				</g>
				
					<ellipse transform="matrix(0.866 -0.5 0.5 0.866 -158.3764 83.0129)" style="fill:#27DEBF;" cx="75.716" cy="337.04" rx="25.041" ry="43.373"/>
				
					<ellipse transform="matrix(0.866 -0.5 0.5 0.866 -158.9135 82.5134)" style="fill:#263238;" cx="74.515" cy="337.793" rx="19.434" ry="33.661"/>
				<g>
					<path style="fill:#455A64;" d="M87.536,324.331l-14.077,14.06l-16.812-29.127c4.295-2.5,10.251-2.147,16.812,1.644
						C78.711,313.962,83.576,318.727,87.536,324.331z"/>
					<path style="fill:#37474F;" d="M97.267,352.149c0,7.584-2.668,12.919-6.98,15.386l-16.828-29.144l14.077-14.06
						C93.425,332.737,97.267,343.039,97.267,352.149z"/>
					<path style="fill:#455A64;" d="M90.287,367.535c-4.312,2.5-10.251,2.147-16.828-1.644c-5.268-3.037-10.117-7.819-14.06-13.439
						l14.06-14.06L90.287,367.535z"/>
					<path style="fill:#37474F;" d="M73.459,338.391l-14.06,14.06c-5.906-8.406-9.731-18.691-9.731-27.785
						c0-7.6,2.668-12.919,6.98-15.402L73.459,338.391z"/>
				</g>
			</g>
			<g>
				<path style="fill:#263238;" d="M92.858,378.091c0.052,0.004,0.101,0.005,0.153,0.009c0.517,0.039,1.03,0.06,1.539,0.063
					c0.083,0,0.164-0.003,0.246-0.003c0.752-0.005,1.489-0.044,2.205-0.127c0.026-0.003,0.052-0.004,0.078-0.007
					c0.625-0.075,1.226-0.199,1.821-0.333c0.253-0.058,0.507-0.115,0.755-0.184c0.477-0.13,0.942-0.284,1.398-0.454
					c0.35-0.132,0.691-0.28,1.029-0.435c0.162-0.074,0.32-0.155,0.479-0.234c1.474-0.736,2.829-1.685,4.038-2.855
					c-2.485,0.713-5.23,0.892-8.178,0.484c-2.129,1.225-4.493,2.583-6.828,3.925C92.017,377.997,92.44,378.056,92.858,378.091z"/>
				<path style="fill:#37474F;" d="M88.148,293.551c0,2.317,1.472,5.363,3.177,6.93c14.608,13.423,25.298,35.23,25.298,53.694
					c0,13.445-5.647,23.036-14.868,26.208c0,0,0,0,0,0c2.075-0.703,3.284-1.477,3.378-1.531c1.159-0.67,5.68-3.28,6.79-3.92
					c7.219-4.161,11.515-12.961,11.515-24.692c0-18.464-10.69-40.271-25.298-53.694c-1.706-1.567-3.177-4.613-3.177-6.93l0-27.205
					l-6.815,3.934l-3.355-1.937l3.356,1.938V293.551z"/>
				<path style="fill:#455A64;" d="M91.326,300.48c-1.706-1.567-3.177-4.613-3.177-6.93v-27.204l-3.356-1.938v3.874v26.894
					c0,0.388,0.056,0.8,0.135,1.216c0.019,0.102,0.041,0.205,0.064,0.308c0.095,0.416,0.212,0.837,0.37,1.256
					c0.238,0.631,0.541,1.254,0.888,1.836c0.087,0.145,0.184,0.279,0.276,0.419c0.276,0.419,0.567,0.819,0.88,1.168
					c0.208,0.232,0.423,0.446,0.641,0.636c0.002,0.002,0.004,0.004,0.006,0.005c0.805,0.704,1.594,1.443,2.375,2.198
					c0.208,0.201,0.414,0.404,0.62,0.609c0.682,0.678,1.356,1.371,2.017,2.084c0.098,0.106,0.199,0.207,0.296,0.314
					c0.741,0.81,1.464,1.646,2.175,2.497c0.184,0.22,0.365,0.444,0.547,0.667c0.588,0.72,1.165,1.453,1.73,2.199
					c0.135,0.178,0.274,0.353,0.408,0.533c0.667,0.896,1.315,1.81,1.947,2.738c0.15,0.221,0.296,0.445,0.444,0.667
					c0.515,0.773,1.018,1.555,1.508,2.346c0.141,0.227,0.284,0.453,0.422,0.682c0.584,0.965,1.15,1.941,1.695,2.929
					c0.108,0.196,0.21,0.395,0.317,0.592c0.45,0.833,0.885,1.673,1.305,2.52c0.13,0.262,0.261,0.523,0.389,0.786
					c0.49,1.016,0.964,2.037,1.409,3.066c0.058,0.134,0.11,0.27,0.168,0.404c0.39,0.917,0.759,1.838,1.112,2.762
					c0.106,0.278,0.211,0.556,0.313,0.834c0.387,1.051,0.757,2.104,1.092,3.16c0.335,1.058,0.634,2.118,0.916,3.177
					c0.06,0.227,0.121,0.452,0.178,0.679c0.263,1.034,0.503,2.066,0.711,3.096c0.035,0.172,0.064,0.344,0.097,0.516
					c0.183,0.945,0.342,1.887,0.476,2.824c0.024,0.17,0.053,0.341,0.076,0.511c0.137,1.019,0.24,2.031,0.318,3.038
					c0.017,0.22,0.03,0.44,0.044,0.659c0.066,1.029,0.111,2.053,0.111,3.065c0,6.029-1.19,11.049-3.315,14.913
					c-0.472,0.859-0.99,1.66-1.552,2.403c-0.281,0.371-0.572,0.728-0.874,1.07c-0.299,0.338-0.607,0.661-0.926,0.969
					c-1.208,1.17-2.563,2.119-4.037,2.854c-0.159,0.08-0.319,0.16-0.481,0.235c-0.338,0.154-0.678,0.304-1.028,0.435
					c-0.421,0.159-0.851,0.302-1.289,0.427c-0.036,0.01-0.074,0.017-0.11,0.027c-0.249,0.068-0.501,0.127-0.755,0.184
					c-0.152,0.035-0.299,0.079-0.453,0.111c-0.448,0.091-0.904,0.165-1.368,0.223c-0.026,0.003-0.052,0.004-0.078,0.007
					c-0.717,0.086-1.455,0.122-2.205,0.127c-0.047,0-0.09,0.008-0.137,0.008c-0.036,0-0.073-0.004-0.109-0.004
					c-0.108-0.001-0.214,0.007-0.323,0.005c-0.4-0.008-0.807-0.036-1.216-0.067c-0.051-0.004-0.101-0.004-0.152-0.008
					c-0.419-0.035-0.844-0.088-1.271-0.147c-1.495,0.859-2.965,1.705-4.361,2.508c2.539,0.704,5.025,1.076,7.44,1.076
					c0.346,0,0.676-0.037,1.016-0.052c0.445-0.02,0.908-0.025,1.326-0.068c0.264-0.026,0.515-0.077,0.774-0.112
					c0.491-0.067,0.977-0.135,1.423-0.226c0.234-0.048,0.462-0.108,0.692-0.163c0.101-0.024,0.182-0.052,0.281-0.077
					c0.431-0.11,0.865-0.216,1.282-0.352c0.099-0.032,0.199-0.062,0.297-0.096c9.221-3.173,14.868-12.763,14.868-26.208
					C116.623,335.711,105.934,313.903,91.326,300.48z"/>
			</g>
			<g>
				<path style="fill:#37474F;" d="M72.804,292.067c0.049-0.019,0.099-0.037,0.147-0.059c0.077-0.035,0.155-0.075,0.227-0.117
					c0.826-0.479,6.121-3.536,6.819-3.943c0.824-0.48,1.333-1.389,1.333-2.643l0.001-30.764l-6.816,3.935c0,0.009,0,20.185,0,30.768
					C74.516,290.681,73.847,291.662,72.804,292.067z"/>
				<path style="fill:#37474F;" d="M64.641,288.008c1.597,0,3.225,0.155,4.879,0.464c0.911,0.17,1.641-0.397,1.641-1.323v-3.058
					c-2.585,0.032-4.975,0.493-7.173,1.297v2.66C64.208,288.042,64.417,288.008,64.641,288.008z"/>
				<path style="fill:#455A64;" d="M65.499,291.384c0.792,0.032,1.599,0.105,2.424,0.226c0.779,0.115,1.576,0.281,2.381,0.477
					c0.048,0.012,0.094,0.016,0.141,0.028c0.03,0.008,0.059,0.01,0.089,0.018c0,0,0.001,0,0.001,0
					c0.27,0.068,0.53,0.108,0.783,0.128c0.024,0.002,0.047,0.003,0.071,0.004c0.227,0.014,0.446,0.007,0.655-0.018
					c0.039-0.004,0.077-0.011,0.116-0.016c0.21-0.032,0.412-0.079,0.6-0.148c0.015-0.006,0.029-0.012,0.044-0.018
					c1.043-0.405,1.712-1.386,1.712-2.822c0-10.583,0-30.759,0-30.768v0l-3.356-1.953v3.891v23.676v3.058
					c0,0.927-0.73,1.493-1.641,1.323c-1.654-0.309-3.282-0.464-4.879-0.464c-0.224,0-0.433,0.034-0.654,0.04v3.359
					c0.238-0.003,0.471-0.015,0.709-0.015C64.965,291.393,65.226,291.373,65.499,291.384z"/>
			</g>
		</g>
		<g>
			<path style="fill:#27DEBF;" d="M76.645,239.702c-1.233-0.712-2.937-0.609-4.819,0.477c-3.764,2.173-6.815,7.458-6.815,11.804
				c0,2.189,0.774,3.722,2.023,4.427l27.234,15.724l9.605-16.713L76.645,239.702z"/>
			<path style="opacity:0.3;" d="M76.645,239.702c-1.233-0.712-2.937-0.609-4.819,0.477c-3.764,2.173-6.815,7.458-6.815,11.804
				c0,2.189,0.774,3.722,2.023,4.427l27.234,15.724l9.605-16.713L76.645,239.702z"/>
			<path style="opacity:0.3;" d="M65.829,247.846c-0.505,1.391-0.818,2.806-0.818,4.137c0,2.189,0.774,3.722,2.023,4.427
				l27.234,15.724l3.396-5.909L65.829,247.846z"/>
			<path style="fill:#27DEBF;" d="M92.271,267.723c0-4.346,3.051-9.631,6.815-11.805c1.865-1.077,3.555-1.188,4.786-0.496
				c1.253,0.704,2.029,2.238,2.029,4.431c0,4.346-3.051,9.631-6.815,11.804c-1.882,1.087-3.586,1.189-4.819,0.477
				C93.034,271.423,92.271,269.896,92.271,267.723z"/>
			<path style="opacity:0.2;" d="M92.271,267.723c0-4.346,3.051-9.631,6.815-11.805c1.865-1.077,3.555-1.188,4.786-0.496
				c1.253,0.704,2.029,2.238,2.029,4.431c0,4.346-3.051,9.631-6.815,11.804c-1.882,1.087-3.586,1.189-4.819,0.477
				C93.034,271.423,92.271,269.896,92.271,267.723z"/>
			<path style="fill:#37474F;" d="M95.221,266.02c0-2.466,1.731-5.464,3.866-6.696c1.058-0.611,2.017-0.674,2.715-0.281
				c0.711,0.399,1.151,1.27,1.151,2.514c0,2.465-1.731,5.463-3.866,6.696c-1.068,0.616-2.034,0.675-2.734,0.271
				C95.654,268.119,95.221,267.253,95.221,266.02z"/>
			<path style="fill:#263238;" d="M101.144,260.542c0-0.709-0.156-1.281-0.411-1.729c-0.501,0.015-1.054,0.169-1.646,0.51
				c-2.135,1.233-3.866,4.231-3.866,6.696c0,0.71,0.157,1.281,0.412,1.73c0.501-0.016,1.054-0.17,1.645-0.511
				C99.413,266.006,101.144,263.008,101.144,260.542z"/>
		</g>
		<g>
			<path style="fill:#27DEBF;" d="M253.839,137.399c-1.233-0.712-2.937-0.609-4.819,0.477c-3.764,2.173-6.815,7.458-6.815,11.804
				c0,2.189,0.774,3.722,2.023,4.427l27.235,15.724l9.605-16.713L253.839,137.399z"/>
			<path style="opacity:0.3;" d="M253.839,137.399c-1.233-0.712-2.937-0.609-4.819,0.477c-3.764,2.173-6.815,7.458-6.815,11.804
				c0,2.189,0.774,3.722,2.023,4.427l27.235,15.724l9.605-16.713L253.839,137.399z"/>
			<path style="opacity:0.3;" d="M243.023,145.543c-0.505,1.391-0.818,2.806-0.818,4.137c0,2.189,0.774,3.722,2.023,4.427
				l27.235,15.724l3.396-5.909L243.023,145.543z"/>
			<path style="fill:#27DEBF;" d="M269.466,165.419c0-4.346,3.051-9.631,6.815-11.804c1.865-1.077,3.555-1.188,4.786-0.496
				c1.253,0.704,2.029,2.238,2.029,4.431c0,4.346-3.051,9.631-6.815,11.805c-1.882,1.087-3.586,1.189-4.819,0.477
				C270.229,169.12,269.466,167.593,269.466,165.419z"/>
			<path style="opacity:0.2;" d="M269.466,165.419c0-4.346,3.051-9.631,6.815-11.804c1.865-1.077,3.555-1.188,4.786-0.496
				c1.253,0.704,2.029,2.238,2.029,4.431c0,4.346-3.051,9.631-6.815,11.805c-1.882,1.087-3.586,1.189-4.819,0.477
				C270.229,169.12,269.466,167.593,269.466,165.419z"/>
			<path style="fill:#37474F;" d="M272.415,163.717c0-2.465,1.731-5.464,3.866-6.696c1.058-0.611,2.017-0.674,2.715-0.281
				c0.711,0.399,1.151,1.27,1.151,2.514c0,2.465-1.731,5.464-3.866,6.696c-1.068,0.616-2.034,0.675-2.734,0.271
				C272.848,165.816,272.415,164.949,272.415,163.717z"/>
			<path style="fill:#263238;" d="M278.338,158.239c0-0.709-0.156-1.281-0.411-1.729c-0.501,0.015-1.055,0.169-1.646,0.51
				c-2.135,1.233-3.866,4.231-3.866,6.696c0,0.71,0.157,1.281,0.412,1.73c0.501-0.016,1.054-0.17,1.645-0.511
				C276.607,163.703,278.338,160.705,278.338,158.239z"/>
		</g>
		<g>
			<path style="fill:#27DEBF;" d="M274.812,80.595l-29.398-16.977c-1.971-3.706-4.213-7.069-6.744-10.07
				C254.454,56.278,266.929,65.842,274.812,80.595z"/>
			<path style="opacity:0.2;" d="M274.812,80.595l-29.398-16.977c-1.971-3.706-4.213-7.069-6.744-10.07
				C254.454,56.278,266.929,65.842,274.812,80.595z"/>
		</g>
		<g>
			<path style="fill:#37474F;" d="M269.374,153.775c1.492-8.178,2.306-16.267,2.306-24.109c0-54.687-38.393-76.853-85.753-49.51
				c-47.36,27.343-85.753,93.842-85.753,148.529c0,7.852,0.816,15.008,2.311,21.469l-11.055,6.382
				c-1.326-6.597-2.029-13.816-2.029-21.632c0-61.557,43.215-136.41,96.525-167.188s96.526-5.827,96.526,55.73
				c0,7.816-0.704,15.848-2.029,23.975l-11.027,6.366"/>
			<path style="fill:#263238;" d="M269.377,153.777c1.493-8.179,2.307-16.269,2.307-24.113c0-36.069-16.706-57.982-41.674-60.893
				c7.81,10.414,12.294,25.294,12.294,43.988c0,7.827-0.811,15.9-2.298,24.061L269.377,153.777z"/>
			<path style="fill:#455A64;" d="M252.429,59.984c-17.32-9.004-40.734-7.141-66.497,7.738
				c-53.317,30.772-96.528,105.622-96.528,167.184c0,7.811,0.705,15.042,2.025,21.623l-29.362-16.941
				c-1.338-6.599-2.043-13.831-2.043-21.642c0-61.562,43.211-136.412,96.528-167.184c26.632-15.386,50.732-16.832,68.197-6.762
				C229.214,46.587,245.703,56.115,252.429,59.984z"/>
			<path style="fill:#263238;" d="M76.417,231.206c-0.727,0-1.502-0.235-2.304-0.698c-2.724-1.573-4.941-5.412-4.941-8.558
				c0-2.281,1.173-3.754,2.989-3.754c0.727,0,1.502,0.235,2.304,0.698c2.724,1.573,4.941,5.412,4.941,8.557
				C79.406,229.733,78.233,231.206,76.417,231.206z"/>
		</g>
		<g>
			<g>
				<path style="fill:#27DEBF;" d="M256.786,54.09c-8.046-4.411-17.375-6.78-27.752-6.78c-14.735,0-30.447,4.755-46.718,14.139
					c-37.642,21.732-70.493,64.798-87.597,110.214l-29.38-16.959c17.104-45.417,49.955-88.483,87.597-110.215
					c16.272-9.383,31.983-14.156,46.718-14.156c10.775,0,20.448,2.567,28.729,7.34C233.029,40.368,250.567,50.492,256.786,54.09z"/>
				<path style="opacity:0.6;fill:#FFFFFF;" d="M256.786,54.09c-8.046-4.411-17.375-6.78-27.752-6.78
					c-14.735,0-30.447,4.755-46.718,14.139c-37.642,21.732-70.493,64.798-87.597,110.214l-29.38-16.959
					c17.104-45.417,49.955-88.483,87.597-110.215c16.272-9.383,31.983-14.156,46.718-14.156c10.775,0,20.448,2.567,28.729,7.34
					C233.029,40.368,250.567,50.492,256.786,54.09z"/>
			</g>
			<g>
				<path style="fill:#27DEBF;" d="M274.803,80.586c-9.42-17.628-25.411-27.852-45.769-27.852c-13.777,0-28.584,4.502-44.006,13.415
					c-36.901,21.298-69.065,63.677-85.608,108.226l-4.701-2.712c17.104-45.416,49.955-88.483,87.597-110.214
					c16.272-9.383,31.983-14.139,46.718-14.139c21.461,0,38.51,10.143,48.978,27.752L274.803,80.586z"/>
			</g>
		</g>
	</g>
</g>
<g id="Musical_Notes">
	<path id="Musical_note_4_" style="fill:#27DEBF;" d="M401.049,64.322l-4.901,16.148c-0.396-0.291-0.835-0.535-1.333-0.685
		c-2.336-0.705-4.8,0.617-5.504,2.953c-0.704,2.336,0.619,4.8,2.954,5.504c2.336,0.704,4.8-0.618,5.504-2.953l4.398-14.472
		l15.732,0.586l0.007,0.007l-0.006-0.002l-4.329,14.352c-0.396-0.292-0.836-0.536-1.334-0.686c-2.336-0.705-4.8,0.617-5.504,2.953
		c-0.704,2.336,0.619,4.8,2.955,5.505c2.334,0.703,4.797-0.617,5.503-2.95l0.002,0l7.229-23.963L401.049,64.322z"/>
	<path id="Musical_note_1_" style="fill:#27DEBF;" d="M389.232,311.77l-4.9,16.148c-0.396-0.291-0.835-0.535-1.333-0.685
		c-2.336-0.705-4.8,0.617-5.504,2.953c-0.704,2.336,0.619,4.8,2.954,5.504c2.336,0.704,4.8-0.618,5.504-2.953l4.398-14.472
		l15.732,0.586l0.007,0.007l-0.006-0.002l-4.329,14.352c-0.396-0.292-0.836-0.536-1.334-0.686c-2.336-0.705-4.8,0.617-5.504,2.953
		c-0.704,2.336,0.619,4.8,2.955,5.505c2.335,0.703,4.797-0.617,5.503-2.95l0.002,0l7.229-23.963L389.232,311.77z"/>
	<path id="Musical_note_2_" style="fill:#27DEBF;" d="M358.12,121.591c0.851-0.463,2.061-0.74,3.174-0.792
		c1.469-0.069,2.935,0.185,4.365,0.498c1.918,0.419,3.832,0.953,5.794,0.994c1.963,0.041,4.034-0.481,5.407-1.884
		c-1.143,0.11-2.31-0.044-3.385-0.446c-2.581-0.965-4.661-3.652-6.99-5.125c-3.466-2.194-6.898-2.02-11.119-0.949
		c0.01,3.597-0.07,7.203-0.106,10.802c-0.028,2.825-0.057,5.65-0.085,8.474c-0.003,0.268-0.136,3.843-0.136,3.843
		c-1.033-0.575-2.435-0.765-3.147-0.771c-3.348-0.029-6.084,2.662-6.111,6.009c-0.027,3.348,2.665,6.084,6.012,6.111
		c3.347,0.028,6.083-2.663,6.111-6.009L358.12,121.591z"/>
	<path id="Musical_note_3_" style="fill:#27DEBF;" d="M455.954,273.116c0.946-0.209,2.185-0.139,3.269,0.119
		c1.431,0.341,2.769,0.992,4.056,1.689c1.727,0.935,3.417,1.978,5.292,2.562c1.875,0.583,4.009,0.656,5.717-0.311
		c-1.128-0.211-2.207-0.683-3.129-1.367c-2.212-1.643-3.466-4.801-5.295-6.863c-2.722-3.07-6.068-3.853-10.42-3.995
		c-0.987,3.459-2.064,6.901-3.097,10.349c-0.811,2.706-1.621,5.412-2.432,8.118c-0.077,0.257-1.196,3.655-1.196,3.655
		c-0.833-0.839-2.127-1.41-2.81-1.614c-3.209-0.956-6.584,0.87-7.538,4.079c-0.954,3.209,0.874,6.584,4.081,7.538
		c3.208,0.955,6.583-0.872,7.538-4.079L455.954,273.116z"/>
	<path id="Musical_note_5_" style="fill:#27DEBF;" d="M312.746,57.443c0.373-0.984,1.172-2.067,2.052-2.898
		c1.16-1.097,2.547-1.925,3.945-2.679c1.876-1.012,3.828-1.926,5.473-3.282c1.645-1.355,2.98-3.25,3.117-5.377
		c-0.863,0.899-1.932,1.598-3.102,2.028c-2.808,1.032-6.421,0.293-9.38,0.727c-4.406,0.647-7.107,3.219-9.823,7.087
		c2.554,2.953,5.039,5.978,7.556,8.966c1.975,2.345,3.951,4.69,5.926,7.035c0.188,0.223,2.608,3.26,2.608,3.26
		c-1.257,0.257-2.546,1.093-3.137,1.592c-2.776,2.345-3.125,6.496-0.778,9.271c2.347,2.774,6.498,3.122,9.272,0.776
		c2.775-2.346,3.123-6.496,0.778-9.271L312.746,57.443z"/>
</g>
<g id="Controls_1_">
	<g id="Controls">
		<g id="Play_Pause">
			<g id="Box_1_">
				<g id="Speech_Bubble_3_">
					<g>
						<path id="XMLID_286_" style="fill:#27DEBF;" d="M401.031,153.477l-26.215,15.141c-0.465,0.268-0.842,0.921-0.842,1.458
							l0,30.246c0,0.537,0.379,1.184,0.847,1.448l3.015,1.734c0.467,0.264,1.223,0.26,1.688-0.008l26.215-15.141
							c0.465-0.268,0.842-0.921,0.842-1.458v-30.288c0-0.537-0.379-1.186-0.846-1.449l-3.015-1.69
							C402.251,153.205,401.496,153.209,401.031,153.477z"/>
						<path id="XMLID_285_" style="fill:#27DEBF;" d="M378.682,203.01v-30.288c0-0.537,0.377-1.189,0.842-1.458l26.215-15.141
							c0.465-0.268,0.842-0.051,0.842,0.486v30.288c0,0.537-0.377,1.189-0.842,1.458l-26.215,15.141
							C379.058,203.764,378.682,203.546,378.682,203.01z"/>
						<path id="XMLID_284_" style="fill:#27DEBF;" d="M378.682,203.01v-30.288c0-0.537,0.377-1.189,0.842-1.458l26.215-15.141
							c0.465-0.268,0.842-0.051,0.842,0.486v30.288c0,0.537-0.377,1.189-0.842,1.458l-26.215,15.141
							C379.058,203.764,378.682,203.546,378.682,203.01z"/>
						<path id="XMLID_283_" style="opacity:0.2;" d="M379.523,203.496c-0.448,0.26-1.266,0.269-1.689,0.01l-3.013-1.736
							c-0.466-0.26-0.847-0.911-0.847-1.448l0-30.246c0-0.28,0.105-0.587,0.268-0.859l4.689,2.677
							c-0.155,0.261-0.249,0.56-0.249,0.828v30.286C378.682,203.5,379.028,203.783,379.523,203.496z"/>
						<path id="XMLID_282_" style="opacity:0.4;fill:#FFFFFF;" d="M406.569,156.456c-0.066-0.424-0.412-0.575-0.832-0.334
							l-26.212,15.142c-0.233,0.136-0.443,0.365-0.595,0.63l-4.693-2.677c0.152-0.253,0.354-0.47,0.579-0.599l26.216-15.142
							c0.463-0.268,1.217-0.272,1.687-0.008l3.013,1.689C406.157,155.399,406.511,155.955,406.569,156.456z"/>
					</g>
				</g>
			</g>
			<path style="fill:#FAFAFA;" d="M402.902,173.786c0,7.626-4.636,16.485-10.356,19.787c-5.719,3.302-10.356-0.203-10.356-7.829
				c0-7.626,4.636-16.485,10.356-19.787C398.266,162.655,402.902,166.161,402.902,173.786z"/>
			<g id="XMLID_425_">
				<path id="XMLID_2135_" style="fill:#455A64;" d="M391.147,176.254l-0.003,8.824c0,0.404-0.283,0.895-0.633,1.097l-1.7,0.983
					c-0.349,0.202-0.633,0.039-0.633-0.365v-8.822c0-0.404,0.283-0.895,0.633-1.097l1.703-0.984
					C390.864,175.687,391.147,175.851,391.147,176.254z"/>
				<path id="XMLID_426_" style="fill:#455A64;" d="M397.083,172.826l-0.003,8.824c0,0.404-0.283,0.895-0.633,1.097l-1.7,0.983
					c-0.349,0.202-0.633,0.039-0.633-0.365v-8.822c0-0.404,0.283-0.895,0.633-1.097l1.703-0.984
					C396.8,172.259,397.083,172.422,397.083,172.826z"/>
			</g>
		</g>
		<g id="Next">
			<g id="Box_2_">
				<g id="Speech_Bubble_8_">
					<g>
						<path id="XMLID_292_" style="fill:#27DEBF;" d="M431.466,139.659l-20.972,12.113c-0.372,0.215-0.673,0.737-0.673,1.166
							l0,24.197c0,0.429,0.304,0.947,0.677,1.158l2.412,1.387c0.374,0.211,0.978,0.208,1.35-0.007l20.972-12.113
							c0.372-0.215,0.673-0.737,0.673-1.166v-24.23c0-0.429-0.303-0.949-0.677-1.16l-2.412-1.352
							C432.443,139.441,431.838,139.444,431.466,139.659z"/>
						<path id="XMLID_291_" style="fill:#27DEBF;" d="M413.587,179.285v-24.231c0-0.429,0.301-0.951,0.673-1.166l20.972-12.113
							c0.372-0.215,0.673-0.041,0.673,0.389v24.23c0,0.43-0.301,0.952-0.673,1.166l-20.972,12.113
							C413.888,179.888,413.587,179.714,413.587,179.285z"/>
						<path id="XMLID_289_" style="fill:#27DEBF;" d="M413.587,179.285v-24.231c0-0.429,0.301-0.951,0.673-1.166l20.972-12.113
							c0.372-0.215,0.673-0.041,0.673,0.389v24.23c0,0.43-0.301,0.952-0.673,1.166l-20.972,12.113
							C413.888,179.888,413.587,179.714,413.587,179.285z"/>
						<path id="XMLID_288_" style="opacity:0.2;" d="M414.26,179.673c-0.358,0.208-1.013,0.215-1.351,0.008l-2.411-1.389
							c-0.373-0.208-0.677-0.729-0.677-1.158l0-24.197c0-0.224,0.084-0.47,0.215-0.687l3.751,2.141
							c-0.124,0.208-0.199,0.448-0.199,0.662v24.229C413.587,179.676,413.864,179.903,414.26,179.673z"/>
						<path id="XMLID_287_" style="opacity:0.4;fill:#FFFFFF;" d="M435.897,142.042c-0.053-0.339-0.33-0.46-0.665-0.268
							l-20.97,12.114c-0.187,0.109-0.354,0.292-0.476,0.504l-3.754-2.141c0.121-0.202,0.283-0.376,0.464-0.479l20.973-12.114
							c0.37-0.215,0.973-0.218,1.35-0.006l2.411,1.352C435.567,141.196,435.85,141.64,435.897,142.042z"/>
					</g>
				</g>
			</g>
			<g id="XMLID_2147_">
				<path id="XMLID_2143_" style="fill:#455A64;" d="M430.711,152.847l-0.003,8.824c0,0.404-0.283,0.895-0.633,1.097l-1.7,0.983
					c-0.349,0.202-0.633,0.039-0.633-0.365v-8.822c0-0.404,0.283-0.895,0.633-1.097l1.703-0.984
					C430.428,152.28,430.711,152.443,430.711,152.847z"/>
				<path id="XMLID_259_" style="fill:#455A64;" d="M418.781,159.828v8.642c0,0.646,0.343,0.774,0.766,0.286l7.977-9.214
					c0.423-0.489,0.242-0.885-0.404-0.885h-7.169C419.306,158.657,418.781,159.181,418.781,159.828z"/>
			</g>
		</g>
		<g id="Previews">
			<g id="Box_3_">
				<g id="Speech_Bubble_6_">
					<g>
						<path id="XMLID_281_" style="fill:#27DEBF;" d="M364.899,178.098l-20.972,12.113c-0.372,0.215-0.673,0.737-0.673,1.166
							l0,24.196c0,0.429,0.304,0.947,0.678,1.158l2.412,1.387c0.374,0.211,0.978,0.208,1.35-0.007L368.665,206
							c0.372-0.215,0.673-0.737,0.673-1.166v-24.231c0-0.429-0.303-0.949-0.677-1.16l-2.412-1.352
							C365.875,177.88,365.271,177.883,364.899,178.098z"/>
						<path id="XMLID_280_" style="fill:#27DEBF;" d="M347.019,217.724v-24.231c0-0.429,0.301-0.951,0.673-1.166l20.972-12.113
							c0.372-0.215,0.673-0.041,0.673,0.389v24.231c0,0.429-0.301,0.951-0.673,1.166l-20.972,12.113
							C347.321,218.327,347.019,218.153,347.019,217.724z"/>
						<path id="XMLID_271_" style="fill:#27DEBF;" d="M347.019,217.724v-24.231c0-0.429,0.301-0.951,0.673-1.166l20.972-12.113
							c0.372-0.215,0.673-0.041,0.673,0.389v24.231c0,0.429-0.301,0.951-0.673,1.166l-20.972,12.113
							C347.321,218.327,347.019,218.153,347.019,217.724z"/>
						<path id="XMLID_261_" style="opacity:0.2;" d="M347.693,218.113c-0.358,0.208-1.013,0.215-1.351,0.008l-2.411-1.389
							c-0.373-0.208-0.678-0.729-0.678-1.158l0-24.197c0-0.224,0.084-0.47,0.215-0.687l3.751,2.141
							c-0.124,0.208-0.199,0.448-0.199,0.662v24.229C347.019,218.116,347.296,218.342,347.693,218.113z"/>
						<path id="XMLID_260_" style="opacity:0.4;fill:#FFFFFF;" d="M369.329,180.481c-0.053-0.339-0.33-0.46-0.666-0.268
							l-20.97,12.114c-0.187,0.109-0.354,0.292-0.476,0.504l-3.754-2.141c0.121-0.202,0.283-0.376,0.463-0.479l20.973-12.114
							c0.37-0.214,0.973-0.218,1.35-0.006l2.411,1.352C369,179.635,369.283,180.08,369.329,180.481z"/>
					</g>
				</g>
			</g>
			<g id="XMLID_2137_">
				<path id="XMLID_423_" style="fill:#455A64;" d="M354.854,196.87l-0.003,8.824c0,0.404-0.284,0.895-0.633,1.097l-1.7,0.983
					c-0.35,0.202-0.633,0.039-0.633-0.365v-8.822c0-0.404,0.283-0.895,0.633-1.097l1.703-0.984
					C354.571,196.303,354.854,196.466,354.854,196.87z"/>
				<path id="XMLID_2141_" style="fill:#455A64;" d="M364.471,200.091v-8.996c0-0.693-0.372-0.834-0.831-0.315l-8.524,9.629
					c-0.459,0.518-0.27,0.939,0.423,0.938l7.679-0.002C363.91,201.345,364.471,200.783,364.471,200.091z"/>
			</g>
		</g>
	</g>
</g>
<g id="Playing_Box">
	<g id="Now_Playing_Box">
		<g id="Box_4_">
			<g id="Speech_Bubble_1_">
				<g>
					<path id="XMLID_304_" style="fill:#455A64;" d="M434.402,184.726l-91.684,52.939c-0.465,0.268-0.842,0.921-0.842,1.458
						l0,58.443c0,0.537,0.379,1.184,0.847,1.448l3.015,1.734c0.467,0.264,1.223,0.26,1.688-0.008L439.11,247.8
						c0.465-0.268,0.842-0.921,0.842-1.458v-58.486c0-0.537-0.379-1.186-0.846-1.45l-3.015-1.69
						C435.622,184.454,434.867,184.457,434.402,184.726z"/>
					<path id="XMLID_293_" style="fill:#37474F;" d="M439.94,187.704c-0.066-0.424-0.412-0.575-0.832-0.334l-91.681,52.94
						c-0.233,0.136-0.443,0.365-0.595,0.63l-4.693-2.677c0.152-0.253,0.354-0.47,0.579-0.599l91.685-52.94
						c0.463-0.268,1.217-0.272,1.687-0.008l3.013,1.689C439.528,186.647,439.882,187.203,439.94,187.704z"/>
					<path id="XMLID_303_" style="fill:#455A64;" d="M346.584,300.253v-58.486c0-0.537,0.377-1.189,0.842-1.458l91.684-52.939
						c0.465-0.268,0.842-0.051,0.842,0.486v58.486c0,0.537-0.377,1.189-0.842,1.458l-91.684,52.939
						C346.961,301.007,346.584,300.79,346.584,300.253z"/>
					<path id="XMLID_294_" style="opacity:0.2;fill:#263238;" d="M347.425,300.739c-0.448,0.26-1.266,0.269-1.689,0.01l-3.014-1.736
						c-0.466-0.26-0.847-0.911-0.847-1.448l0-58.443c0-0.28,0.105-0.587,0.268-0.859l4.689,2.677
						c-0.155,0.26-0.249,0.56-0.249,0.828v58.484C346.584,300.743,346.93,301.026,347.425,300.739z"/>
				</g>
			</g>
		</g>
		<g>
			<g id="XMLID_309_">
				<g>
					<path style="fill:#FFFFFF;" d="M358.235,286.632c-0.025,0.014-0.045,0.018-0.063,0.01c-0.018-0.008-0.027-0.023-0.027-0.048
						v-0.338l-1.045,0.604c-0.025,0.014-0.045,0.017-0.063,0.009c-0.017-0.008-0.026-0.023-0.026-0.048v-0.351
						c0-0.057,0.014-0.114,0.043-0.168l0.992-1.823c0.02-0.036,0.038-0.062,0.054-0.08c0.017-0.017,0.039-0.034,0.069-0.051
						l0.501-0.289c0.025-0.014,0.045-0.017,0.064-0.01c0.017,0.008,0.026,0.023,0.026,0.048v1.273l0.285-0.164
						c0.025-0.014,0.045-0.018,0.064-0.01c0.017,0.008,0.027,0.023,0.027,0.048v0.351c0,0.025-0.009,0.051-0.027,0.079
						c-0.018,0.028-0.039,0.049-0.064,0.064l-0.285,0.165v0.338c0,0.023-0.009,0.051-0.026,0.078
						c-0.018,0.028-0.039,0.049-0.064,0.064L358.235,286.632z M358.163,285.716v-0.61l-0.485,0.889L358.163,285.716z"/>
					<path style="fill:#FFFFFF;" d="M360.203,284.247c0,0.023-0.009,0.05-0.027,0.078c-0.018,0.028-0.039,0.049-0.063,0.064
						l-0.434,0.25c-0.025,0.014-0.045,0.017-0.063,0.01c-0.018-0.008-0.027-0.023-0.027-0.048v-0.434
						c0-0.025,0.009-0.051,0.027-0.078c0.018-0.029,0.039-0.048,0.063-0.063l0.434-0.251c0.025-0.014,0.045-0.018,0.063-0.01
						c0.017,0.007,0.027,0.024,0.027,0.047V284.247z M360.203,285.408c0,0.023-0.009,0.05-0.027,0.078
						c-0.018,0.028-0.039,0.049-0.063,0.063l-0.434,0.25c-0.025,0.014-0.045,0.018-0.063,0.01c-0.018-0.008-0.027-0.023-0.027-0.048
						v-0.434c0-0.025,0.009-0.051,0.027-0.078c0.018-0.029,0.039-0.049,0.063-0.063l0.434-0.251c0.025-0.014,0.045-0.018,0.063-0.01
						c0.017,0.007,0.027,0.024,0.027,0.047V285.408z"/>
					<path style="fill:#FFFFFF;" d="M361.877,284.53c-0.025,0.014-0.045,0.018-0.063,0.01c-0.018-0.007-0.027-0.023-0.027-0.047
						v-0.338l-1.044,0.603c-0.025,0.014-0.046,0.017-0.063,0.01c-0.018-0.008-0.027-0.023-0.027-0.048v-0.351
						c0-0.058,0.015-0.114,0.043-0.168l0.992-1.823c0.019-0.036,0.038-0.062,0.054-0.08c0.017-0.018,0.039-0.034,0.069-0.051
						l0.5-0.289c0.025-0.014,0.045-0.017,0.063-0.01c0.018,0.008,0.027,0.024,0.027,0.048v1.273l0.285-0.165
						c0.025-0.014,0.045-0.017,0.063-0.01c0.017,0.008,0.027,0.024,0.027,0.049v0.351c0,0.025-0.009,0.051-0.027,0.078
						c-0.018,0.029-0.038,0.049-0.063,0.064l-0.285,0.165v0.338c0,0.024-0.009,0.051-0.027,0.078
						c-0.018,0.029-0.039,0.049-0.063,0.064L361.877,284.53z M361.804,283.614v-0.61l-0.484,0.89L361.804,283.614z"/>
					<path style="fill:#FFFFFF;" d="M363.412,283.565c0-0.009,0.003-0.025,0.01-0.045l0.716-2.086l-0.988,0.571
						c-0.025,0.014-0.046,0.017-0.063,0.01c-0.018-0.007-0.027-0.023-0.027-0.047v-0.352c0-0.024,0.009-0.051,0.027-0.078
						c0.017-0.028,0.038-0.049,0.063-0.063l1.585-0.915c0.024-0.014,0.045-0.018,0.063-0.01c0.018,0.007,0.027,0.023,0.027,0.047
						v0.308c0,0.036-0.018,0.102-0.054,0.2l-0.72,2.09c-0.009,0.025-0.02,0.05-0.035,0.075c-0.014,0.025-0.034,0.045-0.061,0.06
						l-0.464,0.268c-0.022,0.012-0.041,0.016-0.056,0.009C363.42,283.601,363.412,283.587,363.412,283.565z"/>
				</g>
				<g>
					<path style="fill:#FFFFFF;" d="M423.594,248.099c0,0.131-0.027,0.262-0.079,0.395c-0.054,0.134-0.126,0.262-0.216,0.385
						c-0.09,0.123-0.196,0.239-0.315,0.347c-0.119,0.107-0.246,0.2-0.378,0.276c-0.133,0.077-0.26,0.13-0.378,0.161
						c-0.12,0.03-0.225,0.036-0.317,0.019c-0.092-0.018-0.165-0.063-0.218-0.135c-0.053-0.072-0.08-0.173-0.08-0.304
						c0-0.069,0.008-0.136,0.025-0.201c0.017-0.066,0.037-0.13,0.062-0.193c0.024-0.063,0.05-0.123,0.08-0.182
						c0.029-0.058,0.056-0.115,0.082-0.167l0.634-1.222c0.01-0.018,0.023-0.038,0.036-0.063c0.013-0.024,0.036-0.045,0.066-0.063
						l0.527-0.304c0.02-0.012,0.036-0.014,0.049-0.007c0.012,0.008,0.018,0.021,0.018,0.041c0,0.011-0.001,0.021-0.005,0.03
						c-0.004,0.008-0.008,0.016-0.012,0.022l-0.431,0.833c0.117-0.054,0.227-0.089,0.33-0.106c0.102-0.016,0.192-0.012,0.27,0.013
						c0.078,0.025,0.138,0.073,0.182,0.143C423.572,247.887,423.594,247.981,423.594,248.099z M422.228,248.887
						c0,0.049,0.01,0.086,0.033,0.111c0.022,0.025,0.05,0.039,0.085,0.045c0.036,0.005,0.076,0.001,0.122-0.012
						c0.045-0.013,0.091-0.032,0.138-0.06c0.046-0.027,0.092-0.059,0.137-0.1c0.045-0.039,0.085-0.082,0.119-0.126
						c0.034-0.046,0.062-0.093,0.085-0.143c0.022-0.05,0.033-0.1,0.033-0.149s-0.011-0.085-0.033-0.11
						c-0.023-0.025-0.051-0.04-0.085-0.046c-0.034-0.006-0.074-0.002-0.119,0.011c-0.045,0.013-0.091,0.033-0.137,0.06
						c-0.047,0.027-0.093,0.06-0.138,0.1c-0.046,0.039-0.086,0.082-0.122,0.128c-0.035,0.046-0.063,0.094-0.085,0.144
						C422.238,248.79,422.228,248.839,422.228,248.887z"/>
					<path style="fill:#FFFFFF;" d="M424.651,247.037c0,0.025-0.009,0.05-0.026,0.078c-0.018,0.028-0.038,0.049-0.064,0.063
						l-0.434,0.251c-0.025,0.014-0.045,0.017-0.064,0.01c-0.017-0.007-0.026-0.024-0.026-0.047v-0.435
						c0-0.023,0.009-0.051,0.026-0.078c0.018-0.029,0.039-0.049,0.064-0.063l0.434-0.25c0.025-0.014,0.046-0.018,0.064-0.01
						c0.017,0.008,0.026,0.023,0.026,0.048V247.037z M424.651,248.198c0,0.025-0.009,0.051-0.026,0.078
						c-0.018,0.028-0.038,0.049-0.064,0.063l-0.434,0.251c-0.025,0.014-0.045,0.017-0.064,0.01
						c-0.017-0.007-0.026-0.024-0.026-0.047v-0.435c0-0.023,0.009-0.051,0.026-0.078c0.018-0.029,0.039-0.049,0.064-0.064
						l0.434-0.25c0.025-0.014,0.046-0.018,0.064-0.01c0.017,0.008,0.026,0.023,0.026,0.048V248.198z"/>
					<path style="fill:#FFFFFF;" d="M426.89,244.673c0.025-0.014,0.045-0.018,0.063-0.01c0.018,0.007,0.027,0.023,0.027,0.047v0.352
						c0,0.025-0.008,0.051-0.024,0.08c-0.015,0.029-0.029,0.054-0.043,0.074l-0.401,0.637c0.172-0.055,0.313-0.062,0.421-0.02
						c0.108,0.043,0.162,0.151,0.162,0.323c0,0.25-0.086,0.488-0.258,0.713c-0.172,0.226-0.413,0.428-0.723,0.606
						c-0.159,0.092-0.301,0.154-0.422,0.188c-0.123,0.033-0.226,0.043-0.31,0.03c-0.084-0.014-0.149-0.047-0.194-0.098
						c-0.045-0.052-0.069-0.119-0.071-0.2c0-0.019,0.007-0.041,0.021-0.063c0.014-0.023,0.032-0.04,0.052-0.052l0.418-0.241
						c0.047-0.027,0.082-0.037,0.106-0.03c0.025,0.007,0.052,0.014,0.082,0.021c0.03,0.008,0.069,0.008,0.116,0.001
						c0.048-0.007,0.116-0.035,0.204-0.086c0.106-0.062,0.194-0.13,0.264-0.205c0.07-0.075,0.105-0.153,0.105-0.229
						c0-0.078-0.035-0.114-0.105-0.109c-0.07,0.004-0.157,0.038-0.264,0.099l-0.275,0.159c-0.025,0.014-0.045,0.017-0.064,0.01
						c-0.017-0.008-0.026-0.024-0.026-0.048v-0.286c0-0.024,0.008-0.051,0.023-0.08c0.016-0.028,0.031-0.056,0.046-0.08l0.352-0.558
						l-0.865,0.499c-0.025,0.014-0.045,0.018-0.063,0.01c-0.018-0.007-0.027-0.023-0.027-0.047v-0.352
						c0-0.024,0.009-0.051,0.027-0.078c0.018-0.028,0.038-0.049,0.063-0.063L426.89,244.673z"/>
					<path style="fill:#FFFFFF;" d="M428.548,243.683c0.166-0.096,0.309-0.154,0.428-0.174c0.12-0.02,0.219-0.012,0.297,0.025
						s0.137,0.098,0.175,0.185c0.039,0.087,0.062,0.189,0.068,0.305c0.004,0.092,0.006,0.191,0.006,0.295
						c0,0.104-0.002,0.203-0.006,0.296c-0.007,0.123-0.029,0.251-0.068,0.382c-0.039,0.132-0.097,0.262-0.175,0.388
						c-0.078,0.128-0.178,0.251-0.297,0.368c-0.118,0.117-0.262,0.223-0.428,0.319c-0.166,0.096-0.308,0.154-0.428,0.175
						c-0.119,0.02-0.218,0.012-0.297-0.025c-0.078-0.036-0.137-0.098-0.176-0.185c-0.038-0.087-0.062-0.189-0.068-0.305
						c-0.005-0.088-0.006-0.184-0.006-0.288c0-0.104,0.002-0.204,0.006-0.303c0.007-0.123,0.03-0.251,0.068-0.382
						c0.039-0.132,0.097-0.261,0.176-0.388c0.079-0.128,0.177-0.249,0.297-0.367C428.24,243.885,428.382,243.779,428.548,243.683z
						 M428.903,244.951c0.008-0.193,0.008-0.379,0-0.557c-0.005-0.053-0.012-0.099-0.025-0.139
						c-0.012-0.039-0.031-0.069-0.058-0.087c-0.027-0.018-0.062-0.025-0.106-0.019c-0.045,0.005-0.1,0.027-0.166,0.065
						c-0.066,0.038-0.122,0.08-0.166,0.126c-0.044,0.046-0.08,0.093-0.106,0.143c-0.026,0.049-0.047,0.101-0.059,0.154
						c-0.013,0.054-0.021,0.11-0.023,0.167c-0.011,0.189-0.011,0.376,0,0.557c0.003,0.053,0.01,0.1,0.022,0.14
						c0.012,0.039,0.032,0.069,0.06,0.086c0.027,0.019,0.063,0.025,0.107,0.02c0.044-0.006,0.1-0.028,0.166-0.066
						c0.066-0.038,0.121-0.08,0.166-0.125c0.044-0.046,0.08-0.094,0.108-0.145c0.027-0.05,0.047-0.102,0.06-0.155
						C428.894,245.062,428.901,245.007,428.903,244.951z"/>
				</g>
			</g>
			<g>
				<path style="opacity:0.3;fill:#FFFFFF;" d="M369.108,277.279l48.319-27.897c0.793-0.458,1.436-0.133,1.436,0.726
					c0,0.859-0.643,1.927-1.436,2.385l-48.319,27.897c-0.793,0.458-1.436,0.133-1.436-0.727
					C367.672,278.805,368.315,277.737,369.108,277.279z"/>
				<path style="fill:#FFFFFF;" d="M369.108,277.279l36.284-20.948c0.793-0.458,1.436-0.133,1.436,0.726s-0.643,1.927-1.436,2.385
					l-36.284,20.948c-0.793,0.458-1.436,0.133-1.436-0.727C367.672,278.805,368.315,277.737,369.108,277.279z"/>
			</g>
		</g>
		<g>
			<path style="fill:#27DEBF;" d="M435.907,213.016c0,0-2.509,1.449-4.273,2.467s-4.838,2.925-6.596,2.447
				c-1.482-0.403-2.617-2.394-4.662-1.213c-1.289,0.744-2.713,5.311-5.222,6.76c-2.51,1.449-4.002-2.64-4.816-4.748
				c-0.814-2.108-2.238-6.06-5.223-4.337c-2.984,1.723-4.544,7.762-6.443,12.203c-1.899,4.441-4.372,8.745-7.424,10.507
				c-3.602,2.079-6.073,1.068-7.768,2.047c-1.696,0.979-3.108,4.074-4.968,5.872c-1.681,1.624-4.268,3.199-5.76,2.021
				c-1.492-1.178-2.566-4.283-4.058-3.422c-1.492,0.861-2.713,5.836-4.137,8.327c-1.424,2.491-2.961,3.972-7.189,6.413
				c-5.087,2.937-7.935,4.582-7.935,4.582v0.566c0,0,1.713-0.989,3.422-1.976c1.709-0.986,4.113-2.293,5.727-1.61
				c1.614,0.684,1.677,1.294,3.101,0.472c1.424-0.822,1.962-2.037,3.006-3.608c1.044-1.571,1.709-2.507,2.753-3.11
				c1.044-0.603,2.373,0.006,3.196,0.807c0.823,0.801,1.645,1.664,2.879,0.951c1.234-0.712,2.088-2.164,2.879-3.718
				c0.791-1.554,1.234-2.792,2.12-3.303c0.886-0.512,1.772-0.44,3.101-0.269c1.329,0.171,2.712,0.172,4.801-1.033
				c2.088-1.206,4.502-3.323,7.539-8.743c0,0,1.266-0.731,4.62-2.667c3.354-1.936,5.674-3.058,7.212-2.702
				c1.923,0.445,4.558,4.137,7.438,2.475c2.879-1.662,3.702-6.019,5.126-8.866c1.424-2.847,2.436-4.297,5.822-6.251
				c3.386-1.955,11.735-6.775,11.735-6.775V213.016z"/>
			<path style="opacity:0.2;" d="M410.341,235.632c-1.735-0.663-3.297-2.341-4.554-2.632c-1.538-0.356-3.858,0.766-7.212,2.702
				c-3.354,1.936-4.62,2.667-4.62,2.667c2.667-4.77,5.191-12.235,6.144-15.194c0.408-1.268,0.872-2.529,1.414-3.759
				c0.633-1.436,1.322-2.733,2.12-3.707c1.484-1.549,2.605-1.717,3.331,0.08c0.727,1.8,0.189,7.164,0.315,11.716
				C407.406,232.056,408.646,234.606,410.341,235.632z"/>
			<path style="opacity:0.2;" d="M372.751,247.044c1.492,1.178,4.08-0.397,5.76-2.021c1.859-1.797,3.272-4.893,4.968-5.872
				c1.696-0.979,4.167,0.032,7.768-2.047c1.097-0.633,2.119-1.596,3.067-2.775l0,0.001c-1.312,2.018-3.307,5.741-7.195,8.551
				c-2.259,1.632-5.186,2.626-6.486,3.376c-1.64,0.947-2.574,2.203-3.083,3.196v0c-0.369,0.604-0.707,1.383-1.156,2.266
				c-0.791,1.554-1.645,3.005-2.879,3.718c-0.613,0.354-1.124,0.319-1.584,0.096c-1.096-0.853-1.578-2.712-1.724-6.635
				c-0.168-4.524-0.81-5.404-1.514-5.275C370.185,242.76,371.259,245.866,372.751,247.044z"/>
			<path style="opacity:0.2;" d="M407.28,227.505c-0.126-4.552,0.411-9.916-0.315-11.716c-0.491-1.217-1.165-1.53-2.009-1.126
				c1.274-0.175,2.395,1.837,1.657,6.783c-0.409,2.744-1.622,7.882-1.032,11.519c0.069,0.01,0.139,0.019,0.205,0.034
				c1.258,0.291,2.819,1.969,4.554,2.632C408.646,234.606,407.406,232.056,407.28,227.505z"/>
			<path style="opacity:0.2;" d="M393.955,238.369c0,0,0.733-0.424,2.56-1.478c0.979-2.547,1.705-5.124,2.3-7.319
				c0.973-3.587,1.765-7.812,2.698-10.155c-0.542,1.229-1.006,2.49-1.414,3.759C399.146,226.134,396.622,233.599,393.955,238.369z"
				/>
			<path style="opacity:0.5;fill:#FFFFFF;" d="M419.008,218.477c-0.99,1.681-2.181,4.035-3.855,5.001
				c-2.51,1.449-4.002-2.64-4.816-4.748c-0.237-0.614-0.527-1.385-0.892-2.127c1.035,2.139,1.846,6.055,2.458,8.27
				c0.518,1.876,1.049,3.158,2.52,2.584c1.472-0.574,2.48-3.664,3.082-5.338C417.978,220.807,418.514,219.405,419.008,218.477z"/>
			<path style="opacity:0.2;" d="M419.249,221.29c-0.758,2.351-1.11,4.94-2.3,8.717c0.47-1.198,0.899-2.393,1.402-3.399
				c1.424-2.847,2.436-4.297,5.822-6.251c0.976-0.564,2.365-1.366,3.848-2.221c-3.709,2.141-5.306,0.504-6.199,0.01
				C420.927,217.652,420.007,218.939,419.249,221.29z"/>
			<path style="opacity:0.2;" d="M421.304,218.055c-0.724,0.133-1.443,1.336-2.055,3.236c-0.758,2.351-1.11,4.94-2.3,8.717
				c0.47-1.198,0.899-2.393,1.402-3.399c0.362-0.725,0.698-1.359,1.054-1.934c0.132-1.127,0.227-2.106,0.285-2.685
				C419.866,220.258,420.502,218.63,421.304,218.055z"/>
			<path style="opacity:0.2;" d="M391.247,237.104c-3.602,2.079-6.073,1.068-7.768,2.047c-0.265,0.153-0.522,0.362-0.776,0.605
				c1.138-0.988,3.025-0.242,4.43-0.028c0.875,0.133,2.465,0.065,4.154-0.906c1.358-1.724,2.298-3.372,3.027-4.493l0-0.001
				C393.367,235.508,392.345,236.471,391.247,237.104z"/>
			<path style="opacity:0.2;" d="M370.207,248.897c0.146,3.923,0.628,5.782,1.724,6.635c0.46,0.223,0.971,0.258,1.584-0.096
				c1.119-0.646,1.925-1.9,2.655-3.286c-1.455,2.014-3.631,2.329-4.246,0.43c-0.615-1.899-0.648-4.542-1.072-6.339
				c-0.401-1.699-0.918-2.731-1.622-2.767c-0.032-0.001-0.064,0.002-0.097,0.004c-0.013,0.001-0.026,0.001-0.039,0.003
				c-0.034,0.004-0.068,0.012-0.103,0.02c-0.019,0.005-0.038,0.01-0.058,0.017c-0.028,0.009-0.056,0.018-0.084,0.029
				c-0.051,0.021-0.103,0.045-0.156,0.075C369.397,243.493,370.039,244.373,370.207,248.897z"/>
			<path style="opacity:0.5;fill:#FFFFFF;" d="M364.556,251.949c-1.424,2.491-2.961,3.972-7.189,6.413
				c-0.313,0.181-0.618,0.357-0.914,0.528c5.283-3.05,7.36-2.26,8.731-5.148c1.371-2.888,1.905-7.728,2.598-9.086
				C366.678,246.472,365.68,249.983,364.556,251.949z"/>
			<path style="opacity:0.5;fill:#FFFFFF;" d="M396.429,233.185c-0.778,1.848-1.619,3.655-2.474,5.183
				c-3.037,5.421-5.451,7.539-7.539,8.744c-2.089,1.206-3.473,1.204-4.8,1.033c-1.329-0.171-2.216-0.242-3.102,0.269
				c1.393-0.946,2.536-1.119,4.189-1.167c1.653-0.045,4.111-0.779,6.929-3.578C392.406,240.914,396.307,233.417,396.429,233.185z"/>
		</g>
		<g>
			<path style="fill:#FFFFFF;" d="M381.863,257.449c0.045-0.025,0.084-0.023,0.115,0.008c0.032,0.031,0.05,0.08,0.05,0.15v0.336
				c0,0.068-0.018,0.139-0.05,0.207c-0.031,0.068-0.07,0.115-0.115,0.142l-1.138,0.657v5.461c0,0.068-0.016,0.138-0.049,0.207
				c-0.032,0.068-0.071,0.115-0.115,0.141l-0.249,0.145c-0.045,0.025-0.084,0.023-0.116-0.008c-0.033-0.031-0.049-0.082-0.049-0.15
				v-5.461l-1.138,0.656c-0.045,0.025-0.084,0.023-0.116-0.008c-0.032-0.031-0.049-0.082-0.049-0.15v-0.336
				c0-0.07,0.017-0.139,0.049-0.207c0.032-0.068,0.071-0.115,0.116-0.142L381.863,257.449z"/>
			<path style="fill:#FFFFFF;" d="M385.824,255.162c0.045-0.025,0.084-0.023,0.116,0.008c0.032,0.031,0.049,0.08,0.049,0.15v6.051
				c0,0.068-0.017,0.139-0.049,0.207c-0.032,0.068-0.071,0.115-0.116,0.142l-0.249,0.143c-0.045,0.026-0.083,0.023-0.115-0.008
				c-0.033-0.031-0.049-0.082-0.049-0.15v-2.641l-2.143,1.236v2.642c0,0.068-0.016,0.138-0.048,0.206
				c-0.033,0.069-0.071,0.115-0.116,0.142l-0.249,0.143c-0.045,0.026-0.083,0.025-0.116-0.003c-0.032-0.028-0.048-0.079-0.048-0.155
				v-6.051c0-0.07,0.016-0.138,0.048-0.207c0.033-0.068,0.071-0.115,0.116-0.141l0.249-0.145c0.045-0.025,0.083-0.023,0.116,0.008
				c0.032,0.031,0.048,0.081,0.048,0.15v2.566l2.143-1.236v-2.566c0-0.07,0.016-0.138,0.049-0.207
				c0.032-0.068,0.07-0.115,0.115-0.141L385.824,255.162z"/>
			<path style="fill:#FFFFFF;" d="M389.658,258.664c0.045-0.026,0.083-0.023,0.116,0.007c0.032,0.032,0.048,0.081,0.048,0.151v0.336
				c0,0.068-0.016,0.138-0.048,0.206c-0.033,0.069-0.071,0.116-0.116,0.142l-2.459,1.42c-0.044,0.025-0.082,0.023-0.115-0.008
				c-0.032-0.031-0.049-0.082-0.049-0.15v-6.052c0-0.069,0.017-0.138,0.049-0.207c0.033-0.069,0.071-0.115,0.115-0.142l2.41-1.391
				c0.045-0.026,0.084-0.024,0.115,0.007c0.032,0.032,0.05,0.081,0.05,0.15v0.337c0,0.068-0.018,0.138-0.05,0.206
				c-0.031,0.068-0.07,0.116-0.115,0.143l-1.996,1.153v1.977l1.862-1.076c0.045-0.025,0.083-0.021,0.116,0.009
				c0.031,0.031,0.048,0.081,0.048,0.149v0.338c0,0.068-0.017,0.138-0.048,0.206c-0.033,0.069-0.071,0.116-0.116,0.142l-1.862,1.076
				v2.051L389.658,258.664z"/>
			<path style="fill:#FFFFFF;" d="M393.43,250.676c0.247-0.143,0.466-0.21,0.654-0.2c0.189,0.009,0.349,0.062,0.482,0.158
				c0.131,0.096,0.231,0.223,0.301,0.379c0.068,0.157,0.104,0.313,0.109,0.466c0.004,0.054-0.008,0.109-0.037,0.166
				c-0.027,0.056-0.06,0.096-0.097,0.117l-0.25,0.144c-0.045,0.026-0.08,0.034-0.106,0.024c-0.026-0.01-0.054-0.05-0.082-0.122
				c-0.02-0.051-0.054-0.11-0.101-0.181c-0.047-0.07-0.109-0.128-0.189-0.171c-0.079-0.045-0.175-0.068-0.289-0.067
				c-0.113,0-0.245,0.043-0.396,0.129c-0.114,0.066-0.222,0.149-0.325,0.249c-0.104,0.101-0.196,0.215-0.277,0.343
				c-0.081,0.129-0.145,0.268-0.194,0.417c-0.049,0.15-0.073,0.306-0.073,0.469c0,0.162,0.023,0.287,0.07,0.372
				c0.047,0.085,0.121,0.144,0.225,0.175c0.104,0.03,0.234,0.037,0.393,0.021c0.158-0.016,0.352-0.044,0.578-0.081
				c0.232-0.04,0.427-0.05,0.588-0.031c0.159,0.021,0.291,0.071,0.393,0.153c0.101,0.082,0.175,0.202,0.221,0.359
				c0.048,0.157,0.07,0.351,0.07,0.583c0,0.281-0.039,0.561-0.118,0.84c-0.079,0.281-0.189,0.545-0.331,0.797
				c-0.143,0.25-0.314,0.48-0.515,0.689c-0.201,0.211-0.426,0.387-0.672,0.529c-0.236,0.137-0.453,0.209-0.651,0.217
				c-0.199,0.008-0.37-0.031-0.512-0.117c-0.143-0.086-0.255-0.209-0.338-0.367s-0.127-0.336-0.131-0.533
				c0-0.057,0.014-0.111,0.04-0.168c0.026-0.057,0.058-0.096,0.095-0.116l0.249-0.144c0.041-0.023,0.076-0.031,0.107-0.023
				c0.03,0.006,0.058,0.047,0.082,0.121c0.024,0.072,0.061,0.146,0.112,0.221c0.051,0.074,0.119,0.131,0.204,0.173
				c0.086,0.04,0.188,0.058,0.311,0.05c0.122-0.008,0.266-0.059,0.433-0.155c0.142-0.082,0.276-0.185,0.403-0.309
				c0.128-0.124,0.24-0.261,0.339-0.411c0.097-0.15,0.174-0.307,0.23-0.471c0.057-0.164,0.086-0.327,0.086-0.489
				c0-0.162-0.033-0.282-0.098-0.361c-0.064-0.078-0.159-0.129-0.279-0.152c-0.122-0.023-0.271-0.023-0.448,0
				c-0.177,0.024-0.376,0.057-0.6,0.099c-0.202,0.035-0.375,0.037-0.518,0.003c-0.142-0.033-0.257-0.1-0.347-0.197
				c-0.089-0.1-0.152-0.227-0.19-0.387c-0.039-0.158-0.059-0.344-0.059-0.556c0-0.231,0.03-0.474,0.091-0.728
				c0.061-0.254,0.151-0.499,0.271-0.737c0.119-0.237,0.27-0.461,0.45-0.668C392.975,250.99,393.187,250.816,393.43,250.676z"/>
			<path style="fill:#FFFFFF;" d="M395.725,251.889c0.003-0.352,0.043-0.704,0.118-1.057c0.075-0.352,0.184-0.683,0.326-0.994
				c0.142-0.31,0.315-0.592,0.523-0.845c0.206-0.254,0.443-0.458,0.712-0.612c0.267-0.154,0.505-0.225,0.711-0.209
				c0.207,0.014,0.382,0.095,0.523,0.241c0.143,0.146,0.251,0.353,0.326,0.618c0.075,0.266,0.114,0.572,0.118,0.92
				c0.013,0.549,0.013,1.105,0,1.668c-0.008,0.354-0.049,0.708-0.124,1.06c-0.076,0.353-0.184,0.686-0.326,0.999
				c-0.142,0.313-0.316,0.594-0.52,0.844c-0.205,0.251-0.442,0.452-0.709,0.606c-0.268,0.155-0.505,0.227-0.71,0.213
				c-0.204-0.013-0.378-0.094-0.52-0.242c-0.143-0.148-0.251-0.357-0.326-0.624c-0.075-0.266-0.116-0.571-0.124-0.916
				C395.713,253.009,395.713,252.453,395.725,251.889z M398.505,250.331c-0.008-0.288-0.039-0.526-0.095-0.713
				c-0.054-0.188-0.13-0.324-0.228-0.413c-0.098-0.087-0.212-0.128-0.344-0.124c-0.132,0.005-0.276,0.052-0.435,0.144
				c-0.159,0.092-0.304,0.211-0.436,0.359c-0.132,0.149-0.246,0.322-0.344,0.522c-0.098,0.201-0.175,0.426-0.231,0.678
				c-0.057,0.251-0.087,0.525-0.092,0.82c-0.007,0.286-0.012,0.551-0.012,0.794c0,0.244,0.005,0.503,0.012,0.78
				c0.005,0.292,0.035,0.529,0.092,0.716c0.057,0.187,0.134,0.322,0.231,0.409c0.098,0.088,0.212,0.13,0.344,0.125
				c0.132-0.004,0.276-0.051,0.436-0.143c0.158-0.092,0.303-0.211,0.435-0.359c0.132-0.148,0.246-0.322,0.344-0.522
				c0.098-0.2,0.174-0.424,0.228-0.674c0.056-0.251,0.087-0.525,0.095-0.823c0.008-0.286,0.012-0.55,0.012-0.794
				C398.517,250.868,398.513,250.607,398.505,250.331z"/>
			<path style="fill:#FFFFFF;" d="M402.772,251.934c-0.058,0.033-0.105,0.031-0.145-0.006c-0.038-0.038-0.071-0.082-0.1-0.135
				l-1.978-3.439v4.609c0,0.068-0.017,0.137-0.049,0.206c-0.033,0.07-0.071,0.116-0.115,0.142l-0.25,0.144
				c-0.045,0.026-0.083,0.023-0.116-0.008c-0.031-0.031-0.048-0.081-0.048-0.15v-6.052c0-0.069,0.017-0.137,0.048-0.207
				c0.033-0.069,0.071-0.115,0.116-0.141l0.213-0.123c0.057-0.033,0.104-0.031,0.143,0.006c0.038,0.038,0.071,0.081,0.101,0.133
				l1.977,3.44v-4.609c0-0.069,0.017-0.137,0.05-0.207c0.032-0.068,0.07-0.115,0.114-0.141l0.25-0.144
				c0.045-0.026,0.084-0.024,0.116,0.007c0.032,0.032,0.049,0.081,0.049,0.15v6.052c0,0.068-0.017,0.138-0.049,0.206
				c-0.032,0.069-0.071,0.116-0.116,0.142L402.772,251.934z"/>
			<path style="fill:#FFFFFF;" d="M404.037,247.072c0.008-0.347,0.048-0.695,0.118-1.042c0.071-0.348,0.179-0.678,0.322-0.993
				c0.145-0.314,0.324-0.599,0.539-0.854c0.215-0.255,0.469-0.467,0.761-0.636c0.276-0.159,0.518-0.236,0.727-0.233
				c0.209,0.004,0.385,0.059,0.523,0.162c0.141,0.104,0.246,0.24,0.316,0.408c0.071,0.168,0.109,0.335,0.113,0.502
				c0.004,0.054-0.008,0.109-0.037,0.167c-0.027,0.057-0.061,0.096-0.097,0.117l-0.25,0.144c-0.097,0.056-0.156,0.056-0.177-0.001
				c-0.048-0.122-0.104-0.231-0.166-0.326c-0.063-0.094-0.138-0.164-0.223-0.208c-0.086-0.044-0.188-0.061-0.308-0.048
				c-0.12,0.014-0.261,0.067-0.423,0.16c-0.166,0.096-0.319,0.221-0.46,0.373c-0.14,0.153-0.26,0.33-0.361,0.532
				c-0.102,0.203-0.183,0.429-0.244,0.68c-0.061,0.251-0.093,0.521-0.097,0.81c-0.008,0.286-0.012,0.547-0.012,0.784
				c0,0.238,0.004,0.495,0.012,0.771c0.004,0.297,0.036,0.541,0.097,0.731c0.061,0.19,0.143,0.328,0.244,0.416
				c0.102,0.089,0.222,0.128,0.361,0.119c0.141-0.009,0.294-0.061,0.46-0.157c0.162-0.093,0.314-0.212,0.456-0.357
				c0.143-0.145,0.266-0.317,0.371-0.519c0.106-0.202,0.188-0.432,0.246-0.69c0.059-0.26,0.089-0.551,0.089-0.876v-0.262
				l-0.876,0.506c-0.045,0.026-0.084,0.023-0.115-0.008c-0.032-0.031-0.05-0.081-0.05-0.149v-0.338c0-0.068,0.018-0.138,0.05-0.206
				c0.031-0.068,0.07-0.116,0.115-0.142l1.29-0.745c0.045-0.026,0.083-0.022,0.116,0.008c0.031,0.031,0.048,0.082,0.048,0.15v0.891
				c0,0.374-0.038,0.742-0.115,1.102c-0.078,0.36-0.19,0.697-0.338,1.01c-0.148,0.314-0.331,0.597-0.548,0.85
				c-0.217,0.253-0.463,0.46-0.739,0.619c-0.292,0.169-0.546,0.248-0.761,0.238c-0.215-0.011-0.394-0.09-0.535-0.24
				c-0.143-0.148-0.25-0.358-0.322-0.628c-0.073-0.27-0.114-0.583-0.122-0.941C404.024,248.179,404.024,247.629,404.037,247.072z"/>
		</g>
	</g>
</g>
</svg>
