<svg xmlns="http://www.w3.org/2000/svg" xmlns:xlink="http://www.w3.org/1999/xlink" viewBox="0 0 2815.7 3024.87"><defs><style>.cls-1{fill:none;}.cls-2{isolation:isolate;}.cls-3{fill:#f4f7fa;}.cls-4,.cls-54{fill:#d8dee8;}.cls-41,.cls-5{fill:#fff;}.cls-6{fill:url(#linear-gradient);}.cls-7{fill:#bfc8d6;}.cls-31,.cls-41,.cls-8{opacity:0.5;}.cls-41,.cls-8{mix-blend-mode:soft-light;}.cls-9{clip-path:url(#clip-path);}.cls-10{fill:url(#linear-gradient-2);}.cls-11{fill:url(#linear-gradient-3);}.cls-12,.cls-18,.cls-26,.cls-29,.cls-42,.cls-51,.cls-52,.cls-54,.cls-60,.cls-63,.cls-70,.cls-74,.cls-83{opacity:0.3;}.cls-12,.cls-18,.cls-26,.cls-29,.cls-42,.cls-51,.cls-52,.cls-54,.cls-60,.cls-63,.cls-70,.cls-83{mix-blend-mode:multiply;}.cls-12{fill:url(#linear-gradient-4);}.cls-13{fill:url(#linear-gradient-5);}.cls-14{fill:url(#linear-gradient-6);}.cls-15{fill:url(#linear-gradient-7);}.cls-16{fill:url(#linear-gradient-8);}.cls-17{fill:url(#linear-gradient-9);}.cls-18{fill:url(#linear-gradient-10);}.cls-19{fill:url(#linear-gradient-11);}.cls-20{fill:url(#linear-gradient-12);}.cls-21{fill:url(#linear-gradient-13);}.cls-22{fill:url(#linear-gradient-14);}.cls-23{fill:url(#linear-gradient-15);}.cls-24{fill:url(#linear-gradient-16);}.cls-25{fill:url(#linear-gradient-17);}.cls-26{fill:url(#linear-gradient-18);}.cls-27{fill:#552d63;}.cls-28{fill:url(#linear-gradient-19);}.cls-29{fill:url(#linear-gradient-20);}.cls-30{fill:url(#linear-gradient-21);}.cls-32{fill:url(#linear-gradient-22);}.cls-33{fill:url(#linear-gradient-23);}.cls-34{fill:url(#linear-gradient-24);}.cls-35{fill:url(#linear-gradient-25);}.cls-36{fill:url(#linear-gradient-26);}.cls-37{fill:url(#linear-gradient-27);}.cls-38{fill:url(#linear-gradient-28);}.cls-39{fill:url(#linear-gradient-29);}.cls-40{fill:url(#linear-gradient-30);}.cls-42{fill:url(#linear-gradient-31);}.cls-43{fill:url(#linear-gradient-32);}.cls-44{fill:url(#linear-gradient-33);}.cls-45{fill:url(#linear-gradient-34);}.cls-46{fill:url(#linear-gradient-35);}.cls-47{fill:url(#linear-gradient-36);}.cls-48{fill:url(#linear-gradient-37);}.cls-49{fill:url(#linear-gradient-38);}.cls-50{fill:url(#linear-gradient-39);}.cls-51{fill:url(#linear-gradient-40);}.cls-52{fill:url(#linear-gradient-41);}.cls-53{fill:url(#linear-gradient-42);}.cls-55{fill:#a2a7ae;}.cls-56{fill:url(#linear-gradient-43);}.cls-57{fill:url(#linear-gradient-44);}.cls-58{fill:url(#linear-gradient-45);}.cls-59{fill:url(#linear-gradient-46);}.cls-60{fill:url(#linear-gradient-47);}.cls-61{fill:url(#linear-gradient-48);}.cls-62{fill:url(#linear-gradient-49);}.cls-63{fill:url(#linear-gradient-50);}.cls-64{fill:url(#linear-gradient-51);}.cls-65{fill:url(#linear-gradient-52);}.cls-66{fill:url(#linear-gradient-53);}.cls-67{fill:url(#linear-gradient-54);}.cls-68{fill:url(#linear-gradient-55);}.cls-69{fill:url(#linear-gradient-56);}.cls-70{fill:url(#linear-gradient-57);}.cls-71{fill:url(#linear-gradient-58);}.cls-72{fill:url(#linear-gradient-59);}.cls-73{fill:url(#linear-gradient-60);}.cls-74{mix-blend-mode:color-burn;fill:url(#linear-gradient-61);}.cls-75{fill:url(#linear-gradient-62);}.cls-76{fill:url(#linear-gradient-63);}.cls-77{fill:url(#linear-gradient-64);}.cls-78{fill:url(#linear-gradient-65);}.cls-79{fill:url(#linear-gradient-66);}.cls-80{fill:url(#linear-gradient-67);}.cls-81{fill:url(#linear-gradient-68);}.cls-82{fill:url(#linear-gradient-69);}.cls-83{fill:url(#linear-gradient-70);}.cls-84{fill:url(#linear-gradient-71);}.cls-85{fill:url(#linear-gradient-72);}</style><linearGradient id="linear-gradient" x1="424.94" y1="1276.61" x2="2256" y2="1276.61" gradientUnits="userSpaceOnUse"><stop offset="0" stop-color="#fff"/><stop offset="1" stop-color="#ebeff2"/></linearGradient><clipPath id="clip-path"><polygon class="cls-1" points="941.5 1889.36 1907.49 1833.61 2665.99 975.41 2180.45 208 518.56 440.39 493.19 1818.83 941.5 1889.36"/></clipPath><linearGradient id="linear-gradient-2" x1="731.08" y1="-208.53" x2="668.81" y2="38.91" gradientTransform="matrix(-0.4, -0.92, -0.92, 0.4, 2621.58, 1717.35)" gradientUnits="userSpaceOnUse"><stop offset="0" stop-color="#ffc444"/><stop offset="1" stop-color="#f36f56"/></linearGradient><linearGradient id="linear-gradient-3" x1="2341.85" y1="731.78" x2="1908.79" y2="1167.89" gradientUnits="userSpaceOnUse"><stop offset="0" stop-color="#aa80f9"/><stop offset="1" stop-color="#6165d7"/></linearGradient><linearGradient id="linear-gradient-4" x1="1974.06" y1="1333.14" x2="2057.57" y2="1140.18" xlink:href="#linear-gradient-3"/><linearGradient id="linear-gradient-5" x1="417.47" y1="3086.13" x2="549.94" y2="3086.13" gradientTransform="matrix(-1, 0.09, 0.09, 1, 1604.85, -122.16)" gradientUnits="userSpaceOnUse"><stop offset="0" stop-color="#444b8c"/><stop offset="1" stop-color="#26264f"/></linearGradient><linearGradient id="linear-gradient-6" x1="-1.8" y1="3031.71" x2="58.55" y2="2906.79" gradientTransform="matrix(-1, 0.07, 0.07, 1, 1178.97, -30.73)" xlink:href="#linear-gradient-2"/><linearGradient id="linear-gradient-7" x1="-65.2" y1="3188.91" x2="75.95" y2="3188.91" gradientTransform="matrix(-0.98, 0.21, 0.21, 0.98, 1181.09, -125.74)" xlink:href="#linear-gradient-5"/><linearGradient id="linear-gradient-8" x1="-237.46" y1="3128.31" x2="-175.71" y2="3000.51" gradientTransform="matrix(-0.99, 0.15, 0.15, 0.99, 1151.14, -68.52)" xlink:href="#linear-gradient-2"/><linearGradient id="linear-gradient-9" x1="2303.05" y1="2609.1" x2="1912.24" y2="1728.12" gradientTransform="translate(-262.46 3.9) rotate(3.06)" gradientUnits="userSpaceOnUse"><stop offset="0" stop-color="#311944"/><stop offset="1" stop-color="#893976"/></linearGradient><linearGradient id="linear-gradient-10" x1="2244.53" y1="2634.66" x2="1853.84" y2="1753.95" xlink:href="#linear-gradient-9"/><linearGradient id="linear-gradient-11" x1="1625.04" y1="2832.92" x2="1235.52" y2="1954.84" gradientTransform="translate(-130.39 60.86) rotate(-3.98)" xlink:href="#linear-gradient-9"/><linearGradient id="linear-gradient-12" x1="1169.68" y1="1756.34" x2="1764.77" y2="381.33" xlink:href="#linear-gradient-3"/><linearGradient id="linear-gradient-13" x1="1708.56" y1="179.38" x2="1723.74" y2="-224.97" gradientTransform="translate(-79.62 -31.12) rotate(26.56)" gradientUnits="userSpaceOnUse"><stop offset="0" stop-color="#ffc444"/><stop offset="0.46" stop-color="#ffc244"/><stop offset="0.63" stop-color="#febb46"/><stop offset="0.75" stop-color="#fcb048"/><stop offset="0.84" stop-color="#fa9f4c"/><stop offset="0.93" stop-color="#f78951"/><stop offset="1" stop-color="#f36f56"/></linearGradient><linearGradient id="linear-gradient-14" x1="-765.93" y1="747.06" x2="-869.31" y2="484.49" gradientTransform="matrix(-0.95, -0.31, -0.31, 0.95, 847.63, -188.64)" gradientUnits="userSpaceOnUse"><stop offset="0" stop-color="#311944"/><stop offset="1" stop-color="#6b3976"/></linearGradient><linearGradient id="linear-gradient-15" x1="1407.27" y1="622.64" x2="1402.48" y2="1008.31" gradientTransform="translate(283.26 -347.91) rotate(14.42)" xlink:href="#linear-gradient-2"/><linearGradient id="linear-gradient-16" x1="1106.03" y1="1471.92" x2="1133.64" y2="1556.19" gradientTransform="matrix(1, 0, 0, 1, 0, 0)" xlink:href="#linear-gradient-2"/><linearGradient id="linear-gradient-17" x1="731.2" y1="1555.41" x2="1321.32" y2="191.86" xlink:href="#linear-gradient-3"/><linearGradient id="linear-gradient-18" x1="1277.28" y1="1802.79" x2="1872.71" y2="426.98" xlink:href="#linear-gradient-3"/><linearGradient id="linear-gradient-19" x1="1666.16" y1="385.67" x2="2396.78" y2="385.67" gradientTransform="matrix(1, 0, 0, 1, 0, 0)" xlink:href="#linear-gradient-2"/><linearGradient id="linear-gradient-20" x1="1719.57" y1="226.51" x2="2286.49" y2="973.14" gradientTransform="matrix(1, 0, 0, 1, 0, 0)" xlink:href="#linear-gradient-2"/><linearGradient id="linear-gradient-21" x1="-4495.92" y1="1562.66" x2="-4782.89" y2="3784.33" gradientTransform="translate(3440.36 -2207.82) rotate(-37.05)" xlink:href="#linear-gradient-2"/><linearGradient id="linear-gradient-22" x1="-3543.2" y1="1867.41" x2="-3830.17" y2="4089.07" gradientTransform="matrix(-0.8, -0.6, -0.6, 0.8, 1084.95, -2207.82)" gradientUnits="userSpaceOnUse"><stop offset="0" stop-color="#ff9085"/><stop offset="1" stop-color="#fb6fbb"/></linearGradient><linearGradient id="linear-gradient-23" x1="3219.49" y1="2223.43" x2="2984.05" y2="3016.49" gradientTransform="translate(-1675.05)" gradientUnits="userSpaceOnUse"><stop offset="0" stop-color="#40447e"/><stop offset="1" stop-color="#3c3b6b"/></linearGradient><linearGradient id="linear-gradient-24" x1="1663.47" y1="2513.13" x2="2686.03" y2="2513.13" gradientTransform="matrix(1, 0, 0, 1, 0, 0)" xlink:href="#linear-gradient-22"/><linearGradient id="linear-gradient-25" x1="3315.23" y1="2515.07" x2="4380.13" y2="2515.07" xlink:href="#linear-gradient-23"/><linearGradient id="linear-gradient-26" x1="2814.91" y1="2225.25" x2="3398.45" y2="2225.25" gradientTransform="translate(-1675.05)" xlink:href="#linear-gradient-22"/><linearGradient id="linear-gradient-27" x1="2775.27" y1="2220.64" x2="3032.11" y2="2223.44" gradientTransform="translate(-1675.05)" xlink:href="#linear-gradient-3"/><linearGradient id="linear-gradient-28" x1="3338.52" y1="2218.06" x2="4361.08" y2="2218.06" gradientTransform="translate(-1675.05)" xlink:href="#linear-gradient-22"/><linearGradient id="linear-gradient-29" x1="3315.23" y1="2112.82" x2="4380.13" y2="2112.82" gradientTransform="translate(-1675.05)" xlink:href="#linear-gradient-3"/><linearGradient id="linear-gradient-30" x1="3315.23" y1="2324.03" x2="4380.13" y2="2324.03" gradientTransform="translate(-1675.05)" xlink:href="#linear-gradient-3"/><linearGradient id="linear-gradient-31" x1="3002.75" y1="2395.09" x2="2954.05" y2="2322.99" gradientTransform="translate(-1675.05)" xlink:href="#linear-gradient-2"/><linearGradient id="linear-gradient-32" x1="2990.73" y1="2377.29" x2="2921.96" y2="2275.48" gradientTransform="translate(-1675.05)" xlink:href="#linear-gradient-3"/><linearGradient id="linear-gradient-33" x1="1295.83" y1="2520.96" x2="1375.74" y2="2520.96" gradientTransform="matrix(-1, 0, 0, 1, 3323.01, 0)" xlink:href="#linear-gradient-9"/><linearGradient id="linear-gradient-34" x1="1518.62" y1="2403.68" x2="1339.46" y2="2177.52" gradientTransform="matrix(-1, 0, 0, 1, 3323.01, 0)" xlink:href="#linear-gradient-2"/><linearGradient id="linear-gradient-35" x1="1257.5" y1="2528.03" x2="1358.6" y2="2528.03" gradientTransform="matrix(-1, 0, 0, 1, 3323.01, 0)" xlink:href="#linear-gradient-9"/><linearGradient id="linear-gradient-36" x1="1360.01" y1="2356.33" x2="1509.79" y2="2788.08" gradientTransform="matrix(-1, 0, 0, 1, 3323.01, 0)" xlink:href="#linear-gradient-2"/><linearGradient id="linear-gradient-37" x1="1273.36" y1="1539.18" x2="1323.29" y2="1923.93" gradientTransform="matrix(-1, 0, 0, 1, 3323.01, 0)" gradientUnits="userSpaceOnUse"><stop offset="0" stop-color="#e38ddd"/><stop offset="1" stop-color="#9571f6"/></linearGradient><linearGradient id="linear-gradient-38" x1="1043.66" y1="1649.55" x2="1121.49" y2="1463.05" xlink:href="#linear-gradient-37"/><linearGradient id="linear-gradient-39" x1="1094.24" y1="2365.19" x2="1331.16" y2="2008.83" gradientTransform="matrix(-1, 0, 0, 1, 3323.01, 0)" xlink:href="#linear-gradient-9"/><linearGradient id="linear-gradient-40" x1="1270.73" y1="1539.52" x2="1320.66" y2="1924.27" xlink:href="#linear-gradient-37"/><linearGradient id="linear-gradient-41" x1="1061.19" y1="2343.22" x2="1298.11" y2="1986.86" gradientTransform="matrix(-1, 0, 0, 1, 3323.01, 0)" xlink:href="#linear-gradient-9"/><linearGradient id="linear-gradient-42" x1="1965.87" y1="1805.64" x2="2506.27" y2="1805.64" xlink:href="#linear-gradient"/><linearGradient id="linear-gradient-43" x1="1031.22" y1="1506.23" x2="1149.3" y2="1506.23" gradientTransform="matrix(-1, 0, 0, 1, 3323.01, 0)" xlink:href="#linear-gradient-2"/><linearGradient id="linear-gradient-44" x1="4080.13" y1="1673.09" x2="4077.98" y2="1846.04" gradientTransform="matrix(-0.98, -0.18, -0.18, 0.98, 6516.98, 568.31)" xlink:href="#linear-gradient-2"/><linearGradient id="linear-gradient-45" x1="1777.82" y1="1925.73" x2="2047.34" y2="1925.73" gradientTransform="translate(142.82)" xlink:href="#linear-gradient-23"/><linearGradient id="linear-gradient-46" x1="1605.46" y1="1755.71" x2="1782.16" y2="1931.01" gradientTransform="translate(142.82)" xlink:href="#linear-gradient-23"/><linearGradient id="linear-gradient-47" x1="1605.46" y1="1755.71" x2="1782.16" y2="1931.01" gradientTransform="translate(142.82)" xlink:href="#linear-gradient-23"/><linearGradient id="linear-gradient-48" x1="2128.74" y1="1855.67" x2="2124.79" y2="1899.44" gradientTransform="matrix(1, 0, 0, 1, 0, 0)" xlink:href="#linear-gradient-2"/><linearGradient id="linear-gradient-49" x1="2428.15" y1="1735.93" x2="2096.51" y2="2292.93" gradientTransform="matrix(1, 0, 0, 1, 0, 0)" xlink:href="#linear-gradient-37"/><linearGradient id="linear-gradient-50" x1="2511.66" y1="1643.01" x2="2049.81" y2="2418.73" gradientTransform="matrix(1, 0, 0, 1, 0, 0)" xlink:href="#linear-gradient-37"/><linearGradient id="linear-gradient-51" x1="1757.86" y1="1553.72" x2="1929.44" y2="1626.9" gradientTransform="matrix(-1.02, 0.14, 0.12, 0.87, 2435.87, -91.87)" xlink:href="#linear-gradient-22"/><linearGradient id="linear-gradient-52" x1="-1753.61" y1="2972.48" x2="-1662.31" y2="2972.48" gradientTransform="matrix(-1, 0.09, 0.09, 1, -1512.73, -122.16)" xlink:href="#linear-gradient-5"/><linearGradient id="linear-gradient-53" x1="-2192.71" y1="2874.64" x2="-2152.65" y2="2791.73" gradientTransform="matrix(-1, 0.07, 0.07, 1, -1938.61, -30.73)" xlink:href="#linear-gradient-2"/><linearGradient id="linear-gradient-54" x1="-2093" y1="3313.95" x2="-1995.99" y2="3313.95" gradientTransform="matrix(-0.98, 0.21, 0.21, 0.98, -1936.49, -125.74)" xlink:href="#linear-gradient-5"/><linearGradient id="linear-gradient-55" x1="-2295.12" y1="3112.38" x2="-2254.22" y2="3027.71" gradientTransform="matrix(-0.99, 0.15, 0.15, 0.99, -1966.45, -68.52)" xlink:href="#linear-gradient-2"/><linearGradient id="linear-gradient-56" x1="4299.23" y1="2276.31" x2="4040.5" y2="1693.08" gradientTransform="translate(-3380.04 3.9) rotate(3.06)" gradientUnits="userSpaceOnUse"><stop offset="0" stop-color="#ab316d"/><stop offset="1" stop-color="#792d3d"/></linearGradient><linearGradient id="linear-gradient-57" x1="4259.11" y1="2294.11" x2="4000.38" y2="1710.87" xlink:href="#linear-gradient-56"/><linearGradient id="linear-gradient-58" x1="3712.8" y1="2741.88" x2="3454.07" y2="2158.63" gradientTransform="translate(-3247.97 60.86) rotate(-3.98)" xlink:href="#linear-gradient-56"/><linearGradient id="linear-gradient-59" x1="4338.98" y1="1310.9" x2="4010.67" y2="1874.82" gradientTransform="matrix(0.99, 0.13, -0.13, 0.99, -3521, -325.92)" xlink:href="#linear-gradient-22"/><linearGradient id="linear-gradient-60" x1="4313.9" y1="1296.3" x2="3985.59" y2="1860.22" gradientTransform="matrix(0.99, 0.13, -0.13, 0.99, -3521, -325.92)" xlink:href="#linear-gradient-22"/><linearGradient id="linear-gradient-61" x1="4338.99" y1="1310.91" x2="4010.69" y2="1874.82" gradientTransform="matrix(0.99, 0.13, -0.13, 0.99, -3521, -325.92)" xlink:href="#linear-gradient-22"/><linearGradient id="linear-gradient-62" x1="3453.17" y1="1289.36" x2="3619.25" y2="1289.36" gradientTransform="translate(-3117.58)" xlink:href="#linear-gradient-2"/><linearGradient id="linear-gradient-63" x1="8083.61" y1="-334.96" x2="8080.11" y2="-53.36" gradientTransform="translate(-7589.77 2159.35) rotate(-4.32)" xlink:href="#linear-gradient-2"/><linearGradient id="linear-gradient-64" x1="-2931.32" y1="1268.89" x2="-2928.27" y2="1302.35" gradientTransform="matrix(-1, 0, 0, 1, -2460.64, 0)" xlink:href="#linear-gradient-2"/><linearGradient id="linear-gradient-65" x1="2525.64" y1="1936.6" x2="2479.15" y2="1804.87" gradientTransform="translate(-1927.23)" xlink:href="#linear-gradient-23"/><linearGradient id="linear-gradient-66" x1="2322.53" y1="1745.74" x2="2339.58" y2="1863.53" gradientTransform="translate(-1927.23)" xlink:href="#linear-gradient-23"/><linearGradient id="linear-gradient-67" x1="394.5" y1="1764.23" x2="490.85" y2="1764.23" gradientTransform="matrix(1, 0, 0, 1, 0, 0)" xlink:href="#linear-gradient-2"/><linearGradient id="linear-gradient-68" x1="2660.33" y1="1756.06" x2="2569.68" y2="1627.34" gradientTransform="translate(-1927.23)" xlink:href="#linear-gradient-23"/><linearGradient id="linear-gradient-69" x1="2486.45" y1="1969.08" x2="2684.83" y2="1566.13" gradientTransform="translate(-1927.23)" xlink:href="#linear-gradient-23"/><linearGradient id="linear-gradient-70" x1="2389.55" y1="1710.46" x2="2825.35" y2="1710.46" gradientTransform="translate(-1927.23)" xlink:href="#linear-gradient-37"/><linearGradient id="linear-gradient-71" x1="849.22" y1="1810.18" x2="904.89" y2="1810.18" gradientTransform="matrix(1, 0, 0, 1, 0, 0)" xlink:href="#linear-gradient-2"/><linearGradient id="linear-gradient-72" x1="-524.02" y1="1107.05" x2="-841.42" y2="2628.82" gradientTransform="translate(881.64)" xlink:href="#linear-gradient-22"/></defs><g class="cls-2"><g id="Camada_2" data-name="Camada 2"><g id="Illustration"><path class="cls-3" d="M2774.29,1196C2698,696.42,2385.07,82.7,1766.89,18.48c0,0-469.35-57.09-932,29.43C560.26,99.26,319.48,252.13,167.12,471.83s-203.25,487.61-141.49,743c40.12,165.89,67.23,337.58,59.79,508-13,296.68-5.5,573.6,282.41,750.53,257.08,158,580.61,297.31,889.27,321.71,209.76,16.59,445-10.25,647.16-64.86C2934.56,2452,2850.61,1695.51,2774.29,1196Z"/><path class="cls-4" d="M2258.14,678.19c0-45.8-29.71-84.73-69-94.54-1.4-.36-3-.67-4.39-.94a80.18,80.18,0,0,0-13.22-1.42l-841.18-20.77L470.51,539.29c-1.84,0-3.68,0-5.5,0a104.28,104.28,0,0,0-61.85,22.13l-.94.73c-2.45,2-4.82,4-7.08,6.22l-.16.15c-1.34,1.29-2.63,2.63-3.9,4a102.89,102.89,0,0,0-27.49,70.35v76.19h0V1914.73a102.83,102.83,0,0,0,3.38,26.34,98.6,98.6,0,0,0,81.8,72.58,107,107,0,0,0,21.72.91l1303.71-77.78h0l397.55-23.7c47.67-2.84,86.39-47.58,86.39-99.92v-1067h0Z"/><path class="cls-5" d="M2197.32,581.16l-1699.81-42c-58.83-1.45-106.82,44.9-106.82,103.54V1914.14c0,58.63,48,103.31,106.82,99.79l1699.81-101.42c47.65-2.84,86.06-47.55,86.06-99.88V678C2283.38,625.71,2245,582.34,2197.32,581.16Z"/><path class="cls-6" d="M497.51,1980.24c-39.94,2.31-72.57-28.17-72.57-67.94V643.35a70.52,70.52,0,0,1,72.57-70.48l1699.81,38.71c32.41.74,58.68,30.32,58.68,65.94V1814.1c0,35.62-26.27,66.12-58.68,68Z"/><path class="cls-4" d="M2197.32,581.16l-1699.81-42c-58.83-1.45-106.82,44.9-106.82,103.54v76.16L2283.38,746V678C2283.38,625.71,2245,582.34,2197.32,581.16Z"/><path class="cls-5" d="M580.34,636.07a33.71,33.71,0,0,1-34.49,33.78,35.31,35.31,0,0,1-34.62-35.11A33.71,33.71,0,0,1,545.85,601,35.33,35.33,0,0,1,580.34,636.07Z"/><path class="cls-5" d="M700.39,638.38a33.36,33.36,0,0,1-34,33.55,34.94,34.94,0,0,1-34.15-34.86,33.36,33.36,0,0,1,34.15-33.55A35,35,0,0,1,700.39,638.38Z"/><path class="cls-5" d="M818.8,640.66A33,33,0,0,1,785.25,674a34.6,34.6,0,0,1-33.68-34.62,33,33,0,0,1,33.68-33.32C803.8,606.44,818.8,621.94,818.8,640.66Z"/><polygon class="cls-7" points="2182.91 1818.47 515.16 1907.97 515.16 910.92 2182.91 916.66 2182.91 1818.47"/><polygon class="cls-4" points="1425.39 816.18 515.16 807.67 515.16 861.53 1425.39 867.23 1425.39 816.18"/><polygon class="cls-4" points="2090.58 822.4 2090.58 871.4 2182.91 871.98 2182.91 823.26 2090.58 822.4"/><g class="cls-8"><path class="cls-5" d="M1548.92,1224.75c-197.85-286.33-543.67-188.14-764.67-508.53-40-58-67.24-117.32-85.91-172.09l-200.83-5c-58.83-1.45-106.82,44.9-106.82,103.54V1914.14c0,58.63,48,103.31,106.82,99.8l1302.83-77.74a1042.63,1042.63,0,0,1-103-183.37C1582.67,1489.87,1667.61,1396.52,1548.92,1224.75Z"/></g><g class="cls-9"><path class="cls-10" d="M2413.66,1032.78s18.71-23.18,53.81-24.64,82.78-23.31,103.25-25.4c4.94-.5,7.39-2,7.81-3.85.86-3.82-21.87-9.17-42-9.65-35.79-.87-56.68,13.46-61.51,6.25-5.4-8.07,17.72-30.45,13.49-35.37-3.28-3.82-19,8.68-35.84,16.38-12,5.47-58.76,63.41-58.76,63.41Z"/><path class="cls-11" d="M2439.2,1023.64c-2.87,139.13-70.32,265.51-178.33,327.73q-6.7,3.87-13.65,7.42c-197.35,100.76-395.1-69.74-418.9-90.94-6.16-5.47-35.61-32.43-66.33-77.16-34.62-50.32-70.82-123.19-77.07-213.09-2.54-36.79-10.31-149,47.85-183,59.87-35,155.15,32.89,193.86,60.46,163.69,116.63,167.62,259.8,257.65,274.34,40.33,6.51,104.43-11.79,200.71-142.2Z"/><path class="cls-12" d="M2260.87,1351.37q-6.7,3.87-13.65,7.42c-197.35,100.76-395.1-69.74-418.9-90.94-6.16-5.47-35.61-32.43-66.33-77.16,9.55-43.25,22.54-100.56,22.54-100.56s84.69-10.52,124.87,89.85c14.51,36.27,32,71.6,61.72,97,29.94,25.71,53.1,21.79,90.84,15.91,34.72-5.39,71,21.08,101.09,33.84C2194.18,1340,2226.48,1353.58,2260.87,1351.37Z"/><path class="cls-13" d="M1341.93,2967.16c-6.88,6.4-7.32,21.71-7.6,31.72-.13,4.47-.19,6.7.38,8.26,4.17,11.33,25.69,11.66,59.55,13.85,53.53,3.46,69.62,7.16,73.3-1.22,3.45-7.86-6.73-20.08-7.88-21.42-6.16-7.24-13.34-9.67-27.17-13.74-25.61-7.54-42.84-11.53-48-12.74C1351.9,2964.32,1346.45,2963,1341.93,2967.16Z"/><path class="cls-14" d="M1379.45,2912.7l2.08,63.15c-1.66,2.91-20.15,10.6-34,1.7l-10.49-62.7Z"/><path class="cls-15" d="M1793.68,2968.33c-9.25,9.28-12.19,27.46-5.06,37.07,7,9.46,18.57,3.67,50.36,7.11,34.07,3.69,42.55,12.7,66.09,7.89,9.52-1.94,26.41-7.15,26.46-14.08,0-4.87-8.27-8-35.92-19.93-39.23-16.89-39-17.63-47.42-19.73C1827.08,2961.38,1805.89,2956.08,1793.68,2968.33Z"/><path class="cls-16" d="M1818.5,2912.61l14.07,60c-1.46,3-19.39,12.22-34,4.41l-22.45-58.94Z"/><path class="cls-17" d="M1733.1,1615.39a5718.35,5718.35,0,0,0,101,1315.58l-66.41,13.14c-52.56-57.51-118-146.65-145.47-267.61-17.06-75.05-8.16-112.29-16.72-203.66-13.64-145.47-52.41-224-90.49-343.16-34.21-107.07-73.09-263.31-87.61-469.47Z"/><path class="cls-18" d="M1702.56,2538.38c-24.34-100.13-71.2-127.34-72.87-221.42-1.18-66.54,21.93-71.58,20.4-135.29-2.33-96.63-57-148.15-84.47-209.32-29-64.57-40.1-167.73,38-338l-176.3,25.84c14.52,206.15,53.4,362.4,87.61,469.46,38.08,119.2,76.85,197.7,90.49,343.17,8.56,91.37-.34,128.61,16.72,203.66,27.51,121,92.91,210.1,145.47,267.61l16.89-3.34c-56.83-71.34-76.88-134.37-82-185.28C1694.27,2672.69,1727.11,2639.37,1702.56,2538.38Z"/><path class="cls-19" d="M1512.37,1600.11q-39.36,374.54-72,763.21-24.42,291.55-43.59,575.88l-66.94,3.37a839.08,839.08,0,0,1-59.75-190.5c-18.58-100-10.1-157.86-15.22-260.39-5.75-115-21.36-141.1-43.85-287.23-45.64-296.45-68.46-444.62,3.92-530.77C1238.4,1645.69,1311.19,1576.4,1512.37,1600.11Z"/><path class="cls-20" d="M935.53,817.61c120-41.25,303.37-86.65,528.26-75.29,130.57,6.6,256.17,21.88,345.33,48.44,12.06,69.83,11,148.51,23.06,218.37a2574.78,2574.78,0,0,1-3.93,276.58c-7.61,111.83-15,113.43-32.47,271.19-28.39,257.13-16.52,324.58-66.58,354.75-32.54,19.62-44.31-4.84-210.15-24.36-111-13.06-167.6-19.21-223.72-.37-76.35,25.63-101.88,70.2-133.35,55.08-30.16-14.49-34-68.58-37.64-162.82-5.62-145.38-5.27-244.13-5.79-279.49-2.38-162.22-41.94-286.48-92.58-445.55A2212.42,2212.42,0,0,0,935.53,817.61Z"/><path class="cls-21" d="M1448.88,581.19a493.23,493.23,0,0,1-13.15,94.87c-6.08,25.11-9.86,31.46-14.51,36.5-7,7.61-17.36,13.7-74.57,24.64-31.12,5.94-35.05,5.48-35.9,8.59-4.1,15.19,77,73,164.23,65.86,53.46-4.38,103.39-32.65,101.27-49.3s-55.62-11.21-69.88-42.17c-9.91-21.52,3.93-50.33,19.76-73.92C1513.44,618,1461.56,609.41,1448.88,581.19Z"/><path class="cls-22" d="M1548.62,623.92c17.23-12.38,27.29-40.76,19.47-63.48-6.72-19.54-24.56-28-35.23-33.09-30.93-14.69-76-14.43-100.17,11.55-14.29,15.39-8.52,59.32-7.91,67.08.71,8.78,5.66,13.38,9.15,21,4.83,10.58,12.32,27.35,24.39,55.25A148,148,0,0,1,1473,662c2.44-2.8,12.14-13.7,24-21.47C1520.65,625,1532.28,635.65,1548.62,623.92Z"/><path class="cls-23" d="M1437,655s9.41,43.16,52.45,54.56c38.55,10.2,72.67-75.75,54.64-102.51-6-8.93-21.28-16.94-35.61-17.55-8.46-.36-12.16,2.09-26,1.23-12.74-.8-15.6-3.26-20.14-1.37-5.68,2.38-12,10.75-13,38.9-4.73-10-12.42-15.81-19.51-14.87a13.55,13.55,0,0,0-6.67,3.38C1414.71,625,1419.36,640.8,1437,655Z"/><path class="cls-24" d="M1046.21,1498.91l39.75-1.8s43.58-37.3,63.42-34.69,49.54,17.27,53.17,20.31-10.87,19.66-25.36,17.84-46.79,5.88-52.57,19-30.84,20.83-35.1,13l-53.43,10.32Z"/><path class="cls-25" d="M1058.24,1484.62c2.78,33.89-4.32,56.79-16.17,72.4-52.51,69.17-230.68,38.24-336.39-56.57-78.16-70.1-119.51-177.87-118-274,3-187.53,170.08-369.86,419.3-431.38l110.92,345.29c-154,.84-247.34,120.25-233.5,206.34C894.73,1410.88,966.62,1469.38,1058.24,1484.62Z"/><path class="cls-26" d="M1664.66,1826.18c-81.59-37.2-81.12-111.71-157.25-143.86-108.5-45.82-228.21,55.45-246.89,26.66C1241.1,1679,1384,1589.9,1365,1499.81c-15.11-71.57-114.87-60.15-168.24-158.43-50.6-93.17-1.54-178.24-46.35-210.89-16.06-11.7-44.39-16.54-98.06,7.42,37.42,121.75,64.27,229.08,66.21,361.78.52,35.36.17,134.11,5.79,279.49,3.64,94.24,7.48,148.33,37.64,162.82,31.47,15.12,57-29.45,133.35-55.08,56.12-18.84,112.71-12.69,223.72.37,165.84,19.52,177.61,44,210.15,24.36,21.2-12.77,31.28-32.32,38-70.06C1733.92,1844.81,1698.6,1841.66,1664.66,1826.18Z"/></g><path class="cls-5" d="M1190.25,1726.28c0,36.58-29.91,67.66-67,69.43-37.22,1.78-67.52-26.67-67.52-63.55s30.3-68,67.52-69.45C1160.34,1661.24,1190.25,1689.7,1190.25,1726.28Z"/><path class="cls-5" d="M1457.45,1714.6c0,36-28.94,66.52-64.78,68.24-36,1.72-65.3-26.28-65.3-62.55s29.3-66.84,65.3-68.27C1428.51,1650.6,1457.45,1678.62,1457.45,1714.6Z"/><path class="cls-5" d="M1716,1703.29c0,35.4-28,65.43-62.69,67.09-34.84,1.66-63.2-25.91-63.2-61.58s28.36-65.73,63.2-67.11C1688,1640.31,1716,1667.9,1716,1703.29Z"/><path class="cls-27" d="M2016.23,107.53c-79.57,0-153.19,19.37-213.17,52.24-92.15,50.48-152.14,132.86-152.14,225.89,0,52.83,19.32,102.21,52.92,144.28l-35.24,93.69a12.16,12.16,0,0,0,9.06,16.19h0l.27,0a11.11,11.11,0,0,0,1.64.16c3.62.33,11.56.87,16.59,0-.45-.82-.92-1.67-1.4-2.51,33.12-6.14,83.45-15.38,117.33-21.16,58.27,30,128.52,47.46,204.15,47.46,110.89,0,210.26-37.62,277.26-97,54.88-48.64,88.05-111.91,88.05-181.1C2381.54,232.05,2218,107.53,2016.23,107.53Z"/><path class="cls-28" d="M2396.78,385.66c0,69.19-33.16,132.46-88,181.1-67,59.42-166.37,97-277.27,97-75.63,0-145.88-17.49-204.14-47.46-38.53,6.57-98.34,17.62-129.9,23.5a12.14,12.14,0,0,1-13.58-16.21l35.24-93.69c-33.6-42.07-52.93-91.45-52.93-144.28,0-93,60-175.41,152.15-225.89,60-32.87,133.6-52.24,213.16-52.24C2233.22,107.53,2396.78,232.05,2396.78,385.66Z"/><path class="cls-29" d="M2308.74,566.76c-67,59.42-166.37,97-277.27,97-75.63,0-145.88-17.49-204.14-47.46-38.53,6.57-98.34,17.62-129.9,23.5a12.14,12.14,0,0,1-13.58-16.21l35.24-93.69c-33.6-42.07-52.93-91.45-52.93-144.28,0-93,60-175.41,152.15-225.89,48.19,6.55,90,23.3,115.44,56.93,55.89,74.05-7.16,177.92,51.19,230.48,57.93,52.13,150.53-22.6,234.75,12.8C2251.34,473.27,2283.84,503,2308.74,566.76Z"/><polygon class="cls-5" points="2023.4 251.03 1781.75 324.69 2023.4 398.34 2265.06 324.69 2023.4 251.03"/><path class="cls-5" d="M2023.4,424.59l-152.09-46.36v105.9a36.82,36.82,0,0,0,29.16,36c81.68,17.32,160.22,17.86,235.42.57a36.74,36.74,0,0,0,28.4-35.85V381.64Z"/><path class="cls-5" d="M1837.72,468.1q-19.82,8.81-34.66.37a7.75,7.75,0,0,1-3.68-8.29l21.51-106.94,21.34,106.13A7.86,7.86,0,0,1,1837.72,468.1Z"/><polygon class="cls-5" points="2023.4 313.77 1817.76 335.63 1817.76 371.3 1823.85 371.3 1824.48 340.03 2023.4 313.77"/><path class="cls-30" d="M1224.27,2592.9c-30.89,19.69-74.28,39.74-127.72,43.36-57.83,3.92-147.52-10-159.11-52.74-4.32-15.94,1.91-37.1,15.1-45.49,19.49-12.4,40.9,11.51,93.75,15.18,9.77.68,60.28,4.18,68.69-16.2,4.18-10.13-2.89-24.12-11.19-32.55-24.25-24.66-60.84-3.63-115.33-9-55.25-5.45-122-37.35-133.19-84.49-6.46-27.09,5-61,23.91-68.17,8.09-3.07,16.38-.83,69.32,27.45,43.45,23.21,55,30.84,68.17,26.18,13.59-4.79,27.33-22,25.65-37.71-4.36-40.86-108.6-27.34-174.64-101-29.59-33-59.51-92.5-36-127.82,15.87-23.87,55.36-35.53,81.43-24.11,23.51,10.28,21.47,32.91,59.4,67.25,11.51,10.42,35.2,31.86,46.27,25.56,13-7.39,2.12-49.32-.7-59.4-21.17-75.95-70.32-86.12-70.06-130.94.2-35,30.32-71.68,68-82.52,32.94-9.49,72.61.56,93.91,25.93,21.67,25.82,19.26,69.62,14.46,157.22-2.28,41.54-6.39,71.55,13.61,96,9.75,11.93,27.68,25.54,37.67,20.47,22.06-11.18-27.44-96.63,9.48-143.48,18.9-24,57.36-33.93,86.27-22.41,35.42,14.13,52.71,59,47.55,93.35-6.74,44.83-47.77,45.6-75.87,109.51-12.47,28.35-27,79.6-6,97.07,9.13,7.6,25.64,9.34,37.18,2.52,25.86-15.28,4.26-60.25,29.59-106.32,18.26-33.19,57.42-60.66,78.22-51.94,29.38,12.31,21.6,96.48,14.08,136.75C1387,2389.09,1356.26,2491.6,1224.27,2592.9Z"/><g class="cls-31"><path class="cls-5" d="M1226.51,2571.7c-53.33-62.61-110.67-228.67-126.71-315.49-15.63-84.59-59.6-204-60-205.2l5.78-2.14c.45,1.2,44.6,121.1,60.33,206.22,15.92,86.16,72.66,250.77,125.34,312.61Z"/></g><path class="cls-32" d="M2357,2262c30.88,19.69,74.28,39.74,127.72,43.36,57.82,3.92,147.52-10,159.1-52.74,4.33-15.94-1.91-37.1-15.1-45.49-19.48-12.4-40.89,11.51-93.75,15.18-9.77.68-60.27,4.18-68.68-16.2-4.18-10.13,2.89-24.12,11.18-32.55,24.26-24.66,60.85-3.63,115.34-9,55.25-5.44,122-37.35,133.19-84.49,6.45-27.09-5-61-23.92-68.17-8.08-3.07-16.37-.83-69.31,27.45-43.45,23.21-55,30.84-68.18,26.18-13.58-4.79-27.32-22-25.65-37.71,4.37-40.86,108.61-27.34,174.64-101,29.59-33,59.52-92.5,36-127.82-15.87-23.87-55.36-35.52-81.44-24.11-23.5,10.28-21.47,32.91-59.4,67.25-11.51,10.42-35.19,31.86-46.26,25.56-13-7.39-2.12-49.32.69-59.4,21.18-76,70.32-86.12,70.07-130.94-.2-34.95-30.33-71.68-68-82.52-32.94-9.49-72.61.56-93.91,25.93-21.67,25.82-19.27,69.62-14.46,157.22,2.28,41.54,6.39,71.55-13.61,96-9.76,11.93-27.68,25.54-37.67,20.47-22.06-11.18,27.44-96.63-9.48-143.48-18.9-24-57.36-33.93-86.27-22.41-35.42,14.13-52.71,59-47.55,93.35,6.74,44.83,47.76,45.6,75.87,109.51,12.47,28.35,27,79.6,6,97.07-9.14,7.61-25.65,9.34-37.19,2.52-25.85-15.28-4.25-60.25-29.59-106.32-18.25-33.19-57.41-60.66-78.22-51.94-29.38,12.31-21.59,96.48-14.07,136.75C2194.3,2058.2,2225,2160.71,2357,2262Z"/><g class="cls-31"><path class="cls-5" d="M2354.78,2240.81c53.34-62.61,110.67-228.67,126.71-315.49,15.63-84.59,59.61-204,60.05-205.2l-5.79-2.14c-.44,1.2-44.6,121.1-60.32,206.22-15.92,86.16-72.66,250.77-125.34,312.61Z"/></g><path class="cls-33" d="M1755,2691.1l-526.1-14.67c-60-2.74-107.78-77.88-107.78-167.55v-1c0-89.68,47.77-163.61,107.78-164.83l562.92-19Z"/><path class="cls-34" d="M2686,2647l-873.72,34.45c-81.74,3.22-148.84-56.51-148.84-133.45v-52.2c0-76.94,67.1-140.1,148.84-141.05L2686,2344.64Z"/><path class="cls-35" d="M2694.49,2662.82l-924.12,37.81c-71.43,2.92-130.18-76.46-130.18-177v-1.11c0-100.53,58.75-182.92,130.18-183.65l924.12-9.44c5.85-.06,10.59,7.1,10.59,16s-4.74,16.16-10.59,16.24l-924.12,12.19c-57.51.76-104.71,67.16-104.71,148V2523c0,80.86,47.2,144.85,104.71,142.67l924.12-35.07c5.85-.22,10.59,6.8,10.59,15.69S2700.34,2662.58,2694.49,2662.82Z"/><path class="cls-36" d="M1723.41,2330.07l-500.82,11.28c-46,1-82.73-35.4-82.73-81.38v-31.18c0-46,36.7-85.54,82.73-88.41l500.82-31.26Z"/><path class="cls-37" d="M1652.93,2340.08l-424.06,11.86c-60,1.23-107.78-46.38-107.78-106.11v-.65c0-59.72,47.77-111.39,107.78-115.25l424.06-33.17c7.44-.47,93.71,5.11,93.71,11.65s-80.58,11.48-88,11.92l-429.81,31.06c-48.48,2.92-87.24,44.58-87.24,92.92v.65c0,48.34,38.76,86.72,87.24,85.52l424.06-13.92c7.39-.19,93.71,6.45,93.71,13S1660.37,2339.92,1652.93,2340.08Z"/><polygon class="cls-38" points="2686.03 2318.78 1663.47 2328.23 1663.47 2107.89 2686.03 2117.39 2686.03 2318.78"/><path class="cls-39" d="M2694.49,2128.87l-1041.56-8.58c-7-.06-12.74-5.38-12.74-11.88s5.71-11.72,12.74-11.65l1041.56,10.65a10.79,10.79,0,0,1,10.59,10.83A10.55,10.55,0,0,1,2694.49,2128.87Z"/><path class="cls-40" d="M2694.49,2329.44l-1041.56,10.64c-7,.08-12.74-5.14-12.74-11.64s5.71-11.82,12.74-11.88L2694.49,2308a10.55,10.55,0,0,1,10.59,10.64A10.79,10.79,0,0,1,2694.49,2329.44Z"/><path class="cls-41" d="M1614,2650.3l-111.83-6.38c-27-77-25-151.33,0-241.71l111.83.34C1591.55,2494.82,1595,2576.42,1614,2650.3Z"/><path class="cls-42" d="M1382.17,2350.21l-3.56-139.48L1250.24,2352s-69.36,37.39-57.45,103l79.36-31.57,70.48,24.42S1344.4,2379,1382.17,2350.21Z"/><path class="cls-43" d="M1235.81,2219.46l142.8-8.73s-67.16,51-36,237.2c0,0-61-19.39-87.6-52.59l-62.24,59.74S1154.79,2289.55,1235.81,2219.46Z"/><path class="cls-44" d="M1991.61,2477.81c-2.93-.2,2.94,11.74-11.75,26.43s-29.37,29.37-32.31,47,17.63,14.69,32.31,5.88,32.31-29.37,41.12-44.06S2035.67,2480.74,1991.61,2477.81Z"/><path class="cls-45" d="M1747.84,2122.43s55.8,258.45,249.64,364.19c0,0,5.88,8.81,20.56,0,0,0-2.93-99.86-38.18-158.6s-35.24-105.74-17.62-149.79S1747.84,2122.43,1747.84,2122.43Z"/><path class="cls-46" d="M2056.22,2489.55s11.75,8.82,8.81,23.5-38.18,38.18-64.61,49.93-44.05-8.81-32.31-17.62a74.26,74.26,0,0,1,6.79-4.64,49.32,49.32,0,0,0,13.41-11.64l29.73-36.59Z"/><path class="cls-47" d="M1918.18,2098.93s-47,73.42-26.43,161.54S2018,2498.37,2018,2498.37s19.09,8.81,36-5.88c0,0,11-23.5,16.89-70.49s-8.81-49.93-26.43-102.79,5.87-146.86,5.87-146.86Z"/><path class="cls-48" d="M2144.34,1532.08c-97,40.71-154.47,96.52-185,132.17-33.73,39.34-67.87,80.36-58.74,129.23,5.62,30.1,26.57,57.33,52.87,70.49,59.64,29.84,147.39-12.43,179.16-70.49,9.25-16.91,11.33-30.72,11.75-173.29C2144.44,1584.66,2144.4,1554.55,2144.34,1532.08Z"/><path class="cls-49" d="M2370.49,1535c-9.49-23.2-70.57-20.61-141-17.62-62.5,2.65-75,13.34-79.3,17.62-35.55,34.94-22.87,125.25,17.62,146.85C2233.77,1717,2388,1577.79,2370.49,1535Z"/><path class="cls-50" d="M2408.67,2004.94c-6.6,45.53-23.94,70.54-41.12,85.18-43.76,37.28-87.9,8.52-182.1,44.05-29.3,11.06-86.88,32.78-94,73.43-3.9,22.33,9.91,37.26,0,49.93-13.49,17.23-53.86,11.76-82.24,0-56.43-23.4-58.7-68.92-94-70.49s-42.49,43.63-85.18,44.06c-31.17.3-38.85-23.68-82.23-26.44-32.15-2-39.71,10.39-52.87,2.94-30-17-20.09-98.34,0-152.73,8.75-23.69,25.83-69.9,70.49-105.73,57.6-46.21,104.44-29.69,199.72-64.61A507.67,507.67,0,0,0,2094.41,1814c25.25-.76,189-3.2,276.08,114.54A251.49,251.49,0,0,1,2408.67,2004.94Z"/><path class="cls-51" d="M2022.45,1768.51c4.94-14.15,26.41-75.68,5.87-91-11.85-8.87-41-4.76-119.1,57.07,11.39-24.75,30.79-47.8,50.08-70.29,30.57-35.65,88.06-91.46,185-132.17.06,22.47.1,52.58,0,88.11-.42,142.57-2.5,156.38-11.75,173.29-30.84,56.35-114.39,97.81-173.81,72.93C1981.45,1844.56,2007.11,1812.48,2022.45,1768.51Z"/><path class="cls-52" d="M1915.25,2113.61c57.42-5.56,96.84,46.95,138,26.44,38.15-19,15.83-69.75,52.86-129.23,55.51-89.16,165.91-72,205.79-138.6a247,247,0,0,1,58.55,56.36,251.49,251.49,0,0,1,38.18,76.36c-6.6,45.53-23.94,70.54-41.12,85.18-43.76,37.28-87.9,8.52-182.1,44.05-29.3,11.06-86.88,32.78-94,73.43-3.9,22.33,9.91,37.26,0,49.93-13.49,17.23-53.86,11.76-82.24,0-56.43-23.4-58.7-68.92-94-70.49s-42.49,43.63-85.18,44.06c-14.83.14-24.34-5.21-34.91-11.16C1839.35,2140.86,1881.15,2116.92,1915.25,2113.61Z"/><path class="cls-53" d="M2438,1852.22c6.94,61.62-.32,79.67,17.62,105.73,20.35,29.56,45.26,29,49.93,52.87,5.16,26.42-20,54.28-38.18,67.55-44.82,32.72-105.21,14.87-146.85,2.94-36.25-10.39-141.11-40.44-164.48-117.48-13.29-43.84,4.89-86.08-8.81-91-8.64-3.14-17.05,13.25-55.8,44-33.38,26.54-47.82,8.54-59.57,11.3-13.34,3.13-38.23,8.21-52.51-2.4-14.77-11-15.52-11.2-11.28-29.46,9.24-39.77,69.1-29.61,102.8-76.36,9.08-12.6,12.91-53.43,20.56-135.1,3.37-36,5.39-68.7,20.56-111.61a346.94,346.94,0,0,1,14.68-35.24l44.06-14.69a291.5,291.5,0,0,0-5.88,73.43c.79,16.59,3.86,81.25,23.5,85.17,7,1.4,16-4.91,67.55-85.17,35.85-55.81,46.9-79.41,70.49-82.24,10.2-1.22,22.46,3.1,47,11.75a348.37,348.37,0,0,1,47,20.56c-18.11,14-42.35,37.65-47,70.49-5.17,36.58,18.7,51.27,41.12,120.42C2430.45,1786.74,2435.89,1833.18,2438,1852.22Z"/><path class="cls-54" d="M2408.67,2078.37c-24.1-13.6-19.54-37.7-44.06-52.87-36.63-22.65-70,16.82-111.6,0-52.88-21.34-60.71-109.81-61.68-123.35-1.84-25.55-5.59-77.87,26.43-105.73,40.41-35.16,102.42-.6,123.36-32.31,11.86-18-6-32.21-2.94-76.36,2.2-32,15.6-82.88,44.62-98.68a84.91,84.91,0,0,0-9.38,28.19c-5.17,36.58,18.7,51.27,41.12,120.42,15.91,49.06,21.35,95.5,23.5,114.54,6.94,61.62-.32,79.67,17.62,105.73,20.35,29.56,45.26,29,49.93,52.87,5.16,26.42-20,54.28-38.18,67.55-1.4,1-2.82,2-4.25,2.92C2444.14,2086.52,2424.72,2087.43,2408.67,2078.37Z"/><path class="cls-55" d="M2195.22,1481.64c27.53,9.81,23.87,25.19,49.18,34.2,21.26,7.56,53.74,7.38,69.09-11.6,14.21-17.56,8.61-44.85,8-47.78-4-18.16-13.64-22.63-11-33.61,3.68-15.42,24.55-14.21,28.69-29.16,3.84-13.88-8.76-34.46-24.48-39.46-16.94-5.39-26.62,10.77-47.08,5.15-12.62-3.46-11.51-10.32-25.76-14.4-20.23-5.79-38.17,3.53-40.52,4.8-4.34,2.34-18.36,9.9-23.65,25s2.61,24.56-3.63,30.44c-7.16,6.74-19-4.37-32.79,1.76-11.56,5.15-19.39,20.19-17.92,33.85,1.65,15.32,14.51,24.16,19.91,27.87C2161.41,1481.15,2172.32,1473.49,2195.22,1481.64Z"/><path class="cls-56" d="M2203.08,1470.41c2.93,2.93,14.68,26.43,32.3,41.11,9.31,7.76,44.06,11.75,52.87,11.75s2.94,8.81-38.18,14.69-67.55,5.87-76.36-2.94c0,0,29.37-5.87,20.55-26.43S2203.08,1470.41,2203.08,1470.41Z"/><path class="cls-57" d="M2209.94,1488.16s-8.65,17.23-27.27,13.73c-16.68-3.13-14-45.3-2.31-52,3.91-2.23,11.66-2.81,17.3-.47,4,1.65,15.52,12,12.23,26.24,3.79-1.81,7.46-1.35,8.66.48,1.52,2.31-1.28,6.26-1.92,7.16A13.44,13.44,0,0,1,2209.94,1488.16Z"/><path class="cls-58" d="M1927.24,1905.7l246.59,12a10.33,10.33,0,0,1,8.28,4.86l6.83,11a8,8,0,0,1-7.11,12.23l-261.19-10Z"/><path class="cls-59" d="M1670.76,1768.38l254.76,4.94a21.34,21.34,0,0,1,18.16,10.8l88.22,155.21-269.05-10.72a21.9,21.9,0,0,1-17.92-10.63l-81.73-136.55A8.62,8.62,0,0,1,1670.76,1768.38Z"/><path class="cls-60" d="M1943.69,1784.12a21.37,21.37,0,0,0-18.17-10.8l-5.58-.11c-.84,8.22-3.36,15.74-8.39,21.82-15.71,19-41.81,7.26-61.26,27.33-21.37,22-1.63,48.28-20.73,68.8-20.11,21.59-52.63,4-90,17.83l5.38,9a21.9,21.9,0,0,0,17.92,10.63l269.05,10.72Z"/><path class="cls-61" d="M2165.82,1894.54s-35.11-29.29-48.79-22.32-44.07,41.32-30.39,42.08,24.46-16.57,30.54-11.86,18.85,5.75,28.73,3.26,14.13,2.82,14.13,2.82Z"/><path class="cls-62" d="M2522.66,1895.39c-58.69,82.36-148.81,97.42-166.1,99.94-3,.44-5.91.8-8.8,1.09a215.37,215.37,0,0,1-43.29.4l-6.31-.65a212.93,212.93,0,0,1-51.58-12.84c-5.1-1.9-10-4-14.73-6.2-.11-.08-.26-.11-.37-.19-45.81-21.3-75.61-53.1-86.81-65.65a5.78,5.78,0,0,1,.62-8.32c6.06-5.07,7.23-7.8,15.18-13.75a5.43,5.43,0,0,1,3.13-1.13c50.16-2.59,118.07-15.35,178.62-60.29,24.88-18.42,60.11-44.57,58.69-78-.47-11.13-5-21.67-12.4-32.54s-17.91-22-30.31-34.39c0,0-68.8-89.07-2.92-129.82,18.27-11.3,36.91-13.24,54-10.5a108.23,108.23,0,0,1,20.39,5.51c1.31.54,2.63,1.13,3.9,1.71,2.63,1.17,5.26,2.45,7.92,3.76,1.31.66,2.63,1.31,4,2,2.55,1.39,5.14,2.81,7.73,4.31a2.39,2.39,0,0,1,.43.25c1.28.77,2.56,1.53,3.84,2.33s2.69,1.68,4,2.56c14.08,9.74,20.83,17.36,15.21,10.83,1.61,1.24,3.18,2.48,4.71,3.76s3.1,2.59,4.63,3.9,3.06,2.66,4.56,4,3,2.74,4.45,4.16c2.92,2.81,5.8,5.72,8.61,8.72s5.58,6,8.21,9.19,5.21,6.38,7.73,9.7c1.24,1.64,2.48,3.32,3.68,5s2.41,3.39,3.58,5.1,2.3,3.43,3.42,5.15a.23.23,0,0,1,.08.14c1.06,1.61,2,3.25,3.06,4.89a8.93,8.93,0,0,1,.48.77c1,1.64,2,3.31,2.91,5s2,3.54,3,5.36q5,9.3,9.19,19.15c1,2.3,1.93,4.63,2.81,7,.51,1.21.94,2.41,1.38,3.61.77,2,1.5,4.09,2.19,6.13,1.35,4,2.59,8.1,3.72,12.22.33,1.17.66,2.34,1,3.54.44,1.6.84,3.25,1.2,4.89a.45.45,0,0,1,.08.22q.77,3.23,1.42,6.45a4.45,4.45,0,0,1,.14.69c.41,2,.77,4,1.13,6.06.08.33.11.66.19,1,.25,1.57.51,3.1.69,4.67.22,1.28.4,2.56.55,3.83.29,2.15.54,4.38.76,6.57.44,4.41.77,8.86.95,13.31C2570,1819.48,2539.88,1871.28,2522.66,1895.39Z"/><path class="cls-63" d="M2522.66,1895.39c-58.69,82.36-148.81,97.42-166.1,99.94-3,.44-5.91.8-8.8,1.09a218.36,218.36,0,0,1-43.29.4l-6.31-.65a219.12,219.12,0,0,1-51.58-12.84q-7.6-2.91-14.73-6.2c-.11-.08-.26-.11-.37-.19,58.25,9.12,91.81-3,112.38-18.67,25-19.08,22.07-36.66,59.27-71.53,56.29-52.67,97.72-45.08,105.09-75.76,8.46-35.3-45.23-50.88-61.42-120.91-11.46-49.46,9.33-67.7-.12-100.23-4.37-15-14.77-31.52-37.42-47.31a108.23,108.23,0,0,1,20.39,5.51c1.31.54,2.59,1.09,3.9,1.71,2.63,1.17,5.26,2.45,7.92,3.76,1.31.66,2.63,1.31,4,2,2.55,1.39,5.14,2.81,7.73,4.31a2.39,2.39,0,0,1,.43.25c1.28.77,2.56,1.53,3.84,2.33s2.69,1.68,4,2.56c.48.29,1,.58,1.43.91,4.7,3.1,9.3,6.38,13.78,9.92,1.61,1.24,3.18,2.48,4.71,3.76s3.1,2.59,4.63,3.9,3.06,2.66,4.56,4,3,2.74,4.45,4.16c3,2.81,5.84,5.69,8.61,8.72s5.58,6,8.21,9.19,5.21,6.38,7.73,9.7c1.24,1.64,2.48,3.32,3.68,5s2.41,3.39,3.58,5.1,2.3,3.43,3.42,5.15a.23.23,0,0,1,.08.14c1.06,1.61,2,3.25,3.06,4.89a8.93,8.93,0,0,1,.48.77c1,1.64,2,3.31,2.91,5s2,3.54,3,5.36q5,9.3,9.19,19.15c1,2.3,1.93,4.63,2.81,7,.51,1.21.94,2.41,1.38,3.61.77,2,1.5,4.09,2.19,6.13,1.35,4,2.59,8.1,3.72,12.22.33,1.17.66,2.34,1,3.54.44,1.6.84,3.25,1.2,4.89a.45.45,0,0,1,.08.22q.77,3.23,1.42,6.45a4.45,4.45,0,0,1,.14.69c.41,2,.77,4,1.13,6.06.08.33.11.66.19,1,.25,1.57.51,3.1.69,4.67.22,1.28.4,2.56.55,3.83.29,2.15.54,4.38.76,6.57.44,4.41.77,8.86.95,13.31C2570,1819.48,2539.88,1871.28,2522.66,1895.39Z"/><path class="cls-64" d="M529.16,1318.22c7.7,2.91,78,21,91.58,28.87,92.42,53.22,102.77,149.32,131.89,224.61,21.16,54.69,44.57,97.7,145.49,177.41-4.86,15.11-9.58,52.37-14.44,67.48-61.43-5.68-166.1-14.43-225.65-98.93-14.76-20.94-20.94-39.37-25.71-55C614.72,1605,531.92,1486.21,529.16,1318.22Z"/><path class="cls-65" d="M415.13,2667.62c-4.73,4.35-5,14.53-5.23,21.18-.09,3-.13,4.45.26,5.48,2.88,7.46,17.68,7.36,41,8.31,36.81,1.51,47.87,3.73,50.4-1.89,2.37-5.27-4.63-13.22-5.42-14.1-4.23-4.71-9.16-6.22-18.68-8.72-17.6-4.62-29.45-7-33-7.75C422,2665.59,418.24,2664.76,415.13,2667.62Z"/><path class="cls-66" d="M441,2630.92l1.43,41.89c-1.14,2-13.86,7.34-23.43,1.63L411.73,2633Z"/><path class="cls-67" d="M725.16,2661.83c-6.33,6.28-8.34,18.36-3.46,24.62s12.71,2.16,34.45,4c23.3,1.94,29.1,7.78,45.19,4.25,6.5-1.43,18-5.12,18.07-9.7,0-3.23-5.65-5.2-24.54-12.67-26.82-10.61-26.67-11.1-32.42-12.37C748,2656.74,733.52,2653.54,725.16,2661.83Z"/><path class="cls-68" d="M742.14,2624.57l9.63,39.55c-1,2.05-13.27,8.38-23.24,3.42l-15.37-38.71Z"/><path class="cls-69" d="M683.69,1766.44a3652.47,3652.47,0,0,0,69.09,870.06l-45.43,9.66c-36-37.34-80.81-95.49-99.68-175.3-11.7-49.53-5.6-74.34-11.47-134.81-9.35-96.28-36-147.88-62.1-226.51-23.5-70.66-50.22-174-60.2-310.64Z"/><path class="cls-70" d="M662.77,2378.27c-16.68-66-48.81-83.51-49.95-145.85-.81-44.1,15-47.7,14-89.91-1.6-64-39.1-97.59-57.95-137.86C549,1962.12,541.34,1893.8,595,1780.17L473.9,1798.9c10,136.69,36.7,240,60.2,310.64,26.14,78.63,52.75,130.23,62.1,226.51,5.87,60.47-.23,85.28,11.47,134.81,18.87,79.8,63.68,138,99.68,175.3l11.55-2.45c-38.91-46.45-52.64-87.93-56.13-121.58C657.09,2467.37,679.58,2444.86,662.77,2378.27Z"/><path class="cls-71" d="M532.31,1758.26q-27,248.85-49.5,507.17-16.79,193.82-30,382.83l-46.06,3.21a533.85,533.85,0,0,1-41.14-125.71c-12.8-66.17-7-104.75-10.49-172.81-4-76.34-14.71-93.5-30.22-190.35-31.48-196.58-47.21-294.86,2.7-352.82C343.83,1791,394,1744.28,532.31,1758.26Z"/><path class="cls-72" d="M282.52,1356.45c-48,43.29-55.76,103.38-63.46,163.28-12.86,100.09,9.66,198.13,17.42,231.9,11.36,49.45,21.47,70.62,17.1,111.17-5.44,50.34-27.58,78.41-12.59,99.63,10.23,14.5,31.06,16.26,68,16.38,80.4.28,105.64-8.85,164.82-10.32,38.88-1,82.79-2,138.92,9.77,45.12,9.5,78.28,23.15,108.26,5.9,21-12.08,29.87-33.2,32.16-38.77,14.35-35,.79-70.79-4.68-86.24-7.44-21-19.85-101.54-44.68-262.59-7.28-47.24-11.9-85.27-29-139.93-12.15-38.78-18.23-58.16-29.6-73.82-50.47-69.5-155.72-70.72-193.45-71.16C400,1311,333.77,1310.27,282.52,1356.45Z"/><path class="cls-73" d="M196.75,1390.7c-98.76,67.1-29.4,60.35-37.09,120.26-12.87,100.09,69.06,206.9,76.82,240.67,11.36,49.45,21.47,70.62,17.1,111.17-5.44,50.34-27.58,78.41-12.59,99.63,10.23,14.5,31.06,16.26,68,16.38,80.4.28,105.64-8.85,164.82-10.32,38.88-1,82.79-2,138.92,9.77,45.12,9.5,78.28,23.15,108.26,5.9,21-12.08,29.87-33.2,32.16-38.77,14.35-35,.79-70.79-4.68-86.24-7.44-21-19.85-101.54-44.68-262.59-7.28-47.24-11.9-85.27-29-139.93-12.15-38.78-18.23-58.16-29.6-73.82-50.47-69.5-155.72-70.72-193.45-71.16C400,1311,335.58,1296.37,196.75,1390.7Z"/><path class="cls-74" d="M743.41,1839.51A290.21,290.21,0,0,1,679.09,1792c-73.47-72.22-71.38-149.33-141.57-173.62-67.72-23.43-111.22,34-164.82,10.32-28.22-12.44-77.69-134.28-96.29-266.39-42.58,42.77-50,100.17-57.35,157.43-12.86,100.09,9.66,198.13,17.42,231.9,11.36,49.45,21.47,70.62,17.1,111.17-5.44,50.34-27.58,78.41-12.59,99.63,10.23,14.5,31.06,16.26,68,16.38,80.4.28,105.64-8.85,164.82-10.32,38.88-1,82.79-2,138.92,9.77,45.12,9.5,78.28,23.15,108.26,5.9,21-12.08,29.87-33.2,32.16-38.77,14.35-35,.79-70.79-4.68-86.24A173.38,173.38,0,0,1,743.41,1839.51Z"/><path class="cls-75" d="M417.14,1252.35c3.26,20.8,5,34.73-.44,43.7-3.63,5.92-10,11.22-54.08,23.17-23,6.22-27.07,6.37-27,7.73.14,5.35,64.29,8.35,127.47,0,0,0,38.74-5.13,38.62-11.59-.1-5.23-27.17-2.52-38.62-19.31-10.37-15.21,1-33.36-7.73-38.63C447.94,1253,415,1238.7,417.14,1252.35Z"/><path class="cls-55" d="M490.74,1224.09c9.85-12.32,11.6-36.19-1.3-47.82-7.64-6.89-20.27-9.35-29.64-5.47-10.39,4.29-9.67,13.43-20.57,17.06-8.81,2.93-11.77-2.22-23.18,0-3,.58-15.57,3-21.43,12.69-8.2,13.54,4.13,31.33,8.84,41.48,2.33,5,6.66,6.6,10.63,10.31,5.5,5.13,14.11,13.3,28.16,27a90.36,90.36,0,0,1,5.64-15.32,86.29,86.29,0,0,1,11.61-18.2C472.46,1230.82,482.19,1234.79,490.74,1224.09Z"/><path class="cls-76" d="M422.1,1268.18A50.73,50.73,0,0,0,447,1286c6.24,2,14.09,5,22,2.19,15.46-5.41,19.28-27.94,20.43-34.7,4.39-25.9-5.95-53.44-15.45-54.08-4.41-.29-5.61,5.41-15.45,7.73a36,36,0,0,1-15.45,0c-6.26-1.59-7.44-4.09-11.59-3.86-6.25.34-10.64,6.41-11.58,7.72-6.39,8.84-4.12,24,4.91,38.48-5.31-4.81-11.73-6.47-16.33-4.28a10.15,10.15,0,0,0-3.8,3.54C400.67,1255.62,407.15,1263.87,422.1,1268.18Z"/><path class="cls-55" d="M490.48,1246.76s-1,18.34-8.76,14.48-15.45-7.72-23.18,0-40.79-24.46-40.79-24.46l-5.56,5.15s15.45,7.73,15.45,15.45S442,1290.12,447,1299.87c6,11.87,34.42,28.71,50.22-7.73C502.7,1279.36,490.48,1246.76,490.48,1246.76Z"/><path class="cls-77" d="M484.3,1268.52s-14.81,7.93-27.5,3.43C456.8,1272,476.37,1287,484.3,1268.52Z"/><polygon class="cls-78" points="733.5 1777.7 349.15 1771.97 451.35 1821.29 734.48 1802.76 733.5 1777.7"/><path class="cls-79" d="M335.58,1782.18h0a17.13,17.13,0,0,0,11.27,16.08l122.81,48.14.56-33.37L349.15,1772A10.62,10.62,0,0,0,335.58,1782.18Z"/><path class="cls-80" d="M394.77,1759.44c-2.36-.53,11.49-28.12,22.36-24.94s64.05,34,68.89,46.7l4.83,12.68s-23.2,1.82-37.58-3S414,1763.72,394.77,1759.44Z"/><path class="cls-81" d="M480.41,1578.83,453.32,1825.5c-.93,8.51,11,21.19,19.53,20.79l397.44-24.4a13.93,13.93,0,0,0,13.07-11.56l49.89-238.24c1.48-8.67-14.1-17.63-22.89-17.38l-416.49,11.71A13.93,13.93,0,0,0,480.41,1578.83Z"/><path class="cls-82" d="M489.5,1586l-27.1,246.67a13.93,13.93,0,0,0,14.51,15.44l402.46-19.05a14,14,0,0,0,13.08-11.56l41.11-239.33a13.93,13.93,0,0,0-14.12-16.29L503,1573.61A13.92,13.92,0,0,0,489.5,1586Z"/><path class="cls-83" d="M725.82,1771.28c-35.14-14.89-22.74-43.3-64.24-78.69C606.84,1645.9,551,1666.15,531.51,1630c-6.09-11.27-9-28.81,1.6-57.2l-30.16.85A13.92,13.92,0,0,0,489.5,1586l-27.1,246.67a13.94,13.94,0,0,0,14.51,15.44l402.46-19.05a13.94,13.94,0,0,0,13.08-11.56l5.67-33a151.73,151.73,0,0,0-43.83-16.43C795.25,1756.09,766.28,1788.43,725.82,1771.28Z"/><path class="cls-84" d="M904.75,1794a2.69,2.69,0,0,0-2.42-3.55c-7.28-.37-24.18-.52-33.51,5.19-12.12,7.43-27.78,21-14.59,27.81l12.32,6.38a2.68,2.68,0,0,0,1.8.25c4.38-1,22.81-5,24.83-6.07C895,1823.05,902,1802.2,904.75,1794Z"/><path class="cls-85" d="M322.22,1372.82c-31.68-26-95.37,3.44-112.4,11.31-94.94,43.92-180.19,162.27-159.07,287.34,3.17,18.76,17.86,106.49,92.15,149,67,38.36,157.55,28.49,230.07-25.83l29.73-26.39L432,1736.63A234.87,234.87,0,0,0,354,1693.69c-48.22-15.56-83.33,12.36-105.7-8.87-15.44-14.64-15.48-40.52-11.66-56.2,7.68-31.61,35.54-40.49,58.8-62.93C350.08,1513,360.15,1404,322.22,1372.82Z"/></g></g></g></svg>