<svg xmlns="http://www.w3.org/2000/svg" viewBox="0 0 377.82 290.43"><defs><style>.cls-1{fill:#e5eaea;}.cls-1,.cls-3{stroke:#3c3c3b;stroke-miterlimit:10;stroke-width:10px;}.cls-2{fill:#3c3c3b;}.cls-3{fill:none;}</style></defs><g id="Camada_2" data-name="Camada 2"><g id="Camada_7" data-name="Camada 7"><path class="cls-1" d="M207,164.33l-60.92,32.34a48.66,48.66,0,0,1-27.67,5.42l-56.64-5.7a49.22,49.22,0,0,1-43.06-38.54Q12.42,129,6.14,100.13A49,49,0,0,1,28.91,47.47L89,11.81a48.64,48.64,0,0,1,32.62-6.18l49.45,8a49.22,49.22,0,0,1,38.47,32.28q10.32,29.37,20.65,58.72A49.07,49.07,0,0,1,207,164.33Z"/><line class="cls-1" x1="128.92" y1="202.01" x2="90.5" y2="73.72"/><line class="cls-1" x1="7.66" y1="65.99" x2="94.12" y2="78.22"/><line class="cls-1" x1="191.85" y1="21.09" x2="94.12" y2="78.22"/><ellipse class="cls-2" cx="41.09" cy="116.31" rx="9.41" ry="12.52" transform="translate(-56.13 40.38) rotate(-32.55)"/><ellipse class="cls-2" cx="72.65" cy="118.71" rx="9.41" ry="12.52" transform="translate(-52.46 57.74) rotate(-32.55)"/><ellipse class="cls-2" cx="99.76" cy="43.56" rx="12.89" ry="10.9" transform="translate(-3.07 79.29) rotate(-42.75)"/><ellipse class="cls-2" cx="138.31" cy="96.56" rx="12.73" ry="10.98" transform="matrix(0.5, -0.87, 0.87, 0.5, -14.47, 168.06)"/><ellipse class="cls-2" cx="168.91" cy="109.97" rx="12.73" ry="10.98" transform="translate(-10.78 201.26) rotate(-60)"/><ellipse class="cls-2" cx="155.95" cy="146.06" rx="12.73" ry="10.98" transform="translate(-48.52 208.08) rotate(-60)"/><ellipse class="cls-2" cx="181.06" cy="73.16" rx="12.73" ry="10.98" transform="translate(27.17 193.38) rotate(-60)"/><ellipse class="cls-2" cx="52.7" cy="158.01" rx="9.41" ry="12.52" transform="translate(-76.74 53.18) rotate(-32.55)"/><ellipse class="cls-2" cx="84.26" cy="160.41" rx="9.41" ry="12.52" transform="translate(-73.08 70.54) rotate(-32.55)"/><path class="cls-1" d="M285.12,283.63,218.69,265.1A48.68,48.68,0,0,1,194.89,250l-37.12-43.16a49.21,49.21,0,0,1-4.66-57.6l30.64-50.5a49.06,49.06,0,0,1,52.79-22.48l68.08,15.52a48.58,48.58,0,0,1,27.91,18q15.15,20,30.31,39.88a49.22,49.22,0,0,1,5.65,49.9L343,256.31A49.06,49.06,0,0,1,285.12,283.63Z"/><line class="cls-3" x1="202.56" y1="257.14" x2="263.1" y2="137.68"/><line class="cls-3" x1="208.38" y1="75.01" x2="262.62" y2="143.44"/><line class="cls-3" x1="372.82" y1="169.36" x2="262.62" y2="143.44"/><ellipse class="cls-2" cx="272.97" cy="111.93" rx="6.21" ry="11.7" transform="translate(29.57 278.65) rotate(-56.71)"/><ellipse class="cls-2" cx="312.39" cy="132.27" rx="6.21" ry="11.7" transform="translate(30.35 320.77) rotate(-56.71)"/><ellipse class="cls-2" cx="328.2" cy="205.36" rx="12.26" ry="11.03" transform="translate(-23.61 366.96) rotate(-56.71)"/><ellipse class="cls-2" cx="295.8" cy="221.02" rx="12.26" ry="11.03" transform="translate(-51.31 346.94) rotate(-56.71)"/><ellipse class="cls-2" cx="260.7" cy="237.76" rx="12.26" ry="11.03" transform="matrix(0.55, -0.84, 0.84, 0.55, -81.14, 325.15)"/><ellipse class="cls-2" cx="200.41" cy="161.1" rx="12.26" ry="11.03" transform="translate(-44.26 240.18) rotate(-56.71)"/></g></g></svg>