<svg xmlns="http://www.w3.org/2000/svg" viewBox="0 0 381.46 362.68"><defs><style>.cls-1{isolation:isolate;}.cls-2{opacity:0.12;}.cls-2,.cls-4,.cls-9{mix-blend-mode:multiply;}.cls-3,.cls-4,.cls-6{fill:#202246;}.cls-4,.cls-9{opacity:0.15;}.cls-11,.cls-5{fill:none;stroke-width:1.05px;}.cls-5,.cls-6{stroke:#202246;}.cls-11,.cls-17,.cls-5,.cls-6{stroke-linecap:round;stroke-linejoin:round;}.cls-17,.cls-6{stroke-width:0.98px;}.cls-7{fill:#1db5de;}.cls-8{fill:#178eb0;}.cls-9{fill:#3f3189;}.cls-10{fill:#fff;}.cls-11,.cls-17{stroke:#2f2854;}.cls-12,.cls-17{fill:#2f2854;}.cls-13{fill:#f296aa;}.cls-14{fill:#ef7e95;}.cls-15{fill:#fab754;}.cls-16{fill:#232b2e;}</style></defs><g class="cls-1"><g id="Camada_2" data-name="Camada 2"><g id="Camada_5" data-name="Camada 5"><g class="cls-2"><path class="cls-3" d="M306.1,131.48c-4.11-21.33-8.77-42.77-17.74-62.55s-22.66-38-41.41-49C223.16,6,193.89,5.1,166.53,8.49c-31,3.83-61.59,12.8-88.19,29.08s-49,40.19-60.77,69.09C4.41,139.07,5.25,175.46,10,210.12c4.19,30.33,11.58,61.08,29,86.27,20.3,29.38,52.91,48.76,87.37,58.14s70.81,9.48,106.37,6.17c30.64-2.84,61.9-8.49,88.11-24.62s46.54-44.7,45.43-75.45C364.63,214.13,315.86,182.06,306.1,131.48Z"/><path class="cls-3" d="M232.75,360.7c30.64-2.84,61.9-8.49,88.11-24.62s46.54-44.7,45.44-75.45c-1.1-30.56-22.54-54.88-39.88-82.32-76.32-21.7-122.49,79.84-164.88,64.57-48.2-17.36-56-76.51-97-68.85-29.47,5.5-46.4,29.46-53.6,42.5,4.34,28.22,11.86,56.44,28,79.86,20.3,29.38,52.91,48.76,87.37,58.14S197.19,364,232.75,360.7Z"/><path class="cls-4" d="M327.8,180.46l-19-1.23s-98-28.29-98.53-27,0-17.47,0-17.47c26.26-3.32,34.36-26.68,34.36-26.68,15.4,14.14,29.82-1.72,29.82-1.72,11.72,2.29,23,7.15,28.54,9.79-.82-3.77-1.68-7.53-2.61-11.28-5.81-2.27-14.58-5.24-27.61-9.14-52-15.55-149.41,6.06-149.41,6.06,2.36,28.22,31.46,11.47,31.46,11.47,11.11,19.76,36.69,19.89,36.69,19.89v20.94c0,1.85-55.51,16.57-78.87,33.07S73.12,238.6,73.12,238.6A41.13,41.13,0,0,0,82.65,244L79,259.28c-6.69,71.37,54.26,57.38,54.26,57.38l-4.57,38.45c33.78,8.78,69.31,8.83,104.09,5.59,24.28-2.25,49-6.29,71.2-15.89,1.3-53.52-8.48-120.57-8.48-120.57,20.57,0,34.5-3.64,34.5-3.64l-1.07-25.85a18.8,18.8,0,0,0,7.42-1.46C333.46,189.06,330.59,184.79,327.8,180.46Z"/><path class="cls-3" d="M136.7,128.13a156.33,156.33,0,0,0-12.56-10.25,374.13,374.13,0,0,0-3.76-81.69A15.73,15.73,0,0,0,109,23.41C89.14,18.07,70,18,52.7,23A15.89,15.89,0,0,0,41.38,36a434.41,434.41,0,0,0-2.75,100.87A15.74,15.74,0,0,0,51,150.94a151.42,151.42,0,0,0,58.64.54,15.75,15.75,0,0,0,12.66-13.63q.54-4.66,1-9.34C127.91,128.32,132.47,128.15,136.7,128.13Z"/><path class="cls-4" d="M124.86,94.19c-32.36,32.21-71.63,28-87.42,24.57.28,6,.65,12.09,1.19,18.12A15.74,15.74,0,0,0,51,150.94a151.42,151.42,0,0,0,58.64.54,15.75,15.75,0,0,0,12.66-13.63q.54-4.66,1-9.34c4.6-.19,9.16-.36,13.39-.38a156.33,156.33,0,0,0-12.56-10.25C124.64,110,124.86,102.09,124.86,94.19Z"/><path class="cls-5" d="M40.24,44.45a435.16,435.16,0,0,0-1.61,92.43A15.74,15.74,0,0,0,51,150.94a151.42,151.42,0,0,0,58.64.54,15.75,15.75,0,0,0,12.66-13.63q.54-4.66,1-9.34c4.6-.19,9.16-.36,13.39-.38a156.33,156.33,0,0,0-12.56-10.25,374.13,374.13,0,0,0-3.76-81.69A15.73,15.73,0,0,0,109,23.41c-17.19-4.62-33.82-5.28-49.22-2.14"/><path class="cls-5" d="M41.38,36c-.17,1.19-.34,2.39-.5,3.58"/><path class="cls-5" d="M52.7,23a15.9,15.9,0,0,0-7.4,4.63"/><path class="cls-3" d="M73.8,92.76a7.36,7.36,0,0,1-2.62-2.63,8.2,8.2,0,0,1-1.24-4.5,5,5,0,0,1,1.32-3.79,8.92,8.92,0,0,1,3.93-1.93l6.33-1.57q4-1.08,4-3.92a3.29,3.29,0,0,0-1.51-2.67q-1.51-1.14-5.17-1.12a22.52,22.52,0,0,0-6.25.89,18.85,18.85,0,0,0-4.7,2A10.44,10.44,0,0,1,65.56,71a6.58,6.58,0,0,1-1-3.61,5.87,5.87,0,0,1,1.2-3.71,8.9,8.9,0,0,1,3.36-2.61,18.9,18.9,0,0,1,5.11-1.53A39.56,39.56,0,0,1,80.77,59q9.58,0,14.53,4.19a14.1,14.1,0,0,1,5,11.14q.06,13-18.28,16.75Zm-2.63,10.65a7.27,7.27,0,1,1,2.1,5.47A7.59,7.59,0,0,1,71.17,103.41Z"/><path class="cls-3" d="M190.1,122.82c-.29,10.66-.58,21.32-.15,32.34a56,56,0,0,0,23.26-.2l-2.67-33.14Z"/><path class="cls-3" d="M211.56,134.4l-1-12.58-20.44,1c-.11,3.74-.19,7.49-.27,11.24C194.19,135.72,201.78,137.34,211.56,134.4Z"/><path class="cls-3" d="M148,307.58c-19.58,8.81-44.62,3.31-58.71-12.88S73.23,252.93,85,234.83c23.33,2.41,46.28,8.37,67.28,19.89C151.57,272.43,150.81,290.13,148,307.58Z"/><path class="cls-3" d="M149.6,295.75c-37,4.76-60.82-12.58-70.92-22.21A49,49,0,0,0,89.3,294.7c14.09,16.19,39.13,21.69,58.71,12.88C148.64,303.65,149.16,299.7,149.6,295.75Z"/><path class="cls-5" d="M89.94,276.6c-.67,7.28,5.83,14.41,13.14,14.4"/><path class="cls-3" d="M151.12,261.29a152.55,152.55,0,0,1-78-28.43C88.63,200.11,116,174.4,148.05,160c0,0,6.07,40.44,6.72,61.34A180.07,180.07,0,0,1,151.12,261.29Z"/><path class="cls-3" d="M317.07,194.75c3.42-1.06,6.83-2.13,10.21-3.27,12.86-4.34,25.61-9.81,35.91-18.65s18-21.49,18.26-35.06c.24-11.31-4.66-22.32-11.91-31S352.79,91.55,342.88,86.1A172.82,172.82,0,0,0,228.33,67.92c0,10.77.7,20.52.49,30.26,24.6-3.63,50.36.69,72,12.67,6.23,3.45,12.9,9.2,11.64,16.21a9.83,9.83,0,0,1-2,4.42s-3.4,19.89-1.9,33.82S317.07,194.75,317.07,194.75Z"/><path class="cls-3" d="M265.25,70.57l-20.61,4.8s.12,10.66.43,21.59a116.53,116.53,0,0,1,34.14,4.83c2.89-5.77,3.4-11.92,1.9-19.06C278.75,71.53,265.25,70.57,265.25,70.57Z"/><path class="cls-3" d="M379.9,126c-14.69,35.81-58.54,45.61-69.92,47.58a128.21,128.21,0,0,0,7.09,21.14c3.42-1.06,6.83-2.13,10.21-3.27,12.86-4.34,25.61-9.81,35.91-18.65s18-21.49,18.26-35.06A40.48,40.48,0,0,0,379.9,126Z"/><path class="cls-5" d="M371.51,132.82a6.88,6.88,0,0,1-2.3,11.87"/><path class="cls-3" d="M310.44,131.48c-3,3.82-8.56,5.92-13.55,7.17-23.59,5.89-47.92,7.59-72.28,8.26L204.27,160,176,150.7a148.25,148.25,0,0,0-28,9.31l-3.63,51.35q-3.75,72.87-7.51,145.72c31.29,6.79,63.88,6.59,95.84,3.62,22.78-2.11,45.9-5.78,67-14.15.28-43.66-3.83-86.34-10.37-128.63,15.47-.24,29.26-.8,42.93-2.35,2.13-30.49-6.36-59.58-21.92-84.26Z"/><path class="cls-4" d="M289.41,217.92c15.47-.24,29.26-.8,42.93-2.35a133.77,133.77,0,0,0-.57-24.47c-10.39,2.08-29.95,5.49-46.81,5.49A161.39,161.39,0,0,1,289.41,217.92Z"/><path class="cls-5" d="M299.79,346.55c.27-43.66-3.84-86.34-10.38-128.63,15.47-.24,29.26-.8,42.93-2.35"/><path class="cls-3" d="M210.05,172.46c5.36-2.44,9.19-7.48,11.41-12.94a56,56,0,0,0,3.15-12.61c-7.79.21-15.58.32-23.35.43A140.34,140.34,0,0,0,176,150.7c2.39,6.72,5.94,13.11,11.38,17.64C193.61,173.52,202.68,175.8,210.05,172.46Z"/><path class="cls-3" d="M141.67,82.25a24.75,24.75,0,0,1,14.15-41.67,11.54,11.54,0,0,1,1.11-10.84c2.17-2.89,8.91-3.69,11.13-.56,8.95-7,15.57-16.88,26.65-19.5s26.7,2.81,37.5,11.57c8.42-3.15,21.35-.95,25.8,6.86s.32,23-7.68,29.73a11.54,11.54,0,0,1-4.47,16.68,10.05,10.05,0,0,1,1.57,9.84c-1.27,3.25-4.38,5.7-10.42,6.57A85,85,0,0,1,177,111.25a49.39,49.39,0,0,1-17.61-3.93,27.21,27.21,0,0,1-13.16-12Z"/><path class="cls-3" d="M154,83.27C149.21,76,138.91,73.12,131,76.62S118.16,89.49,119.75,98a20.89,20.89,0,0,0,18,16.39A21.81,21.81,0,0,0,159,102.35Z"/><path class="cls-5" d="M129.85,95.42a13.17,13.17,0,0,1,15.47-9.34"/><path class="cls-5" d="M142.46,99.55a18,18,0,0,1-6.31-12.09"/><path class="cls-3" d="M241.68,78.79c3.44-8,13.06-12.67,21.51-10.65S278.07,78.53,278,87.23a20.9,20.9,0,0,1-14.77,19.33,21.82,21.82,0,0,1-23.09-8.1Z"/><path class="cls-5" d="M267.62,86.44A13.19,13.19,0,0,0,250.73,80"/><path class="cls-5" d="M256,92.75a18,18,0,0,0,4.05-13"/><path class="cls-3" d="M244.64,81.25c-.42,9.09-1.83,18.24-5.51,26.55s-9.82,15.77-18,19.79-17.82,4.37-26.87,3c-11.59-1.79-23-6.46-31.29-14.76a36.5,36.5,0,0,1-10.16-33.75,70.06,70.06,0,0,0,6.63-29.24A15.7,15.7,0,0,0,173,59a20.15,20.15,0,0,0,13.52-6.7,29.59,29.59,0,0,0,6.71-13.6,12.66,12.66,0,0,0,8.38,7.37,16.61,16.61,0,0,0,11.2-1.56,15.91,15.91,0,0,0,8.92,8.91c4,1.57,8.71,1.38,14.06,1.62a41.91,41.91,0,0,0,2.5,18.06,10.87,10.87,0,0,0,2,3.58A34.1,34.1,0,0,1,244.64,81.25Z"/><path class="cls-5" d="M207.27,74.84c2.89,1.64,5.77,3.28,8.94,5.32a25.4,25.4,0,0,0-6.43,2.64"/><path class="cls-5" d="M189.37,95.77a50,50,0,0,1,20.91.36"/><path class="cls-5" d="M168.06,72.09a13.69,13.69,0,0,1,20.7-1.92"/><path class="cls-6" d="M181.56,75.08a2.63,2.63,0,1,0,.22,4.6A2.78,2.78,0,0,0,181.56,75.08Z"/><path class="cls-6" d="M229.45,75.6a2.63,2.63,0,1,0,.22,4.6A2.78,2.78,0,0,0,229.45,75.6Z"/></g><path class="cls-7" d="M299.27,124.65c-4.11-21.33-8.77-42.76-17.74-62.55s-22.66-38-41.41-49C216.33-.84,187.07-1.73,159.7,1.66c-30.95,3.83-61.59,12.8-88.19,29.08s-49,40.19-60.77,69.09C-2.42,132.24-1.58,168.63,3.2,203.29c4.19,30.33,11.58,61.08,29,86.27,20.3,29.38,52.91,48.76,87.37,58.14s70.81,9.48,106.37,6.17c30.64-2.84,61.9-8.48,88.11-24.62s46.54-44.7,45.44-75.45C357.8,207.3,309,175.23,299.27,124.65Z"/><path class="cls-8" d="M225.92,353.87c30.64-2.84,61.9-8.48,88.11-24.62s46.54-44.7,45.44-75.45c-1.1-30.56-22.54-54.88-39.88-82.32-76.32-21.7-122.49,79.84-164.88,64.58-48.2-17.36-56-76.52-97-68.86-29.47,5.5-46.4,29.46-53.6,42.5,4.34,28.23,11.86,56.44,28,79.86,20.3,29.38,52.91,48.76,87.37,58.14S190.36,357.18,225.92,353.87Z"/><path class="cls-9" d="M321,173.63l-19-1.23s-98-28.29-98.53-27,0-17.47,0-17.47c26.26-3.32,34.36-26.68,34.36-26.68,15.4,14.14,29.82-1.71,29.82-1.71,11.72,2.28,23,7.14,28.54,9.78-.82-3.77-1.68-7.53-2.61-11.28C287.75,95.78,279,92.8,266,88.91c-52-15.56-149.41,6-149.41,6C118.9,123.18,148,106.43,148,106.43c11.11,19.76,36.69,19.89,36.69,19.89v20.94c0,1.85-55.5,16.57-78.87,33.07s-39.53,51.44-39.53,51.44a41.13,41.13,0,0,0,9.53,5.36l-3.68,15.32c-6.69,71.37,54.26,57.38,54.26,57.38l-4.57,38.45c33.78,8.78,69.31,8.83,104.09,5.59,24.29-2.25,49-6.29,71.2-15.89,1.3-53.52-8.48-120.57-8.48-120.57,20.57,0,34.5-3.64,34.5-3.64l-1.07-25.85a18.76,18.76,0,0,0,7.42-1.46C326.63,182.23,323.76,178,321,173.63Z"/><path class="cls-10" d="M129.87,121.3a156.33,156.33,0,0,0-12.56-10.25,374.13,374.13,0,0,0-3.76-81.69,15.74,15.74,0,0,0-11.38-12.78c-19.86-5.34-39-5.39-56.3-.39a15.89,15.89,0,0,0-11.32,13A434.41,434.41,0,0,0,31.8,130.05a15.73,15.73,0,0,0,12.41,14.06,151.42,151.42,0,0,0,58.64.54A15.75,15.75,0,0,0,115.51,131c.37-3.11.68-6.22,1-9.34C121.08,121.49,125.64,121.32,129.87,121.3Z"/><path class="cls-9" d="M118,87.36c-32.36,32.21-71.63,28-87.42,24.57.29,6,.65,12.09,1.19,18.12a15.73,15.73,0,0,0,12.41,14.06,151.42,151.42,0,0,0,58.64.54A15.75,15.75,0,0,0,115.51,131c.37-3.11.68-6.22,1-9.34,4.6-.19,9.16-.36,13.39-.38a156.33,156.33,0,0,0-12.56-10.25C117.81,103.16,118,95.26,118,87.36Z"/><path class="cls-11" d="M33.41,37.62a435.17,435.17,0,0,0-1.61,92.43,15.73,15.73,0,0,0,12.41,14.06,151.42,151.42,0,0,0,58.64.54A15.75,15.75,0,0,0,115.51,131c.37-3.11.68-6.22,1-9.34,4.6-.19,9.16-.36,13.39-.38a156.33,156.33,0,0,0-12.56-10.25,374.13,374.13,0,0,0-3.76-81.69,15.74,15.74,0,0,0-11.38-12.78C85,12,68.35,11.3,53,14.44"/><path class="cls-11" d="M34.55,29.18c-.17,1.19-.34,2.39-.5,3.58"/><path class="cls-11" d="M45.87,16.19a15.9,15.9,0,0,0-7.4,4.63"/><path class="cls-12" d="M67,85.93a7.36,7.36,0,0,1-2.62-2.63,8.2,8.2,0,0,1-1.24-4.5A5,5,0,0,1,64.43,75a8.92,8.92,0,0,1,3.93-1.93l6.33-1.57c2.71-.72,4-2,4-3.92a3.29,3.29,0,0,0-1.51-2.67q-1.52-1.14-5.17-1.12a22.52,22.52,0,0,0-6.25.89,18.85,18.85,0,0,0-4.7,2,10.26,10.26,0,0,1-2.37-2.54,6.58,6.58,0,0,1-1-3.61,5.87,5.87,0,0,1,1.2-3.71,9,9,0,0,1,3.36-2.61,18.9,18.9,0,0,1,5.11-1.53,39.56,39.56,0,0,1,6.53-.52q9.59,0,14.53,4.19a14.11,14.11,0,0,1,5,11.15q.06,13-18.28,16.74ZM64.34,96.58a7.27,7.27,0,1,1,2.1,5.47A7.59,7.59,0,0,1,64.34,96.58Z"/><path class="cls-13" d="M183.27,116c-.29,10.65-.58,21.31-.15,32.33a55.83,55.83,0,0,0,23.26-.2L203.71,115Z"/><path class="cls-14" d="M204.73,127.57l-1-12.58-20.44,1c-.1,3.73-.19,7.48-.26,11.23C187.36,128.89,195,130.51,204.73,127.57Z"/><path class="cls-13" d="M141.18,300.75c-19.57,8.81-44.62,3.31-58.71-12.88S66.4,246.1,78.21,228c23.33,2.41,46.28,8.37,67.28,19.89C144.74,265.6,144,283.3,141.18,300.75Z"/><path class="cls-14" d="M142.77,288.92c-37,4.76-60.82-12.58-70.92-22.21a49,49,0,0,0,10.62,21.16c14.09,16.19,39.14,21.69,58.71,12.88C141.81,296.82,142.33,292.87,142.77,288.92Z"/><path class="cls-11" d="M83.11,269.77c-.67,7.28,5.83,14.41,13.15,14.4"/><path class="cls-15" d="M144.29,254.46a152.46,152.46,0,0,1-78-28.43c15.51-32.75,42.86-58.46,74.93-72.84,0,0,6.08,40.43,6.72,61.33A180.07,180.07,0,0,1,144.29,254.46Z"/><path class="cls-13" d="M310.24,187.92c3.42-1,6.83-2.13,10.21-3.27,12.86-4.34,25.61-9.81,35.92-18.65s18-21.49,18.25-35.06c.24-11.31-4.65-22.32-11.91-31S346,84.72,336.05,79.27A172.88,172.88,0,0,0,221.5,61.09c0,10.77.7,20.52.49,30.26,24.6-3.63,50.36.69,72,12.67,6.23,3.45,12.9,9.2,11.65,16.21a9.84,9.84,0,0,1-2,4.42s-3.4,19.89-1.9,33.82S310.24,187.92,310.24,187.92Z"/><path class="cls-14" d="M258.42,63.74l-20.61,4.8s.12,10.66.43,21.59A116.48,116.48,0,0,1,272.38,95c2.89-5.77,3.4-11.92,1.9-19.06C271.92,64.7,258.42,63.74,258.42,63.74Z"/><path class="cls-14" d="M373.07,119.2c-14.69,35.81-58.54,45.61-69.92,47.58a127.81,127.81,0,0,0,7.09,21.14c3.42-1,6.83-2.13,10.21-3.27,12.86-4.34,25.61-9.81,35.92-18.65s18-21.49,18.25-35.06A40.48,40.48,0,0,0,373.07,119.2Z"/><path class="cls-11" d="M364.68,126a6.87,6.87,0,0,1-2.3,11.86"/><path class="cls-15" d="M303.61,124.65c-3,3.82-8.56,5.92-13.55,7.17-23.59,5.89-47.92,7.59-72.28,8.26l-20.33,13.11-28.27-9.31a147.54,147.54,0,0,0-28,9.31l-3.63,51.35q-3.75,72.86-7.51,145.71c31.29,6.79,63.88,6.59,95.84,3.62,22.78-2.11,45.9-5.78,67-14.15.28-43.66-3.83-86.34-10.37-128.63,15.47-.24,29.26-.79,42.93-2.35,2.13-30.49-6.36-59.58-21.92-84.25Z"/><path class="cls-9" d="M282.58,211.09c15.47-.24,29.26-.79,42.93-2.35a132.89,132.89,0,0,0-.57-24.47c-10.39,2.08-29.95,5.49-46.8,5.49A162.58,162.58,0,0,1,282.58,211.09Z"/><path class="cls-11" d="M293,339.72c.28-43.66-3.83-86.34-10.38-128.63,15.47-.24,29.26-.79,42.93-2.35"/><path class="cls-13" d="M203.22,165.63c5.36-2.44,9.19-7.48,11.41-12.94a56,56,0,0,0,3.15-12.61c-7.79.21-15.58.33-23.35.43a139.46,139.46,0,0,0-25.25,3.37c2.39,6.71,5.94,13.1,11.38,17.63C186.78,166.69,195.85,169,203.22,165.63Z"/><path class="cls-16" d="M134.84,75.42A25.34,25.34,0,0,1,129.2,50.3,25.25,25.25,0,0,1,149,33.75a11.54,11.54,0,0,1,1.11-10.84c2.17-2.89,8.91-3.69,11.13-.56,9-7,15.57-16.88,26.65-19.5s26.7,2.81,37.5,11.57c8.42-3.15,21.35-.95,25.8,6.86s.32,23-7.68,29.73A11.54,11.54,0,0,1,239,67.69a10,10,0,0,1,1.57,9.85c-1.27,3.24-4.38,5.69-10.42,6.57a85.05,85.05,0,0,1-60.06,20.31,49.39,49.39,0,0,1-17.61-3.93,27.24,27.24,0,0,1-13.16-12Z"/><path class="cls-13" d="M147.19,76.44c-4.81-7.25-15.11-10.15-23.07-6.65s-12.79,12.87-11.2,21.42a20.89,20.89,0,0,0,18,16.39,21.81,21.81,0,0,0,21.28-12.07Z"/><path class="cls-11" d="M123,88.59a13.17,13.17,0,0,1,15.47-9.34"/><path class="cls-11" d="M135.63,92.72a18,18,0,0,1-6.31-12.09"/><path class="cls-13" d="M234.85,72c3.44-8,13.06-12.67,21.51-10.65S271.24,71.7,271.2,80.4a20.91,20.91,0,0,1-14.76,19.33,21.83,21.83,0,0,1-23.1-8.1Z"/><path class="cls-11" d="M260.79,79.61a13.19,13.19,0,0,0-16.89-6.43"/><path class="cls-11" d="M249.12,85.92a18,18,0,0,0,4-13"/><path class="cls-13" d="M237.81,74.42c-.42,9.09-1.83,18.24-5.51,26.56s-9.81,15.76-18,19.78-17.82,4.37-26.87,3c-11.59-1.79-23-6.46-31.29-14.76A36.5,36.5,0,0,1,146,75.23,69.9,69.9,0,0,0,152.64,46a15.7,15.7,0,0,0,13.48,6.18,20.13,20.13,0,0,0,13.52-6.7,29.59,29.59,0,0,0,6.71-13.6,12.63,12.63,0,0,0,8.38,7.37,16.61,16.61,0,0,0,11.2-1.56,15.91,15.91,0,0,0,8.92,8.91c4,1.57,8.71,1.38,14.06,1.62a42.07,42.07,0,0,0,2.5,18.06,10.87,10.87,0,0,0,2,3.58A34.1,34.1,0,0,1,237.81,74.42Z"/><path class="cls-11" d="M200.44,68c2.89,1.64,5.77,3.28,8.94,5.32A25.4,25.4,0,0,0,203,76"/><path class="cls-11" d="M182.54,88.94a50,50,0,0,1,20.91.36"/><path class="cls-11" d="M161.23,65.26a13.69,13.69,0,0,1,20.7-1.92"/><path class="cls-17" d="M174.73,68.25a2.63,2.63,0,1,0,.22,4.6A2.77,2.77,0,0,0,174.73,68.25Z"/><path class="cls-17" d="M222.62,68.77a2.63,2.63,0,1,0,.22,4.6A2.77,2.77,0,0,0,222.62,68.77Z"/></g></g></g></svg>