<svg xmlns="http://www.w3.org/2000/svg" viewBox="0 0 93.25 93.24"><defs><style>.cls-1{fill:#f7f5ff;}.cls-2{fill:#f74d76;}.cls-3{fill:#fc8165;}.cls-4{fill:#ffaf45;}.cls-5{fill:#fff;}</style></defs><g id="Camada_2" data-name="Camada 2"><g id="Layer_1" data-name="Layer 1"><path class="cls-1" d="M93.25,46.62a47.78,47.78,0,0,1-.49,6.81c-.11.74-.24,1.46-.37,2.18A46.26,46.26,0,0,1,82.21,76.73c-.52.62-1.06,1.22-1.61,1.81A46.66,46.66,0,0,1,66.07,89a46.79,46.79,0,0,1-11.71,3.6,46.88,46.88,0,0,1-7.73.64,46.35,46.35,0,0,1-23.42-6.3c-1.17-.67-2.3-1.4-3.4-2.18l-.34-.24c-.78-.56-1.55-1.15-2.29-1.76l-.12-.1a45.77,45.77,0,0,1-5.18-5Q10.4,76,9.06,74.23A46.62,46.62,0,1,1,93.25,46.62Z"/><path class="cls-2" d="M25,56.37,19.74,84.68v.08l-.34-.24c-.78-.56-1.55-1.15-2.29-1.76l-.12-.1a45.77,45.77,0,0,1-5.18-5C15.81,66.7,25,56.37,25,56.37Z"/><path d="M92.31,55.61A46.26,46.26,0,0,1,82.13,76.73c-.52.62-1.06,1.22-1.61,1.81a46.43,46.43,0,0,1-7.68,6.58A50.38,50.38,0,0,1,65.19,84c-1.57-.35-3.14-.77-4.7-1.24-1.71-.52-3.4-1.1-5.07-1.72-2.43-.9-4.79-1.9-7.05-2.93A136,136,0,0,1,28.22,66.6a34.08,34.08,0,0,1-1.63-4.1A44.21,44.21,0,0,1,25.33,58c0-.17-.08-.35-.11-.52a.42.42,0,0,0,0-.06c-.06-.33-.13-.67-.19-1a38.29,38.29,0,0,1-.53-10.44c.32-3.57,2.7-8.25,5.09-13.43.73-1.62,1.46-3.25,2.13-4.92.45-1.11.87-2.23,1.24-3.36a33,33,0,0,0,1.57-6.62A14.35,14.35,0,0,0,34.66,16a19.78,19.78,0,0,0,0-3.08A14.87,14.87,0,0,1,51,13.46a11.39,11.39,0,0,1,4.31,5.08,21.47,21.47,0,0,1,1.28,5.87c.35,2.78.78,5.21,3.56,6.63,6.31,3.24,12.36,7.06,12.11,13.54s3.35,14.07,8.48,10.48C83.82,52.92,88.49,53.35,92.31,55.61Z"/><path class="cls-2" d="M60.59,91.08a45.35,45.35,0,0,1-6.31,1.52,46.88,46.88,0,0,1-7.73.64,46.35,46.35,0,0,1-23.42-6.3c-1.17-.67-2.3-1.4-3.4-2.18l-.34-.24c-.78-.56-1.55-1.15-2.29-1.76.19-1.52.41-3,.65-4.51,0-.13.05-.27.07-.4.26-1.55.56-3.07.89-4.56,0-.07,0-.13,0-.19a50.87,50.87,0,0,1,3.94-11.67,25,25,0,0,1,2.51-4l.31-.39a16.78,16.78,0,0,1,1.56-1.67c.7-.65,1.4-1.24,2.11-1.79,0,0,.07,0,.08,0A25.47,25.47,0,0,1,36,49.76,27.2,27.2,0,0,1,50,48.68l.69.13A33.28,33.28,0,0,1,55,50a28.89,28.89,0,0,1,5.13,2.19l.37,30.59Z"/><path d="M92.68,53.43c-.11.74-.24,1.46-.37,2.18a46.35,46.35,0,0,1-5.1,13.84,115.07,115.07,0,0,1-11.12-5.51C70,60.59,64.64,57.27,64.64,57.27l-2-4.05-8-15.9-2-4L52,32l-1.88-3.74-.37-.74-.19-.39-1.45-2.89,1.29-1,1.26-1,4.67-3.69a15.1,15.1,0,0,0,1.28,5.87,7.35,7.35,0,0,0,4.76,4.27c4.86,1.34,9.16,1.65,11.95,8s-.92,10.59,4.27,14,7-1.2,14.52,2.49Z"/><path class="cls-3" d="M49.27,39.1,50,49.72s-1.69,3.19-7.87,4.14c-4.6.7-6.24-1.57-6.24-1.57l.46-9.37,11-3.27Z"/><path d="M47.41,39.65a3.34,3.34,0,0,1-.23,1c-2,5.48-8.42,7.09-11.07,7.52l.26-5.29Z"/><path class="cls-3" d="M32.27,18.88s-4.62,13.71-1.89,21,9.38,5.49,13.3,3.7a13.45,13.45,0,0,0,5.59-4.43,5.73,5.73,0,0,0,6.11-2.78c2.22-3.74.32-7.64-1.92-8.37s-4.67,1-4.67,1l1.67-4S40.31,6.2,32.27,18.88Z"/><path d="M48.79,29s-5.57,1.69-10.12-4.24-4.44-8.57-4.44-8.57l-3.3,6.9s-1.32-4.43.21-7.49S34.61,13,34.61,13l12.81,1.92,4.27,9.71Z"/><path d="M36.8,39.15a3,3,0,0,1-.33,0,.5.5,0,0,1-.41-.57.5.5,0,0,1,.56-.42,3.47,3.47,0,0,0,3.1-1.77.5.5,0,0,1,.82.58A4.59,4.59,0,0,1,36.8,39.15Z"/><path d="M34.3,35.69a.49.49,0,0,1-.46-.31c-1.15-2.77.59-5.86.66-6a.51.51,0,0,1,.69-.19.5.5,0,0,1,.18.68s-1.57,2.8-.6,5.12a.51.51,0,0,1-.27.65A.48.48,0,0,1,34.3,35.69Z"/><path d="M40.27,29.23a.49.49,0,0,1-.42-.24,1.27,1.27,0,0,0-.84-.65,2.32,2.32,0,0,0-1.52.51.5.5,0,0,1-.71-.07.5.5,0,0,1,.07-.7,3.25,3.25,0,0,1,2.32-.72,2.18,2.18,0,0,1,1.53,1.1.5.5,0,0,1-.17.69A.5.5,0,0,1,40.27,29.23Z"/><path d="M32.81,29.32a.51.51,0,0,1-.46-.29c-.18-.41-.6-1-.9-1s-.45.25-.69.68a.5.5,0,1,1-.87-.5c.46-.81,1-1.2,1.61-1.17,1,.05,1.69,1.41,1.76,1.57a.49.49,0,0,1-.45.7Z"/><path d="M39.62,25.39a.49.49,0,0,1-.32-.12c-1.65-1.35-2.45-.63-2.48-.59a.52.52,0,0,1-.71,0,.5.5,0,0,1,0-.7c.06-.06,1.44-1.44,3.84.53a.51.51,0,0,1,.06.71A.48.48,0,0,1,39.62,25.39Z"/><path d="M31,25.72a.51.51,0,0,1-.31-.11.5.5,0,0,1-.08-.7c.18-.24,1.18-1.44,2.13-1.31a1.22,1.22,0,0,1,1,.86.5.5,0,1,1-.92.38c0-.05-.1-.24-.19-.25-.26,0-.85.47-1.22.93A.47.47,0,0,1,31,25.72Z"/><path d="M49.89,35.21a.51.51,0,0,1-.4-.81l3.24-4.14a.5.5,0,0,1,.7-.08.49.49,0,0,1,.08.7L50.28,35A.49.49,0,0,1,49.89,35.21Z"/><path d="M53.59,33.83l-2.54-.14a.5.5,0,0,1-.47-.53.49.49,0,0,1,.52-.47l2.52.15a.5.5,0,0,1,0,1Z"/><path class="cls-4" d="M66,89a46.79,46.79,0,0,1-11.71,3.6,46.88,46.88,0,0,1-7.73.64,46.35,46.35,0,0,1-23.42-6.3c-1.17-.67-2.3-1.4-3.4-2.18l-.34-.24c-.78-.56-1.55-1.15-2.29-1.76l-.12-.1c.25-1.5,7.47-25.83,8-26.29l1.26-.84a14.28,14.28,0,0,1,2.91-2s.07,0,.08,0-4.84,26-4.84,26l23.93-1.4L49.5,78s.66-5.85,2.19-13.31C53.59,55.43,55,50,55,50c2.41-.06,5.13,2.19,5.13,2.19L65.19,84Z"/><path class="cls-2" d="M82.13,76.73c-.52.62-1.06,1.22-1.61,1.81A46.66,46.66,0,0,1,66,89a46.79,46.79,0,0,1-11.71,3.6l2.28-20c.35-4.32,3.56-20.47,3.56-20.47s1,.34,2.49,1.08A38.92,38.92,0,0,1,76.08,63.94,29.65,29.65,0,0,1,80.61,72C81.2,73.62,81.7,75.19,82.13,76.73Z"/><path class="cls-5" d="M40.52,54.45c-3.67,0-5-1.78-5-1.88a.49.49,0,0,1,.13-.69.5.5,0,0,1,.69.12s1.71,2.22,6.93,1.14,6.87-4.39,6.93-4.53a.5.5,0,0,1,.92.4c-.07.16-1.76,3.89-7.64,5.11A14.66,14.66,0,0,1,40.52,54.45Z"/><path class="cls-5" d="M31,83.13a.5.5,0,0,1,0-1L51,80.63a.49.49,0,0,1,.53.46.5.5,0,0,1-.46.54L31,83.13Z"/></g></g></svg>