<svg xmlns="http://www.w3.org/2000/svg" viewBox="0 0 93.24 93.24"><defs><style>.cls-1{fill:#f7f5ff;}.cls-2{fill:#ffaf45;}.cls-3{fill:#f74d76;}.cls-4{fill:#fc8165;}.cls-5{fill:#fff;}</style></defs><g id="Camada_2" data-name="Camada 2"><g id="Layer_1" data-name="Layer 1"><path class="cls-1" d="M93.24,46.62A46.36,46.36,0,0,1,87,70c-.15.26-.31.52-.47.78-.37.62-.76,1.24-1.17,1.84-.17.25-.34.5-.53.75A46.59,46.59,0,0,1,59.24,91.51l-.67.18A46.64,46.64,0,0,1,8,72.64c-.79-1.15-1.52-2.35-2.19-3.57A46.62,46.62,0,1,1,93.24,46.62Z"/><path class="cls-2" d="M26.64,40.27S21.64,13.77,41,8.92,61.59,31.59,61.59,31.59s21.1,4,21.24,24.53C83,81.77,58.21,77.46,58.21,77.46L34.74,67.89S11.22,55.09,26.64,40.27Z"/><path class="cls-3" d="M84.8,73.35A46.59,46.59,0,0,1,59.24,91.51l-.67.18A46.64,46.64,0,0,1,8,72.64c6.26-8.56,14.11-15,19.45-17.34,7.9-3.4,20.43-5.68,32-2.37l.11,0a35,35,0,0,1,10,4.63A50.31,50.31,0,0,1,84.8,73.35Z"/><path class="cls-4" d="M37.46,44.88v.29l.24,5.34.17,4.18s-.35,1,4.52.66C48.92,54.9,51,52.1,51,52.1l.28-9.82-2,.38Z"/><path d="M37.46,45.17l.24,5.34c3.18-.39,8.95-1.76,11.29-6.76a4.06,4.06,0,0,0,.34-1.07L37.48,45.09Z"/><path class="cls-4" d="M35.39,19.61s-6.07,13.9-3.88,21.71,9.3,6.59,13.56,5.08a14.09,14.09,0,0,0,6.24-4.13,6,6,0,0,0,6.63-2.35C60.61,36.23,59,32,56.7,31s-5,.67-5,.67l2.12-4S44.93,7.09,35.39,19.61Z"/><path class="cls-2" d="M37.28,17.55a11.58,11.58,0,0,0,7,10.76C51.72,31.67,56.7,31,56.7,31l-.49-9.64L46.9,11.24l-8.33,2.65Z"/><polygon class="cls-2" points="51.22 29.54 51.25 33.75 55 30.05 51.22 29.54"/><path class="cls-3" d="M86.5,70.76c-.37.62-.76,1.24-1.17,1.84-.17.25-.34.5-.53.75A46.59,46.59,0,0,1,59.24,91.51l-.67.18.64-38.79.19,0,.11,0c2.3.39,17.37,3.37,25.46,15.23A23.72,23.72,0,0,1,86.5,70.76Z"/><path class="cls-5" d="M44,60.24c-1.88,0-3.06-1.58-3.63-2.88-1,1.09-2.93,2.87-4.21,2.12a1.28,1.28,0,0,1-.64-.89c-.28-1.35,1.23-3.49,1.41-3.73a.51.51,0,0,1,.53-.19c.07,0,7.32,1.83,13.37-2.57a.48.48,0,0,1,.42-.08.54.54,0,0,1,.33.28c.17.38,1.64,3.75-.13,4.84-1.2.74-2.43-.08-3.14-.75-.47,1.28-1.6,3.55-3.9,3.82ZM41,56.08a.56.56,0,0,1,.09.17c0,.14.88,3.24,3.26,3s3.29-3.88,3.29-3.92a.51.51,0,0,1,.39-.37.5.5,0,0,1,.5.18s1.42,1.81,2.45,1.18c.67-.41.34-2,0-3A17.36,17.36,0,0,1,41,56.08Zm-3.4-.36a4.94,4.94,0,0,0-1,2.66.32.32,0,0,0,.16.24c.58.33,2.28-1,3.51-2.55A19.18,19.18,0,0,1,37.58,55.72Z"/><path d="M33.67,24.69a.5.5,0,0,1-.48-.36.49.49,0,0,1,.33-.62l2.77-.87a.5.5,0,0,1,.3,1l-2.77.86A.4.4,0,0,1,33.67,24.69Z"/><path d="M52,38.16a.49.49,0,0,1-.37-.16.5.5,0,0,1,0-.71L56,33.35a.5.5,0,0,1,.67.73l-4.28,4A.5.5,0,0,1,52,38.16Z"/><path d="M56.35,37.64a.48.48,0,0,1-.2,0l-2.56-1.12a.51.51,0,0,1-.26-.66.5.5,0,0,1,.66-.26l2.56,1.12a.51.51,0,0,1,.26.66A.5.5,0,0,1,56.35,37.64Z"/><path d="M34.52,31.7h-.1A.51.51,0,0,1,34,31.1l.51-2.46-1-1.16a.51.51,0,0,1,.05-.71.49.49,0,0,1,.7.05l1.17,1.35a.48.48,0,0,1,.11.43L35,31.3A.49.49,0,0,1,34.52,31.7Z"/><path d="M42.91,32.13H42.8a.5.5,0,0,1-.38-.6l.51-2.46-1-1.16a.49.49,0,0,1,0-.7.51.51,0,0,1,.71.05l1.17,1.34A.52.52,0,0,1,44,29l-.56,2.71A.51.51,0,0,1,42.91,32.13Z"/><path d="M36.18,37.8a.5.5,0,0,1-.49-.39C34.76,33,36.92,30.72,37,30.63a.49.49,0,0,1,.7,0,.5.5,0,0,1,0,.71c-.08.08-1.86,2-1,5.87a.49.49,0,0,1-.39.59Z"/><path d="M40.7,42.08c-.3,0-1-.14-2.49-1.78a.75.75,0,0,1-.17-.69.78.78,0,0,1,.54-.52c3.56-1.07,4-.72,4.26-.55a1,1,0,0,1,.24,1.12c-.27.92-1.4,2.36-2.29,2.42Zm-1.46-2.14c.79.83,1.32,1.14,1.48,1.14a2,2,0,0,0,.83-.72,3,3,0,0,0,.59-1A11.89,11.89,0,0,0,39.24,39.94Z"/><path class="cls-5" d="M24,70.54c-.06.06-4.83,5.18-3.92,14.39-.29-.19-.57-.38-.85-.59l-.22-.17c-.59-9.14,4.21-14.25,4.27-14.32a.5.5,0,1,1,.72.69Z"/></g></g></svg>