<svg xmlns="http://www.w3.org/2000/svg" viewBox="0 0 93.25 93.24"><defs><style>.cls-1{fill:#f7f5ff;}.cls-2{fill:#e56445;}.cls-3{fill:#7c6053;}.cls-4{fill:#fca397;}.cls-5{fill:#fff;}</style></defs><g id="Camada_2" data-name="Camada 2"><g id="Layer_1" data-name="Layer 1"><path class="cls-1" d="M93.25,46.62a46.38,46.38,0,0,1-7.33,25.1,45.66,45.66,0,0,1-3.24,4.46c-.13.17-.26.33-.4.49-.86,1-1.77,2-2.71,3a44.71,44.71,0,0,1-4.88,4.23l-.15.11c-.36.28-.73.54-1.1.8s-.89.62-1.35.92l-.31.19a41.08,41.08,0,0,1-3.92,2.26c-.31.16-.62.32-.94.47a47.24,47.24,0,0,1-4.46,1.88,45,45,0,0,1-6.24,1.77,46.64,46.64,0,0,1-9.59,1c-.65,0-1.31,0-2,0s-1.49-.08-2.23-.15H42.3c-1.39-.13-2.77-.32-4.12-.58Q37,92.25,35.87,92a46.89,46.89,0,0,1-11.71-4.52l-.11-.06c-.2-.11-.4-.22-.59-.34-.61-.34-1.22-.7-1.81-1.08s-1.08-.7-1.61-1.07c-.95-.65-1.88-1.35-2.78-2.09l-.32-.25Q15,81,13.29,79.21c-.33-.33-.65-.67-1-1-.74-.79-1.45-1.62-2.11-2.46l-.43-.53,0-.06c-.78-1-1.51-2-2.2-3.09a46.62,46.62,0,1,1,85.7-25.44Z"/><path class="cls-2" d="M67.53,56.41S66.68,10.32,50.37,8.65s-18.23,9.8-18.23,9.8-4.07,1.45-4.89,7.64S26,57,26,57l36.82,2.11Z"/><path class="cls-3" d="M84.52,73.33c-.58,1-1.19,1.92-1.84,2.85-.13.17-.26.33-.4.49-.86,1-1.77,2-2.71,3a44.71,44.71,0,0,1-4.88,4.23c-.84.64-1.71,1.25-2.6,1.83l-.31.19a41.08,41.08,0,0,1-3.92,2.26c-.31.16-.62.32-.94.47a47.24,47.24,0,0,1-4.46,1.88,45,45,0,0,1-6.24,1.77,46.64,46.64,0,0,1-9.59,1c-.65,0-1.31,0-2,0s-1.49-.08-2.23-.15H42.3c-1.39-.13-2.77-.32-4.12-.58Q37,92.25,35.87,92a46.89,46.89,0,0,1-11.71-4.52l-.11-.06c-.2-.11-.4-.22-.59-.34-.61-.34-1.22-.7-1.81-1.08-3.12-12.32-4.37-23.49-.51-28a4.78,4.78,0,0,1,.66-.69,29.35,29.35,0,0,1,2.89-2.16l.1-.06a34.47,34.47,0,0,1,5.39-2.83l.06,0c12.24-5.1,28-4.25,36.62-.66C72.39,53.84,79.2,64,84.52,73.33Z"/><path class="cls-4" d="M39.09,39.9V51.22s2,3.25,8.66,3.79c4.93.4,6.5-2.13,6.5-2.13L53.05,43l-12-2.63Z"/><path d="M39.1,39.21a3.86,3.86,0,0,0,.33,1.09c2.54,5.65,11.45,8,14.3,8.26L53.05,43Z"/><path class="cls-5" d="M75.06,79.32,74.54,84c-.36.28-.73.54-1.1.8l.63-5.55c.78-7-2.69-15.63-2.73-15.72a.5.5,0,0,1,.93-.38C72.41,63.48,75.87,72.09,75.06,79.32Z"/><path class="cls-4" d="M55.58,17.17s5.94,14.19,3.6,22.08-9.54,6.53-13.84,4.93a14.36,14.36,0,0,1-6.26-4.28,6.09,6.09,0,0,1-6.69-2.49c-2.64-3.79-.91-8.07,1.41-9s5,.75,5,.75L36.75,25S46.1,4.33,55.58,17.17Z"/><path d="M54.66,35.12l-.16,0a.52.52,0,0,1-.32-.64c.85-2.54-1-5.38-1-5.4a.51.51,0,0,1,.14-.7.5.5,0,0,1,.69.14c.09.13,2.16,3.26,1.15,6.28A.49.49,0,0,1,54.66,35.12Z"/><path d="M38.09,35.79a.54.54,0,0,1-.37-.16L34,31.48a.5.5,0,0,1,.74-.67L38.46,35a.49.49,0,0,1,0,.7A.5.5,0,0,1,38.09,35.79Z"/><path d="M34.06,34.61a.5.5,0,0,1-.06-1l2.66-.35a.52.52,0,0,1,.56.44.51.51,0,0,1-.44.56l-2.65.34Z"/><path d="M57.66,23.65h-.1l-2.49-.5a.51.51,0,0,1-.39-.59.49.49,0,0,1,.59-.39l2.49.5a.48.48,0,0,1,.39.58A.5.5,0,0,1,57.66,23.65Z"/><path d="M47.22,25a.52.52,0,0,1-.46-.29.5.5,0,0,1,.24-.66l3.34-1.59a.5.5,0,0,1,.67.24.49.49,0,0,1-.24.66L47.43,25A.54.54,0,0,1,47.22,25Z"/><path d="M56.52,29.43a.49.49,0,0,1-.48-.36l-.72-2.57a.48.48,0,0,1,.1-.46l.81-.93a.49.49,0,0,1,.7-.06.51.51,0,0,1,0,.71l-.63.73L57,28.8a.5.5,0,0,1-.35.61A.3.3,0,0,1,56.52,29.43Z"/><path d="M48.38,29.94a.5.5,0,0,1-.48-.37L47.18,27a.48.48,0,0,1,.11-.47L48.4,25.3a.5.5,0,0,1,.71,0,.49.49,0,0,1,0,.7l-.92,1,.64,2.3a.51.51,0,0,1-.35.62Z"/><path class="cls-2" d="M59.65,22.21A36,36,0,0,0,53,21.53l-2.74.1-1.12-4.41,0,4.81a14.31,14.31,0,0,0-7,3.58L40.29,21.9l.76,4.67-2.22,2.57L35.47,26l2.15-6.51s5.07-7.07,5.46-7.16,7.69-.48,7.69-.48,6.28,2.45,6.43,2.66S59.65,22.21,59.65,22.21Z"/><path class="cls-5" d="M48.63,55.16a17.94,17.94,0,0,1-10.3-3.43.51.51,0,0,1-.13-.7.5.5,0,0,1,.7-.12c8.66,6,15.62,2,15.91,1.85a.51.51,0,0,1,.69.18.49.49,0,0,1-.18.68A14.28,14.28,0,0,1,48.63,55.16Z"/><path class="cls-3" d="M42.3,93c-1.39-.13-2.77-.32-4.12-.58Q37,92.25,35.87,92a46.89,46.89,0,0,1-11.71-4.52l-.11-.06c-.2-.11-.4-.22-.59-.34-.61-.34-1.22-.7-1.81-1.08s-1.08-.7-1.61-1.07c-.95-.65-1.88-1.35-2.78-2.09l-.32-.25Q15,81,13.29,79.21c-.33-.33-.65-.67-1-1-.74-.79-1.45-1.62-2.11-2.46l-.43-.53,0-.06A45.58,45.58,0,0,1,21.14,58a33.52,33.52,0,0,1,3.55-2.85l.1-.06a21.7,21.7,0,0,1,5.39-2.83l.06,0S42.3,93,42.3,93Z"/><path d="M53.19,39.44a5.88,5.88,0,0,1-3-1.48.5.5,0,0,1-.14-.56.48.48,0,0,1,.47-.32l4.62.08a.48.48,0,0,1,.45.31.49.49,0,0,1-.1.54,7.62,7.62,0,0,1-1.73,1.28A1.25,1.25,0,0,1,53.19,39.44Zm-1-1.33c.49.26.93.4,1.13.3a5.11,5.11,0,0,0,.46-.28Z"/></g></g></svg>