<svg xmlns="http://www.w3.org/2000/svg" viewBox="0 0 93.25 93.24"><defs><style>.cls-1{fill:#f7f5ff;}.cls-2{fill:#f74d76;}.cls-3{fill:#80baff;}.cls-4{fill:#fc8165;}.cls-5{fill:#fff;}</style></defs><g id="Camada_2" data-name="Camada 2"><g id="Layer_1" data-name="Layer 1"><path class="cls-1" d="M93.25,46.62a46.24,46.24,0,0,1-9.07,27.61c-.27.38-.56.76-.85,1.13A46.73,46.73,0,0,1,41.74,93c-1.05-.11-2.09-.26-3.12-.44s-2.26-.44-3.37-.72l-.64-.16-.56-.15a43.27,43.27,0,0,1-4.66-1.58,46,46,0,0,1-8.46-4.42c-.48-.32-.95-.64-1.42-1s-.67-.47-1-.72A46.09,46.09,0,0,1,14.08,80c-.45-.43-.88-.88-1.31-1.33A46.62,46.62,0,1,1,93.25,46.62Z"/><path d="M33,23.08s-5.1,4.54-5.54,9.14l-.44,4.6s-6.15,2-7.93,9.93c-2.41,10.74,4.53,14.56,4.53,14.56l53.7,6.76a18.17,18.17,0,0,0,4.87-15.24c-1.36-9.45-6.59-12.51-6.59-12.51A24,24,0,0,0,73.5,28.15a12.33,12.33,0,0,0-10.2-7.22Z"/><path class="cls-2" d="M84.18,74.23c-.27.38-.56.76-.85,1.13A46.73,46.73,0,0,1,41.74,93c-1.05-.11-2.09-.26-3.12-.44s-2.26-.44-3.37-.72l-.64-.16a44.32,44.32,0,0,1-5.22-1.73,46,46,0,0,1-8.46-4.42c-.48-.32-.95-.64-1.42-1,.06-.83.11-1.27.11-1.27l8-25.11.78-2.48A6.58,6.58,0,0,1,31,52.14a6.22,6.22,0,0,1,2.16-.92c1.46-.34,3.27-.71,5.34-1.06.64-.09,1.29-.2,2-.29,2.14-.3,4.49-.53,6.91-.64,1.46-.06,2.92-.07,4.39,0,.65,0,1.31,0,2,.1s1.51.13,2.27.22,1.68.23,2.52.4a32.1,32.1,0,0,1,5.53,1.55c4.68,1.83,8.75,5.6,12.11,9.82A72.38,72.38,0,0,1,84.18,74.23Z"/><path class="cls-3" d="M53.93,47s3.45,1.13,4.5,2.74c1.17,1.8-1,6.54-7.27,10.23a34.67,34.67,0,0,1-8.42,3.65s-4-5.49-4.73-8.83S40,47,40,47Z"/><path d="M35.64,31.06s-4.15-6.34-4.12-9.45,10.41-14.08,21.26-11,13.7,16.19,12.32,22C61.56,47.7,48.33,43.19,48.33,43.19S28,40.46,35.64,31.06Z"/><path class="cls-4" d="M40,46.74,40,47l.86,5.17.66,4s-.23,1,4.47.1c6.3-1.2,8-4.18,8-4.18l-.88-9.57-1.89.6Z"/><path d="M40,47l.86,5.17c3-.75,8.5-2.77,10.18-7.9a4.09,4.09,0,0,0,.2-1.08L40.05,46.93Z"/><path class="cls-4" d="M35,22.42S30.75,36.65,33.8,44s9.82,5.3,13.78,3.33a13.86,13.86,0,0,0,5.58-4.74,5.87,5.87,0,0,0,6.17-3.07c2.15-3.91.06-7.84-2.27-8.52s-4.75,1.23-4.75,1.23L53.89,28S42.81,9.13,35,22.42Z"/><path d="M37.67,39.58a.52.52,0,0,1-.46-.29c-1.27-2.8.4-6,.47-6.16a.5.5,0,0,1,.68-.21.51.51,0,0,1,.21.67s-1.52,2.93-.45,5.28a.5.5,0,0,1-.24.67A.52.52,0,0,1,37.67,39.58Z"/><path d="M53.64,38.54a.52.52,0,0,1-.29-.09.49.49,0,0,1-.11-.7l3.17-4.36a.5.5,0,0,1,.69-.11.49.49,0,0,1,.11.7l-3.16,4.36A.51.51,0,0,1,53.64,38.54Z"/><path d="M57.39,37l-2.6,0a.5.5,0,1,1,0-1l2.59,0a.5.5,0,0,1,.49.52A.5.5,0,0,1,57.39,37Z"/><path d="M40.75,44.58a1.43,1.43,0,0,1-.46-.07c-1.15-.36-1.82-2-1.89-2.19a.49.49,0,0,1,.25-.63l5.05-2.43a.5.5,0,0,1,.69.61c0,.13-1.1,3.33-2.71,4.41A1.68,1.68,0,0,1,40.75,44.58Zm-1.23-2.2a2.45,2.45,0,0,0,1.07,1.18.58.58,0,0,0,.53-.11A6.9,6.9,0,0,0,43,40.71Z"/><path d="M44.23,28.64a.5.5,0,0,1-.41-.22c-.73-1.07-2.29-.54-2.35-.52a.5.5,0,1,1-.33-.95c.09,0,2.33-.8,3.5.9a.51.51,0,0,1-.12.7A.52.52,0,0,1,44.23,28.64Z"/><path d="M33.31,28.58a.52.52,0,0,1-.33-.12.49.49,0,0,1,0-.7,3.55,3.55,0,0,1,2.26-1.18,2.13,2.13,0,0,1,1.6.77.5.5,0,1,1-.74.67,1.15,1.15,0,0,0-.85-.44,2.4,2.4,0,0,0-1.51.84A.51.51,0,0,1,33.31,28.58Z"/><path d="M52.31,32.21S46,30,43.35,26s-3-6.09-3-6.09-.51,2.89-2.57,3.82a16.92,16.92,0,0,1-3.39,1.18L33.5,29l-.32-9.55s5.43-3.86,6.21-3.95,10.84.4,11.48.92,4.72,7.76,4.72,7.76l.66,3.42Z"/><path class="cls-3" d="M53.62,47.63S46.9,54,43,54s-3.38-3.24-3.38-3.24l.65,7.56,3.48,1.14L52.4,56l4.88-5.46Z"/><path class="cls-3" d="M46.51,59.84A22.5,22.5,0,0,1,50.06,70.2C50.66,76.53,47,83.64,47,83.64S41.1,77,40.32,71.92s1.91-12.2,1.91-12.2a57.76,57.76,0,0,0-3.33,9.79C38.25,73.22,37.33,78,37.33,78S33.76,73.26,34,67.64s6.26-9.32,6.26-9.32Z"/><path class="cls-5" d="M45.76,61.67a17.94,17.94,0,0,1-4-.65l-.08,0a.49.49,0,0,1-.25-.26c-.35-.83-2.07-5.09-1-6.61a1.4,1.4,0,0,1,1.35-.57,1.69,1.69,0,0,1,1.35.8c.88,1.46-.12,4.56-.6,5.85a10.84,10.84,0,0,0,4,.38c1-.28,1.51-3.57,1.13-5.43a.5.5,0,0,1,.39-.59.51.51,0,0,1,.59.39c.34,1.66.12,6-1.83,6.59A4.18,4.18,0,0,1,45.76,61.67Zm-4.12-7.13a.38.38,0,0,0-.37.16c-.46.63,0,2.67.6,4.42.51-1.56.9-3.48.43-4.25a.66.66,0,0,0-.57-.32Z"/><path class="cls-5" d="M45.57,70.24a1.41,1.41,0,0,1-1.12-.54c-1.4-1.74-.09-7.75.06-8.43a.49.49,0,0,1,.45-.39.51.51,0,0,1,.51.32c.4,1.12,2.37,6.78,1.18,8.48a1.23,1.23,0,0,1-1.07.56Zm-.44-6.87c-.36,2.27-.53,4.91.1,5.7a.41.41,0,0,0,.34.17.27.27,0,0,0,.26-.13C46.35,68.37,45.83,65.72,45.13,63.37Z"/><path class="cls-2" d="M34.05,91.52a43.27,43.27,0,0,1-4.66-1.58,46,46,0,0,1-8.46-4.42c-.48-.32-.95-.64-1.42-1s-.67-.47-1-.72A46.09,46.09,0,0,1,14.08,80c-.45-.43-.88-.88-1.31-1.33,2.81-10.76,7.51-17.53,11.45-21.59a23.07,23.07,0,0,1,7.48-5.32c-.06.13-.62.24-.66.38a26.74,26.74,0,0,0-.62,6.32C30.39,66.91,32.19,80.09,34.05,91.52Z"/><path d="M42.77,34.19a.5.5,0,0,1-.5-.5v-2l-1.19-.93a.5.5,0,0,1-.08-.7.5.5,0,0,1,.7-.09l1.38,1.08a.51.51,0,0,1,.19.4v2.24A.51.51,0,0,1,42.77,34.19Z"/><path d="M35.16,34.19a.51.51,0,0,1-.5-.5v-2l-1.18-.93a.5.5,0,0,1-.09-.7A.51.51,0,0,1,34.1,30l1.37,1.08a.51.51,0,0,1,.19.4v2.24A.5.5,0,0,1,35.16,34.19Z"/></g></g></svg>