<svg xmlns="http://www.w3.org/2000/svg" viewBox="0 0 70.29 83.06"><defs><style>.cls-1{fill:#f7734f;}.cls-2{fill:#7772d3;}.cls-3{fill:#5c5cc6;}.cls-4{fill:#9e5951;}.cls-5{fill:#46467f;}</style></defs><g id="Camada_2" data-name="Camada 2"><g id="Layer_1" data-name="Layer 1"><path class="cls-1" d="M8.47,74.88a42.23,42.23,0,0,1-4.84-3.81c-.17-.15-.34-.3-.5-.46-1-1-2-2-3-3L0,67.42c2.93-8,7.66-20.06,11.26-22.35l.15-.11.17-.1C13.11,44.66,11.22,58.51,8.47,74.88Z"/><path class="cls-1" d="M70.29,66.68a46,46,0,0,1-10,8.82c-1,.65-2,1.27-3.07,1.84A46.66,46.66,0,0,1,9,75.28l-.57-.4a42.23,42.23,0,0,1-4.84-3.81c-.17-.15-.34-.3-.5-.46C4.23,63.09,5.67,56,7.5,51.15c1.11-3,2.35-5.1,3.76-6.08l.15-.11.17-.1c7.48-4.75,27.81-3.2,40.33-1.17A12.17,12.17,0,0,1,60,48.91C63.11,53.48,67.86,60.83,70.29,66.68Z"/><path class="cls-2" d="M46.38,2.73S46,.1,48.48,1.17s1.44,3.72,0,3.36A3.54,3.54,0,0,1,46.38,2.73Z"/><path d="M51.24,19.36s-.4,7.11-3.6,7.43-7.9-3.71-7.9-3.71l2.21-8Z"/><path class="cls-3" d="M26.83,17.34S16.39,14,14.83,9.56,33,11.83,33,11.83Z"/><path class="cls-4" d="M42,32.55l-.81,11.3s-2,3.18-8.57,3.65c-4.86.36-6.55-.76-6.55-.76l.73-5.63.71-5.5,11.8-2.49Z"/><path d="M39.26,33.12a3.43,3.43,0,0,1-.34,1.07c-2.54,5.55-9.37,6.69-12.17,6.92l.71-5.5Z"/><path class="cls-4" d="M25.2,10.18s-6,13.92-3.73,21.71,9.33,6.51,13.57,5a14.07,14.07,0,0,0,6.2-4.15,6,6,0,0,0,6.61-2.39c2.63-3.71,1-7.94-1.31-8.9s-5,.7-5,.7l2.09-4.05S34.64-2.37,25.2,10.18Z"/><path d="M42,28.19a.48.48,0,0,1-.41-.21.49.49,0,0,1,.12-.69l5.05-3.57a.5.5,0,0,1,.7.12.51.51,0,0,1-.12.7L42.23,28.1A.47.47,0,0,1,42,28.19Z"/><path d="M46.52,28.17h-.13l-3.29-.88a.51.51,0,0,1-.36-.62.5.5,0,0,1,.61-.35l3.3.88a.5.5,0,0,1-.13,1Z"/><path d="M34.49,16.87a.5.5,0,0,1-.4-.19,2.25,2.25,0,0,0-1.44-1,2.11,2.11,0,0,0-1.44.4.5.5,0,0,1-.62-.79,3.14,3.14,0,0,1,2.17-.6,3.17,3.17,0,0,1,2.13,1.36.51.51,0,0,1-.1.7A.49.49,0,0,1,34.49,16.87Z"/><path d="M23.68,15.88a.49.49,0,0,1-.38-.18.51.51,0,0,1,.07-.71,2.36,2.36,0,0,1,1.85-.66,1.35,1.35,0,0,1,.9.63.5.5,0,0,1-.87.5.34.34,0,0,0-.23-.15c-.14,0-.47,0-1,.46A.46.46,0,0,1,23.68,15.88Z"/><path d="M25.64,27.43a.5.5,0,0,1-.48-.37A11.09,11.09,0,0,1,25.53,21a.5.5,0,0,1,.64-.29.5.5,0,0,1,.29.64,10.32,10.32,0,0,0-.34,5.5.49.49,0,0,1-.35.61A.3.3,0,0,1,25.64,27.43Z"/><path d="M23.69,21.22a.34.34,0,0,1-.14,0,.5.5,0,0,1-.35-.61L23.93,18a.49.49,0,0,1,.61-.35.51.51,0,0,1,.35.62l-.72,2.55A.49.49,0,0,1,23.69,21.22Z"/><path d="M31.86,21.45l-.13,0a.51.51,0,0,1-.35-.62l.72-2.55a.52.52,0,0,1,.62-.35.51.51,0,0,1,.35.62l-.72,2.55A.52.52,0,0,1,31.86,21.45Z"/><path d="M24.41,12.2s.82-1.11,3.6-1.1a6,6,0,0,1,4.39,2s.23,5,4,7.56,5.19,1.48,5.19,1.48l2.75-1,2.05-4L38.53,8.56l-9.45-4-4.67,5.2Z"/><path d="M28.45,30.67h-.31a.5.5,0,0,1-.45-.55.51.51,0,0,1,.55-.45,3.27,3.27,0,0,0,3.19-1.75.5.5,0,1,1,.9.43A4.18,4.18,0,0,1,28.45,30.67Z"/><path class="cls-2" d="M24.05,9.13S28-2.06,42,.34s9.29,20.14,9.29,20.14l-6.37-2.07Z"/><path class="cls-3" d="M20,8.34s4.88.18,17.48,6a85.25,85.25,0,0,1,8.12,4.36s-14.49-6.09-20.13-6a7.89,7.89,0,0,0-3.56.84Z"/><path class="cls-5" d="M30.28,47.88a20.18,20.18,0,0,1-4.38-.44.5.5,0,0,1-.37-.6.49.49,0,0,1,.6-.37c.09,0,8.33,1.91,14.71-2.81a.5.5,0,1,1,.59.8A18.6,18.6,0,0,1,30.28,47.88Z"/></g></g></svg>