<svg xmlns="http://www.w3.org/2000/svg" viewBox="0 0 93.25 93.24"><defs><style>.cls-1{fill:#f7f5ff;}.cls-2{fill:#fc8165;}.cls-3{fill:#f74d76;}.cls-4{fill:#fff;}</style></defs><g id="Camada_2" data-name="Camada 2"><g id="Layer_1" data-name="Layer 1"><path class="cls-1" d="M93.25,46.62A46.63,46.63,0,0,1,19,84.19c-.36-.26-.71-.53-1.06-.81A46.62,46.62,0,1,1,93.25,46.62Z"/><path d="M43.07,19.67s6.27-8.77,22.33-.08,9.24,48.59,9.24,48.59L44.43,64.29Z"/><path class="cls-2" d="M48.33,43,49,54.47s-1.79,3.42-8.21,4.35C36,59.52,34.36,57,34.36,57l.54-10.12,11.5-3.37Z"/><path d="M48.27,42.28A4,4,0,0,1,48,43.41c-2.12,5.89-10.67,8.8-13.43,9.22l.31-5.71Z"/><path class="cls-2" d="M30.81,20.88s-4.9,14.75-2.12,22.62,9.72,6.06,13.81,4.19A14,14,0,0,0,48.33,43a5.8,5.8,0,0,0,6.37-2.91c2.34-4,.39-8.25-1.94-9.08s-4.86,1.06-4.86,1.06l1.78-4.31S39.25,7.3,30.81,20.88Z"/><path d="M32.81,39a.51.51,0,0,1-.47-.32c-1.17-3,.65-6.28.73-6.42a.49.49,0,0,1,.68-.19.5.5,0,0,1,.19.68s-1.66,3-.67,5.57A.5.5,0,0,1,33,39,.57.57,0,0,1,32.81,39Z"/><path d="M49,38.75a.47.47,0,0,1-.3-.1.51.51,0,0,1-.1-.71L52,33.52a.5.5,0,1,1,.79.61l-3.38,4.42A.51.51,0,0,1,49,38.75Z"/><path d="M52.87,37.32l-2.66-.19a.5.5,0,0,1,.08-1l2.61.19a.49.49,0,0,1,.46.53A.5.5,0,0,1,52.87,37.32Z"/><path d="M29.15,27.57a.49.49,0,0,1-.48-.37.5.5,0,0,1,.35-.61l2.4-.65a.51.51,0,0,1,.62.35.5.5,0,0,1-.36.61l-2.4.66Z"/><path d="M39.43,28.36h-.12l-3.4-.88a.5.5,0,0,1,.25-1l3.4.88a.51.51,0,0,1,.36.61A.51.51,0,0,1,39.43,28.36Z"/><path d="M29.66,33.44h-.1a.5.5,0,0,1-.39-.59l.49-2.4L29,29.73a.5.5,0,1,1,.73-.68l.84.9a.51.51,0,0,1,.13.44L30.15,33A.51.51,0,0,1,29.66,33.44Z"/><path d="M37.24,33.53h-.1a.5.5,0,0,1-.39-.59l.48-2.38-1-1a.51.51,0,0,1,0-.71.5.5,0,0,1,.71,0L38.13,30a.46.46,0,0,1,.13.45l-.53,2.64A.5.5,0,0,1,37.24,33.53Z"/><path class="cls-3" d="M34.22,59.1S33,53,34.59,52.63s3.51.68,7.26-.25S47.57,50,48.76,50s.83,7.62.83,7.62l-9.27,3.92Z"/><path d="M53.42,31.34A7.19,7.19,0,0,0,50.27,31a5.7,5.7,0,0,0-2.37,1.1l-1.65,2.3.93-4.72a32.21,32.21,0,0,0-3-1.39l.62-4.07-1.66,3.67a24.86,24.86,0,0,0-5.84-1.48,28.33,28.33,0,0,0-3-.19l.54-4.43-1.66,4.43a15.18,15.18,0,0,0-3.33.39l-1.49,4.56s-.37-12.31,5-15.7S48.42,12,52.91,17.86,53.42,31.34,53.42,31.34Z"/><path d="M36.61,42.09a.5.5,0,0,1-.06-1A3.62,3.62,0,0,0,39,39a.5.5,0,0,1,.67-.21.49.49,0,0,1,.21.67,4.51,4.51,0,0,1-3.2,2.67Z"/><path class="cls-3" d="M80.6,78.54A46.62,46.62,0,0,1,9.06,74.23c4.2-5.2,13.28-14.67,25.29-17.18C50.05,53.76,72.33,57.33,80.6,78.54Z"/><path class="cls-4" d="M42.9,57.12a.51.51,0,0,1-.5-.5.5.5,0,0,1,.5-.5,14,14,0,0,0,5.24-1.23.5.5,0,0,1,.43.91A14.92,14.92,0,0,1,42.9,57.12Z"/><path class="cls-4" d="M62.5,88.53c-4.32,0-6.82-7.29-6.93-7.61a.53.53,0,0,1,.11-.51.54.54,0,0,1,.5-.14l2.57.72,0-3.44a.51.51,0,0,1,.3-.46.51.51,0,0,1,.53.09l2.9,2.59,1.55-2.48a.51.51,0,0,1,.49-.24.53.53,0,0,1,.41.35c.09.28,2,6.74.27,9.66a2.9,2.9,0,0,1-2,1.41A4,4,0,0,1,62.5,88.53Zm-5.63-7c.83,2,3.09,6.53,6.15,6a1.91,1.91,0,0,0,1.37-.94c1.07-1.77.47-5.55-.08-7.75l-1.25,2a.52.52,0,0,1-.35.23.49.49,0,0,1-.41-.12l-2.52-2.25,0,3a.49.49,0,0,1-.2.39.5.5,0,0,1-.44.09Z"/><path class="cls-4" d="M25.38,86.07a3,3,0,0,1-1.28-.3c-4.35-2.07-1.94-10.23-1.83-10.57a.5.5,0,0,1,.38-.35.47.47,0,0,1,.48.18l1.69,2.07,2-2.79a.52.52,0,0,1,.51-.19.49.49,0,0,1,.38.38l.87,3.79,2.69-1.13a.51.51,0,0,1,.54.1.5.5,0,0,1,.13.52c-.09.27-2.23,6.68-5.38,8A3.05,3.05,0,0,1,25.38,86.07ZM23,76.43c-.47,2.1-1.27,7.1,1.55,8.43a1.93,1.93,0,0,0,1.66,0c2-.87,3.7-4.53,4.43-6.36l-2.18.91a.5.5,0,0,1-.43,0,.47.47,0,0,1-.25-.33L27,75.79l-1.76,2.42a.47.47,0,0,1-.39.21.5.5,0,0,1-.4-.18Z"/><path class="cls-4" d="M43.47,74.19a3,3,0,0,1-.42,0c-4.78-.63-5-9.14-5-9.5a.51.51,0,0,1,.26-.45.49.49,0,0,1,.51,0l2.24,1.46,1.07-3.27a.54.54,0,0,1,.42-.35.53.53,0,0,1,.49.25l2,3.34,2.22-1.9a.47.47,0,0,1,.53-.07.5.5,0,0,1,.29.46c0,.28-.08,7-2.66,9.28A2.9,2.9,0,0,1,43.47,74.19Zm-4.35-8.58c.19,2.15,1,7.15,4.06,7.56a1.92,1.92,0,0,0,1.59-.49c1.67-1.45,2.13-5.44,2.26-7.41l-1.8,1.53a.49.49,0,0,1-.75-.12l-1.73-2.91-.93,2.85a.48.48,0,0,1-.31.31.46.46,0,0,1-.44-.05Z"/><path class="cls-4" d="M24,68a22.62,22.62,0,0,0-5,16.22c-.36-.25-.71-.52-1.06-.8A23.69,23.69,0,0,1,23.3,67.29a.49.49,0,0,1,.7,0A.48.48,0,0,1,24,68Z"/></g></g></svg>