<svg xmlns="http://www.w3.org/2000/svg" viewBox="0 0 93.25 93.25"><defs><style>.cls-1{fill:#f7f5ff;}.cls-2{fill:#f74d76;}.cls-3{fill:#fca397;}.cls-4{fill:#ada4f7;}.cls-5{fill:#fff;}.cls-6{fill:#ffaf45;}</style></defs><g id="Camada_2" data-name="Camada 2"><g id="Layer_1" data-name="Layer 1"><path class="cls-1" d="M93.25,46.63a46.44,46.44,0,0,1-4.4,19.79A44,44,0,0,1,85.71,72c-.2.32-.41.63-.62.94a45.67,45.67,0,0,1-4.64,5.74,46.37,46.37,0,0,1-5.72,5.12l-.81.6A46.31,46.31,0,0,1,63.64,90l-.08,0-.56.22a46.23,46.23,0,0,1-6,1.8l-1,.21a46.08,46.08,0,0,1-9.39,1c-.63,0-1.25,0-1.87,0h-.31c-1.16,0-2.32-.15-3.45-.29l-1.1-.14a46.1,46.1,0,0,1-13.12-4c-.38-.17-.75-.36-1.12-.55-.95-.47-1.87-1-2.78-1.52-.65-.38-1.28-.78-1.91-1.19-1.07-.7-2.1-1.44-3.1-2.23-.2-.16-.4-.31-.59-.48-.39-.3-.76-.62-1.13-.94s-.59-.51-.87-.77A46.43,46.43,0,0,1,8,72.81l-.15-.22c-.11-.16-.21-.32-.31-.48A46.63,46.63,0,1,1,93.25,46.63Z"/><path class="cls-2" d="M29.08,44.46c0,2.48-.92,4.49-2.06,4.49S25,46.94,25,44.46,25.89,40,27,40,29.08,42,29.08,44.46Z"/><path d="M38,21.89S44.88,8,56.46,14.71,58.34,34.9,75.85,38.47C85,40.33,90.66,47.86,88.31,56.7c-2.28,8.6-12.44,9-12.44,9S64.78,81.63,52.12,76.94,33.56,64.77,34.61,52.81,38,21.89,38,21.89Z"/><path d="M25.67,34.11s-7.36-10.45,7.14-19S58.13,17.88,58.33,24s-3.24,9-3.24,9,1.55,13.26-11.22,12.52S25.67,34.11,25.67,34.11Z"/><path class="cls-3" d="M45.07,43.38l.41,10.72S43.67,57.26,37.42,58c-4.66.57-6.34-.43-6.34-.43l.44-5.45L32,46.81l11.22-2.93Z"/><path d="M45,42.87a3.87,3.87,0,0,1-.27,1.05c-2.19,5.45-10.55,7.86-13.24,8.21L32,46.81Z"/><path class="cls-3" d="M28.61,22.47s-5.1,13.66-2.59,21,9.27,5.83,13.28,4.16a13.53,13.53,0,0,0,5.77-4.28,5.77,5.77,0,0,0,6.24-2.61c2.36-3.68.57-7.67-1.66-8.49s-4.74.9-4.74.9l1.82-4S37.11,10,28.61,22.47Z"/><path d="M29.9,38.75a.49.49,0,0,1-.49-.41c-.81-4.54.94-7,1-7.08a.5.5,0,0,1,.7-.11.51.51,0,0,1,.11.7s-1.57,2.25-.84,6.32a.5.5,0,0,1-.4.58Z"/><path d="M45.28,38.69a.51.51,0,0,1-.44-.26.5.5,0,0,1,.2-.68l5.18-2.85a.49.49,0,0,1,.68.19.51.51,0,0,1-.2.68l-5.18,2.85A.55.55,0,0,1,45.28,38.69Z"/><path d="M50.16,39.56a.52.52,0,0,1-.33-.12l-2.54-2.16a.5.5,0,1,1,.64-.76l2.55,2.16a.5.5,0,0,1-.32.88Z"/><path d="M25.67,34.11a22.08,22.08,0,0,1,4.67-8.89l3.89-4.76s.17,8.42,4.19,11.76,6.49,1,6.49,1l6.71-6.85L37.94,15.54S23.6,16.09,25.67,34.11Z"/><path class="cls-4" d="M63.56,90.07l-.56.22a46.33,46.33,0,0,1-16.37,3c-.73,0-1.46,0-2.18,0A46.34,46.34,0,0,1,21,85.56c-1.07-.7-2.1-1.44-3.1-2.23s-1.76-1.43-2.59-2.19c-.13-1.14-.23-2.38-.3-3.7A28.34,28.34,0,0,1,18.12,63.9a15.41,15.41,0,0,1,10.6-8.36l3.13-.68s22.95-2,27.12-.1l.06,0c.37.18.57.39.59.64C59.81,57.89,61.84,75.35,63.56,90.07Z"/><path class="cls-4" d="M85.71,72c-.2.32-.41.63-.62.94a45.67,45.67,0,0,1-4.64,5.74A46.49,46.49,0,0,1,63.64,90l-.08,0-.56.22a46.33,46.33,0,0,1-16.37,3c-.63,0-1.25,0-1.87,0L59,54.76l.06,0C59.94,55.13,77.22,58.27,85.71,72Z"/><path class="cls-3" d="M31.35,54.26l-4,1.59s-.78,8,8.74,7.79C46,63.39,53.26,54,53.26,54l-8.8-.73Z"/><path class="cls-5" d="M35.6,64.14A9,9,0,0,1,29,61.84a8.25,8.25,0,0,1-2.18-6,.52.52,0,0,1,.54-.46.5.5,0,0,1,.46.54,7.35,7.35,0,0,0,1.9,5.25c1.55,1.55,4,2.2,7.19,2,10-.78,15.89-9.3,15.94-9.39a.52.52,0,0,1,.7-.13.5.5,0,0,1,.13.7c-.25.37-6.26,9-16.69,9.82C36.5,64.13,36.05,64.14,35.6,64.14Z"/><path d="M33.29,42.56a.48.48,0,0,1-.47-.33.5.5,0,0,1,.3-.64,4.6,4.6,0,0,0,2.16-2,.52.52,0,0,1,.69-.19.51.51,0,0,1,.18.69,5.67,5.67,0,0,1-2.69,2.4A.52.52,0,0,1,33.29,42.56Z"/><path class="cls-6" d="M58.15,27.32a.52.52,0,0,1-.5-.51,14,14,0,0,0-8.76-13.74.5.5,0,0,1-.31-.63.5.5,0,0,1,.64-.31,15.2,15.2,0,0,1,9.43,14.7A.49.49,0,0,1,58.15,27.32Z"/><path class="cls-4" d="M25.32,56.7,22.88,86.75c-.65-.38-1.28-.78-1.91-1.19-1.07-.7-2.1-1.44-3.1-2.23s-1.76-1.43-2.59-2.19A46.43,46.43,0,0,1,8,72.81l-.15-.22c-.11-.16-.21-.32-.31-.48a73.46,73.46,0,0,1,8-8.47C22.44,57.6,25.32,56.7,25.32,56.7Z"/><path class="cls-5" d="M22,63.09c-.07.07-6.54,6.78-4.72,19.76-.39-.3-.76-.62-1.13-.94C14.73,69.15,21,62.68,21.29,62.39a.5.5,0,0,1,.71,0A.5.5,0,0,1,22,63.09Z"/><path d="M27,28.09a.5.5,0,0,1-.49-.39.49.49,0,0,1,.38-.59l2.58-.59a.5.5,0,1,1,.22,1l-2.58.58Z"/><path d="M36.83,28.43l-.16,0-3.12-1a.51.51,0,0,1-.32-.63.52.52,0,0,1,.64-.32l3.12,1a.52.52,0,0,1,.32.64A.5.5,0,0,1,36.83,28.43Z"/><path d="M27.91,33.14h-.09a.5.5,0,0,1-.4-.59l.36-1.94-.68-.79a.5.5,0,0,1,.76-.66l.83,1a.47.47,0,0,1,.11.41l-.4,2.18A.49.49,0,0,1,27.91,33.14Z"/><path d="M35.07,33.38H35a.5.5,0,0,1-.4-.58l.35-1.92-.78-.74a.5.5,0,0,1,0-.71.49.49,0,0,1,.7,0l1,.92a.49.49,0,0,1,.15.45L35.56,33A.49.49,0,0,1,35.07,33.38Z"/><path class="cls-2" d="M50.16,44.79c0,2.49-.92,4.5-2.06,4.5s-2.05-2-2.05-4.5S47,40.3,48.1,40.3,50.16,42.31,50.16,44.79Z"/><path class="cls-5" d="M29.28,61.11c-.06.15-5.32,14.66-2.5,27.71-.38-.17-.75-.36-1.12-.55-2.54-13.14,2.63-27.35,2.68-27.51a.5.5,0,0,1,.64-.3A.52.52,0,0,1,29.28,61.11Z"/><path class="cls-5" d="M41,92.91l-1.1-.14c-1.19-4-3.09-13.34-2.13-29.16a.48.48,0,0,1,.53-.46.49.49,0,0,1,.47.52C37.8,79.81,39.88,89.19,41,92.91Z"/><path class="cls-5" d="M57,92.09l-1,.21c-3-5.34-9-17.35-11.49-31.06a.5.5,0,0,1,1-.18C48.06,74.88,54.16,87,57,92.09Z"/><path class="cls-5" d="M74.73,83.83l-.81.6c-3-6.06-9.73-19.14-23.85-26.28a.5.5,0,1,1,.45-.89C64.75,64.45,71.59,77.58,74.73,83.83Z"/></g></g></svg>