<svg xmlns="http://www.w3.org/2000/svg" viewBox="0 0 93.24 93.24"><defs><style>.cls-1{fill:#f7f5ff;}.cls-2{fill:#8758e7;}.cls-3{fill:#fc907e;}.cls-4{fill:#fff;}</style></defs><g id="Camada_2" data-name="Camada 2"><g id="Layer_1" data-name="Layer 1"><path class="cls-1" d="M93.24,46.62A46.62,46.62,0,1,1,46.62,0,46.4,46.4,0,0,1,93.24,46.62Z"/><path class="cls-2" d="M91.68,58.6A46.63,46.63,0,0,1,10.55,76.17C24.19,59.48,38.9,57.7,38.9,57.7s-.35-2.52,0-3.2a3.77,3.77,0,0,1,1.68-1.13l.33-.13,1.9-.31c2.33-.37,6.35-1,9.47-1.19.95-.08,1.82-.12,2.53-.11a4.67,4.67,0,0,1,1.68.23c.39.18.84,1.38.84,1.38a57.57,57.57,0,0,1,13.74,0A92.82,92.82,0,0,1,91.68,58.6Z"/><path class="cls-3" d="M38.74,32.44s-8.16-2.62-8.2,3.51c-.05,7.1,8.36,6.38,8.36,6.38Z"/><path d="M35.38,39.17A.49.49,0,0,1,35,39l-3-4.24a.51.51,0,0,1,.11-.7.5.5,0,0,1,.7.12l3,4.24a.51.51,0,0,1-.12.7A.52.52,0,0,1,35.38,39.17Z"/><path d="M32.21,38.11a.5.5,0,0,1-.06-1l2.24-.24a.49.49,0,0,1,.55.44.5.5,0,0,1-.44.55l-2.24.25Z"/><path class="cls-3" d="M54.43,47.84l.83,8.23a17.33,17.33,0,0,1-7,2.44c-5.36.6-7.46-2.42-7.46-2.42L40,46.44Z"/><path d="M54.43,47.83s-2,6.9-8.12,6.56c-5-.28-7-7.1-7-7.1Z"/><path class="cls-3" d="M35.61,25.94s-2,15.38,2.91,21.65c5.3,6.73,12.55,3.9,15.14,1.49a12.66,12.66,0,0,0,3.89-7.33s5.27.55,6.6-3.83c1.4-4.6-2.16-7.87-4.76-7.84s-2.87.53-2.87.53l.32-4.81S39.48,9.79,35.61,25.94Z"/><path d="M58,37.39a.49.49,0,0,1-.34-.14.5.5,0,0,1,0-.71l3.68-3.79a.5.5,0,1,1,.71.69l-3.67,3.8A.51.51,0,0,1,58,37.39Z"/><path d="M61.71,37.68a.5.5,0,0,1-.26-.08l-2.53-1.55a.51.51,0,0,1-.16-.69.5.5,0,0,1,.69-.16L62,36.75a.5.5,0,0,1-.26.93Z"/><path d="M49.79,34a.5.5,0,0,1-.5-.48l-.08-2.55a.49.49,0,0,1,.48-.51.47.47,0,0,1,.51.48l.09,2.55a.49.49,0,0,1-.48.51Z"/><path d="M40,34.33a.51.51,0,0,1-.5-.49l-.09-2.55a.5.5,0,0,1,.49-.51.49.49,0,0,1,.51.48l.09,2.55a.51.51,0,0,1-.48.52Z"/><path d="M45.15,40.63a.5.5,0,0,1-.48-.35,14.2,14.2,0,0,1-.15-7.45.49.49,0,0,1,.62-.34.5.5,0,0,1,.34.62A13.42,13.42,0,0,0,45.63,40a.51.51,0,0,1-.34.62A.36.36,0,0,1,45.15,40.63Z"/><path d="M38.31,29.12a.49.49,0,0,1-.37-.84,5.08,5.08,0,0,1,2.93-1.22.5.5,0,1,1,.08,1,4.21,4.21,0,0,0-2.28.92A.51.51,0,0,1,38.31,29.12Z"/><path d="M50.84,28.92a.55.55,0,0,1-.25-.07,4.17,4.17,0,0,0-2.45-.25.5.5,0,0,1-.59-.39.49.49,0,0,1,.39-.59,5.06,5.06,0,0,1,3.15.36.51.51,0,0,1,.18.69A.5.5,0,0,1,50.84,28.92Z"/><path d="M57.72,30.52s-1.2,4.8-1.82,4.66-.29-7.55,1.44-8S57.72,30.52,57.72,30.52Z"/><path d="M45.9,45a.5.5,0,0,1,0-1,4.2,4.2,0,0,0,3.5-2.22.49.49,0,0,1,.66-.25.5.5,0,0,1,.25.66A5.22,5.22,0,0,1,45.92,45Z"/><path d="M56.92,29.9s-5.26-.21-8.88-2.77a13.5,13.5,0,0,1-4.35-5.38s-2.26-.19-5.38,1.92-3.11,8.22-3.11,8.22-6.38-10.07-3.71-13.84,7.41-.95,7.41-.95-1.11-6.71,8.34-4.51A16.47,16.47,0,0,1,59.19,22.77s3.17-.42,3.7,2.51a13.6,13.6,0,0,1-.55,6,3.45,3.45,0,0,0-3.54-.38l-2.1.89Z"/><path class="cls-2" d="M40.91,53.24s1.82,1.73,6,1.83,7.9-3.29,7.9-3.29l2.71,5-6.7,4.09L39.61,59.9v-5Z"/><path class="cls-4" d="M45.55,61.35a9.2,9.2,0,0,1-7-3.36.49.49,0,0,1,.11-.7.5.5,0,0,1,.69.11,8.09,8.09,0,0,0,9,2.52.5.5,0,0,1,.29,1A10.6,10.6,0,0,1,45.55,61.35Z"/></g></g></svg>