<svg xmlns="http://www.w3.org/2000/svg" viewBox="0 0 93.25 93.25"><defs><style>.cls-1{fill:#f7f5ff;}.cls-2{fill:#b55c4d;}.cls-3{fill:#ada4f7;}.cls-4{fill:#fff;}</style></defs><g id="Camada_2" data-name="Camada 2"><g id="Layer_1" data-name="Layer 1"><path class="cls-1" d="M93.25,46.63A46.61,46.61,0,0,1,46.63,93.25a47.1,47.1,0,0,1-8.2-.72A43.85,43.85,0,0,1,32.26,91a46.62,46.62,0,1,1,61-44.35Z"/><path d="M39.53,21.66a19.41,19.41,0,0,0-19.6-.19c-10.62,5.9-7.29,16.84-7.29,16.84S4.32,48.75,8.21,59.12,29.4,72.44,37.08,60.74s-4.52-22.12-4.52-22.12S42.46,38.57,39.53,21.66Z"/><path class="cls-2" d="M82.72,76.14a46.87,46.87,0,0,1-12.94,11,49.64,49.64,0,0,1,5.44-22.81A130.37,130.37,0,0,0,82.72,76.14Z"/><path d="M64.22,30.87S68.05,19,67.53,16,54.42,9.14,44.43,13.8,33.76,31.61,36,37c5.8,14,17.87,7.56,17.87,7.56S73.1,38.74,64.22,30.87Z"/><path class="cls-3" d="M78.86,80.31A46.53,46.53,0,0,1,46.63,93.25a47.1,47.1,0,0,1-8.2-.72A43.85,43.85,0,0,1,32.26,91c.51-9.89,1.18-20.09,2-26.95.53-4.39,1.13-7.41,1.8-8.12a8.19,8.19,0,0,1,3.46-1.74,38,38,0,0,1,10.16-1.32,43.89,43.89,0,0,1,12.79,1.67,24.47,24.47,0,0,1,10,5.5,12.83,12.83,0,0,1,2.72,4.27C77,68.32,78.11,74,78.86,80.31Z"/><path class="cls-2" d="M62.47,46.39v5.84l0,4.35s.39,1-4.44.87c-6.49-.2-8.69-3-8.69-3l-.7-10.17,2,.31Z"/><path d="M62.49,47V52.1c-3.06-.24-8.65-1.33-11.08-6a3.59,3.59,0,0,1-.36-1L62.47,46.9Z"/><path class="cls-2" d="M63.46,22.42S69.83,35.49,68,43.06s-8.65,6.67-12.78,5.4a13.56,13.56,0,0,1-6.14-3.7,5.76,5.76,0,0,1-6.45-2c-2.69-3.44-1.29-7.57.84-8.6s4.79.44,4.79.44l-2.19-3.78S53.82,10.82,63.46,22.42Z"/><path d="M63.53,39.44a.3.3,0,0,1-.13,0,.49.49,0,0,1-.35-.61c.66-2.44-1.24-5-1.26-5a.5.5,0,1,1,.79-.61c.1.12,2.22,3,1.43,5.89A.5.5,0,0,1,63.53,39.44Z"/><path d="M47.94,41a.47.47,0,0,1-.35-.15l-3.76-3.71a.5.5,0,0,1,.71-.71l3.75,3.71a.5.5,0,0,1,0,.71A.47.47,0,0,1,47.94,41Z"/><path d="M44.07,40.07a.51.51,0,0,1-.49-.41.5.5,0,0,1,.4-.58l2.49-.46a.48.48,0,0,1,.58.39.5.5,0,0,1-.4.59l-2.49.46Z"/><path d="M59.39,43.69a2.5,2.5,0,0,1-1.06-.24,5.07,5.07,0,0,1-2.43-2.77.51.51,0,0,1,.62-.64l5.26,1.55a.51.51,0,0,1,.23.82A4,4,0,0,1,59.39,43.69Zm-2-2.35a3.53,3.53,0,0,0,1.39,1.2,1.91,1.91,0,0,0,1.84-.26Z"/><path d="M54.84,30a.54.54,0,0,1-.21-.05.5.5,0,0,1-.24-.66c.87-1.84,3.16-1.45,3.26-1.43a.49.49,0,0,1,.4.58.5.5,0,0,1-.57.4c-.07,0-1.65-.27-2.18.87A.52.52,0,0,1,54.84,30Z"/><path d="M62,28.22a.48.48,0,0,1-.26-.07.49.49,0,0,1-.16-.69,2.08,2.08,0,0,1,1.44-1,3.41,3.41,0,0,1,2.37.78.5.5,0,0,1,.07.7.5.5,0,0,1-.71.07,2.44,2.44,0,0,0-1.58-.56,1.07,1.07,0,0,0-.74.55A.51.51,0,0,1,62,28.22Z"/><path d="M64.67,33.84a.49.49,0,0,1-.49-.41L63.73,31a.47.47,0,0,1,.09-.39l.9-1.2a.51.51,0,0,1,.7-.1.5.5,0,0,1,.1.7l-.77,1,.41,2.25a.5.5,0,0,1-.4.58Z"/><path d="M56.3,34.68a.5.5,0,0,1-.5-.41l-.4-2.47a.51.51,0,0,1,.13-.43L56.87,30a.49.49,0,0,1,.7,0,.5.5,0,0,1,0,.71l-1.16,1.23.36,2.22a.5.5,0,0,1-.41.58Z"/><path d="M48.3,34.62S54,31.44,56,27.18s2-6.36,2-6.36.94,2.72,3.08,3.29a16.51,16.51,0,0,0,3.47.6L66,28.56l-1.2-9.27s-5.85-2.87-6.62-2.84-10.41,2.1-11,2.71-3.33,8.24-3.33,8.24l-.09,3.41Z"/><path class="cls-2" d="M38.43,92.53A43.85,43.85,0,0,1,32.26,91a46.21,46.21,0,0,1-16.5-9.42A71.79,71.79,0,0,1,24.2,68.24,84.76,84.76,0,0,1,36.07,55.91l.55,2.53a80,80,0,0,1,1.8,16.9C38.42,81,38.43,86.52,38.43,92.53Z"/><path class="cls-4" d="M57.87,57.92a14.74,14.74,0,0,1-9.56-3.58.5.5,0,0,1,.7-.72,13.47,13.47,0,0,0,14.32,2.19.5.5,0,0,1,.38.93A15.38,15.38,0,0,1,57.87,57.92Z"/></g></g></svg>