<svg xmlns="http://www.w3.org/2000/svg" viewBox="0 0 74.77 84.75"><defs><style>.cls-1{fill:#e56445;}.cls-2{fill:#7c6053;}.cls-3{fill:#fca397;}.cls-4{fill:#fff;}</style></defs><g id="Camada_2" data-name="Camada 2"><g id="Layer_1" data-name="Layer 1"><path class="cls-1" d="M57.78,47.92S56.93,1.83,40.62.16,22.39,10,22.39,10s-4.07,1.45-4.89,7.65-1.21,30.91-1.21,30.91l36.82,2.11Z"/><path class="cls-2" d="M74.77,64.84c-.58,1-1.19,1.92-1.84,2.85-.13.17-.26.33-.4.49-.86,1-1.77,2-2.71,2.95a44.71,44.71,0,0,1-4.88,4.23c-.84.64-1.71,1.25-2.6,1.83l-.31.19a41.08,41.08,0,0,1-3.92,2.26l-.94.47A47.24,47.24,0,0,1,52.71,82a45,45,0,0,1-6.24,1.77,46.64,46.64,0,0,1-9.59,1c-.65,0-1.31,0-2,0s-1.49-.08-2.23-.15h-.14c-1.39-.13-2.77-.32-4.12-.58q-1.17-.21-2.31-.48A46.89,46.89,0,0,1,14.41,79l-.11-.06c-.2-.11-.4-.22-.59-.34-.61-.34-1.22-.7-1.81-1.08-3.12-12.32-4.37-23.49-.51-28a4.78,4.78,0,0,1,.66-.69,29.35,29.35,0,0,1,2.89-2.16l.1-.06a34.47,34.47,0,0,1,5.39-2.83l.06,0c12.24-5.1,28-4.25,36.62-.66C62.64,45.35,69.45,55.5,74.77,64.84Z"/><path class="cls-3" d="M29.34,31.41V42.73s2,3.25,8.66,3.79c4.93.4,6.5-2.13,6.5-2.13l-1.2-9.91-12-2.63Z"/><path d="M29.35,30.72a3.86,3.86,0,0,0,.33,1.09c2.54,5.66,11.45,8,14.3,8.26l-.68-5.59Z"/><path class="cls-4" d="M65.31,70.83l-.52,4.64c-.36.28-.73.54-1.1.8l.63-5.55c.78-7-2.69-15.63-2.73-15.72a.5.5,0,0,1,.93-.38C62.66,55,66.12,63.6,65.31,70.83Z"/><path class="cls-3" d="M45.83,8.68s5.94,14.19,3.6,22.08-9.54,6.53-13.84,4.93a14.36,14.36,0,0,1-6.26-4.28,6.07,6.07,0,0,1-6.69-2.49c-2.64-3.79-.91-8.07,1.41-9s5,.75,5,.75L27,16.52S36.35-4.16,45.83,8.68Z"/><path d="M44.91,26.63l-.16,0a.52.52,0,0,1-.32-.64c.85-2.54-1-5.38-1-5.4a.51.51,0,0,1,.14-.7.5.5,0,0,1,.69.14c.09.13,2.16,3.26,1.15,6.28A.49.49,0,0,1,44.91,26.63Z"/><path d="M28.34,27.3a.5.5,0,0,1-.37-.16L24.23,23a.5.5,0,0,1,.74-.67l3.74,4.15a.49.49,0,0,1,0,.7A.5.5,0,0,1,28.34,27.3Z"/><path d="M24.31,26.12a.5.5,0,0,1-.06-1l2.66-.34a.5.5,0,0,1,.56.43.51.51,0,0,1-.44.56l-2.65.34Z"/><path d="M47.91,15.16h-.1l-2.49-.5a.51.51,0,0,1-.39-.59.49.49,0,0,1,.59-.39l2.49.5a.48.48,0,0,1,.39.58A.5.5,0,0,1,47.91,15.16Z"/><path d="M37.47,16.54a.52.52,0,0,1-.46-.29.5.5,0,0,1,.24-.66L40.59,14a.5.5,0,0,1,.67.24.49.49,0,0,1-.24.66l-3.34,1.59A.54.54,0,0,1,37.47,16.54Z"/><path d="M46.77,20.94a.49.49,0,0,1-.48-.36L45.57,18a.48.48,0,0,1,.1-.46l.81-.93a.49.49,0,0,1,.7-.06.51.51,0,0,1,0,.71L46.6,18l.65,2.31a.5.5,0,0,1-.35.61A.3.3,0,0,1,46.77,20.94Z"/><path d="M38.63,21.45a.5.5,0,0,1-.48-.37l-.72-2.56a.48.48,0,0,1,.11-.47l1.11-1.23a.5.5,0,0,1,.71,0,.5.5,0,0,1,0,.71l-.92,1,.64,2.3a.51.51,0,0,1-.35.62Z"/><path class="cls-1" d="M49.9,13.72A36,36,0,0,0,43.24,13l-2.74.1L39.38,8.73l0,4.81a14.31,14.31,0,0,0-7,3.58l-1.82-3.71.76,4.67-2.22,2.57-3.36-3.14L27.87,11s5.07-7.07,5.46-7.16S41,3.36,41,3.36,47.3,5.81,47.45,6,49.9,13.72,49.9,13.72Z"/><path class="cls-4" d="M38.88,46.67a17.94,17.94,0,0,1-10.3-3.43.51.51,0,0,1-.13-.7.5.5,0,0,1,.7-.12c8.66,6,15.62,2,15.91,1.85a.51.51,0,0,1,.69.18.49.49,0,0,1-.18.68A14.28,14.28,0,0,1,38.88,46.67Z"/><path class="cls-2" d="M32.55,84.55c-1.39-.13-2.77-.32-4.12-.58q-1.17-.21-2.31-.48A46.89,46.89,0,0,1,14.41,79l-.11-.06c-.2-.11-.4-.22-.59-.34-.61-.34-1.22-.7-1.81-1.08s-1.08-.7-1.61-1.07c-.95-.65-1.88-1.35-2.78-2.09l-.32-.25q-1.91-1.59-3.65-3.36c-.33-.33-.65-.67-1-1-.74-.79-1.45-1.62-2.11-2.46L0,66.72a.21.21,0,0,1,0-.06A45.58,45.58,0,0,1,11.39,49.47a33.52,33.52,0,0,1,3.55-2.85l.1-.06a21.7,21.7,0,0,1,5.39-2.83l.06,0S32.55,84.55,32.55,84.55Z"/><path d="M43.44,31a5.88,5.88,0,0,1-3-1.48.5.5,0,0,1-.14-.56.48.48,0,0,1,.47-.32l4.62.08a.5.5,0,0,1,.35.85,7.62,7.62,0,0,1-1.73,1.28A1.25,1.25,0,0,1,43.44,31Zm-1-1.33c.49.26.93.4,1.13.3a5.11,5.11,0,0,0,.46-.28Z"/></g></g></svg>